<?xml version="1.0" standalone="no"?>
<!DOCTYPE svg PUBLIC "-//W3C//DTD SVG 20010904//EN"
 "http://www.w3.org/TR/2001/REC-SVG-20010904/DTD/svg10.dtd">
<svg version="1.0" xmlns="http://www.w3.org/2000/svg"
 width="570.000000pt" height="119.000000pt" viewBox="0 0 570.000000 119.000000"
 preserveAspectRatio="xMidYMid meet">

<g transform="translate(0.000000,119.000000) scale(0.100000,-0.100000)"
fill="#000000" stroke="none">
<path d="M2024 1179 c-54 -16 -76 -49 -76 -119 -1 -110 50 -145 202 -138 110
6 145 23 160 80 14 52 5 123 -20 148 -10 10 -36 23 -57 29 -45 13 -165 13
-209 0z"/>
<path d="M60 585 l0 -525 170 0 170 0 0 185 0 186 123 -3 122 -3 3 -182 2
-183 165 0 165 0 0 525 0 525 -165 0 -165 0 0 -185 0 -185 -125 0 -125 0 0
185 0 185 -170 0 -170 0 0 -525z"/>
<path d="M3290 585 l0 -525 170 0 170 0 1 223 c1 142 4 209 9 187 5 -19 47
-118 94 -220 l84 -185 181 -3 c100 -1 181 1 181 6 0 5 -42 94 -93 198 -51 104
-108 221 -126 260 l-32 70 120 249 c67 136 121 252 121 256 0 5 -80 9 -178 9
l-179 0 -86 -182 c-47 -101 -88 -194 -90 -208 -2 -14 -5 68 -6 183 l-1 207
-170 0 -170 0 0 -525z"/>
<path d="M5320 1071 l-145 -37 -3 -67 -3 -67 -44 0 -45 0 0 -109 0 -110 43 -3
42 -3 5 -260 c3 -179 9 -267 17 -282 7 -11 36 -33 65 -47 49 -24 61 -26 195
-26 l143 0 0 54 c0 29 3 80 6 113 l7 61 -52 7 -51 7 0 189 0 189 60 0 60 0 0
110 0 110 -60 0 -60 0 0 105 c0 94 -2 105 -17 104 -10 0 -83 -18 -163 -38z"/>
<path d="M1295 913 c-61 -7 -190 -35 -197 -41 -5 -6 28 -231 36 -239 1 -1 26
4 56 12 73 20 260 37 310 29 36 -6 40 -9 40 -35 l0 -29 -92 0 c-275 -1 -420
-102 -420 -294 0 -102 16 -153 66 -202 101 -101 326 -100 478 3 l51 34 47 -46
46 -45 82 0 82 0 0 313 c0 348 -5 386 -60 445 -41 43 -112 78 -185 91 -54 10
-271 13 -340 4z m245 -540 c0 -27 -4 -53 -8 -60 -12 -20 -60 -33 -118 -33
l-54 0 0 41 c0 76 26 97 123 98 l57 1 0 -47z"/>
<path d="M2817 900 c-33 -10 -84 -35 -114 -55 l-56 -37 -39 46 -40 46 -89 0
-89 0 0 -420 0 -420 170 0 170 0 0 238 c0 215 2 240 18 254 18 16 100 45 142
50 25 3 25 4 23 88 -5 148 -14 230 -26 229 -7 0 -38 -8 -70 -19z"/>
<path d="M2118 877 l-158 -20 0 -399 0 -398 170 0 170 0 0 420 c0 330 -3 420
-12 419 -7 -1 -84 -11 -170 -22z"/>
<path d="M4210 565 c0 -359 5 -400 54 -453 42 -47 66 -52 226 -52 164 0 188 6
259 66 l32 27 48 -47 47 -46 82 0 82 0 0 420 0 420 -165 0 -164 0 -3 -290 c-3
-336 2 -319 -102 -327 l-66 -6 0 312 0 311 -165 0 -165 0 0 -335z"/>
</g>
</svg>
