<svg width="432" height="328" xmlns="http://www.w3.org/2000/svg" xmlns:xlink="http://www.w3.org/1999/xlink" xml:space="preserve" overflow="hidden"><defs><clipPath id="clip0"><rect x="308" y="40" width="432" height="328"/></clipPath><clipPath id="clip1"><rect x="308" y="41" width="432" height="327"/></clipPath><clipPath id="clip2"><rect x="308" y="41" width="432" height="327"/></clipPath><clipPath id="clip3"><rect x="308" y="41" width="432" height="327"/></clipPath></defs><g clip-path="url(#clip0)" transform="translate(-308 -40)"><g clip-path="url(#clip1)"><g clip-path="url(#clip2)"><g clip-path="url(#clip3)"><path d="M129.828 177.88C116.924 202.397 84.7532 317.456 84.7532 317.456 84.7532 317.456 10.8465 272.204 2.0779 212.076-6.95519 150.136 13.8141 88.744 57.5649 48.1938 110.472-0.841191 190.915-8.9417 248.545 8.1911 306.176 25.3239 391.78 77.8732 415.007 169.492 425.012 208.957 385.328 267.563 385.328 267.563 385.328 267.563 379.611 218.888 372.423 190.138 362.1 148.845 341.752 127.433 341.752 127.433 341.752 127.433 333.964 183.506 315.273 194.409 296.581 205.312 268.545 200.639 268.545 200.639 279.448 188.179 284.121 144.567 284.121 144.567 284.121 144.567 281.198 183.384 246.932 202.075 212.665 220.766 143.941 211.542 143.941 211.542 175.092 177.275 181.322 124.318 181.322 124.318 181.322 124.318 150.978 137.695 129.828 177.88Z" fill="#544D4F" fill-rule="nonzero" fill-opacity="1" transform="matrix(1 0 0 1.00052 314.956 50.2156)"/><path d="M216.895 141.61C218.654 136.951 225.205 138.758 224.332 143.661 222.451 154.221 219.361 164.124 214.753 173.816 212.515 178.523 210.078 183.114 207.102 187.398 203.956 191.927 200.583 197.135 195.108 198.899 192.54 199.726 189.104 197.433 189.413 194.561 189.994 189.153 193.483 185.044 196.353 180.601 199.013 176.485 201.73 172.399 204.175 168.149 209.039 159.694 213.451 150.739 216.895 141.61L216.895 141.61ZM116.195 141.369C110.708 147.064 105.005 152.464 100.123 158.709 95.226 164.973 91.3145 171.864 87.8551 179.014 81.1296 192.914 74.6233 209.502 76.3219 225.173 76.8711 230.244 83.3062 231.252 85.1584 226.369 87.7532 219.532 89.1703 212.49 91.1107 205.444 93.0939 198.243 95.4582 191.064 98.2842 184.15 101.026 177.439 104.487 171.067 107.786 164.623 111.279 157.803 114.895 150.864 119.717 144.892 121.686 142.453 118.47 139.008 116.195 141.369ZM71.2529 160.936C56.7731 177.525 49.1854 200.831 55.3916 222.433 56.5749 226.551 63.484 225.952 63.1241 221.387 61.5638 201.63 65.1769 181.651 77.1825 165.512 79.7311 162.085 74.0604 157.719 71.2529 160.936Z" fill="#4F484A" fill-rule="nonzero" fill-opacity="1" transform="matrix(1 0 0 1.00052 314.956 50.2156)"/></g></g></g></g></svg>