<svg width="165" height="170" xmlns="http://www.w3.org/2000/svg" xmlns:xlink="http://www.w3.org/1999/xlink" xml:space="preserve" overflow="hidden"><defs><clipPath id="clip0"><rect x="588" y="794" width="165" height="170"/></clipPath><clipPath id="clip1"><rect x="588" y="795" width="165" height="169"/></clipPath><clipPath id="clip2"><rect x="588" y="795" width="165" height="169"/></clipPath><clipPath id="clip3"><rect x="588" y="795" width="165" height="169"/></clipPath></defs><g clip-path="url(#clip0)" transform="translate(-588 -794)"><g clip-path="url(#clip1)"><g clip-path="url(#clip2)"><g clip-path="url(#clip3)"><path d="M328.888 253.101C329.41 241.155 323.925 216.594 304.053 195.703 262.402 151.927 185.255 178.216 170.964 220.314 165.513 236.376 164.41 238.268 164.447 253.172 164.479 265.133 167.855 285.56 167.855 285.56 167.855 285.56 172.577 286.638 172.577 289.889 172.577 293.14 175.077 319.276 175.077 319.276L178.573 317.351C178.573 317.351 177.048 291.619 179.081 285.268 181.112 278.914 185.806 261.863 185.806 261.863 185.806 261.863 184.339 234.29 190.36 234.552 245.967 309.62 311.294 278.914 313.326 285.268 315.358 291.619 314.183 318.043 314.183 318.043L317.251 320.24C317.251 320.24 319.83 293.14 319.83 289.889 319.83 286.638 323.689 285.886 323.689 285.886 323.689 285.886 328.195 269.021 328.888 253.101" fill="#9A2F1E" fill-rule="nonzero" fill-opacity="1" transform="matrix(1 0 0 1.00344 423.583 642.604)"/></g></g></g></g></svg>