<svg width="434" height="263" xmlns="http://www.w3.org/2000/svg" xmlns:xlink="http://www.w3.org/1999/xlink" xml:space="preserve" overflow="hidden"><defs><clipPath id="clip0"><rect x="2" y="777" width="434" height="263"/></clipPath><clipPath id="clip1"><rect x="3" y="778" width="432" height="261"/></clipPath><clipPath id="clip2"><rect x="3" y="778" width="432" height="261"/></clipPath><clipPath id="clip3"><rect x="3" y="778" width="432" height="261"/></clipPath></defs><g clip-path="url(#clip0)" transform="translate(-2 -777)"><g clip-path="url(#clip1)"><g clip-path="url(#clip2)"><g clip-path="url(#clip3)"><path d="M254.48 8.14966C252.114 8.14966 249.55 8.28111 246.396 8.60972 243.57 8.93834 241.007 9.3984 238.706 10.0556 233.448 11.5673 228.453 14.1962 223.787 17.8767 222.801 17.2852 221.684 16.8251 220.632 16.2993 219.515 15.7735 218.266 15.3792 216.755 15.0506 213.534 14.3276 210.182 13.999 206.962 13.7361L206.436 13.6704C204.662 13.539 202.953 13.4075 201.113 13.3418 200.061 13.2761 199.009 13.2103 197.958 13.2103 197.629 13.2103 197.301 13.2103 196.906 13.2103 194.343 13.2103 191.583 13.4075 188.297 13.8018 182.447 14.4591 176.729 16.7594 172.983 18.3367 168.448 20.3084 163.979 23.2002 159.707 27.0122 155.895 30.3641 152.478 34.5046 149.389 39.2367 147.745 41.7341 146.431 44.4945 145.379 46.8605 144.394 48.898 143.605 50.8039 142.816 52.7099 142.619 52.5785 142.422 52.5127 142.159 52.447L141.633 52.2498C139.793 51.4612 137.953 50.6725 136.047 50.0153 133.418 49.1609 130.592 48.7665 127.963 48.4379 125.86 48.175 123.691 48.0436 121.588 47.8464L120.142 47.7149C118.104 47.5835 116.198 47.5178 114.358 47.5178 111.926 47.5178 109.626 47.6492 107.391 47.9121 105.354 48.175 103.054 48.6351 100.556 49.4895 98.3217 50.2124 96.0214 51.0668 93.7868 52.1841 92.9324 51.8555 92.078 51.7241 91.1579 51.7241 89.3176 51.7241 87.5431 52.3813 86.2944 53.63 85.7029 54.2215 85.1114 54.7473 84.5199 55.3388 84.3227 55.4045 84.0598 55.536 83.8626 55.6017 83.074 55.9961 82.351 56.4561 81.4309 57.1133 80.3793 57.902 79.6564 58.7564 78.9991 59.5451 77.8818 60.9253 77.1589 62.4369 76.3702 64.1457 76.173 64.54 75.9759 65.0001 75.8444 65.4602 74.8586 66.9061 73.9385 68.352 73.2155 69.8636 70.6523 74.9243 68.9435 80.3136 68.1548 85.9658 67.0375 86.7544 65.9202 87.6088 64.8029 88.529 61.3196 91.3551 57.9677 94.8384 54.8788 98.9132 51.9869 102.659 49.6866 107.063 48.175 111.663 47.3206 114.227 46.8605 116.987 46.4662 119.353 46.0719 121.785 45.809 124.217 45.6775 126.846 45.4804 131.446 46.0719 135.981 47.3863 140.45 45.2832 141.173 43.1143 142.093 40.354 143.342 35.359 145.642 30.8241 148.6 26.815 152.017 24.7119 153.792 22.9374 155.895 21.1628 157.998 19.6512 159.839 18.271 161.876 17.0223 164.373 16.5622 165.228 16.1679 166.016 15.8393 166.739 13.999 167.265 12.2245 168.317 10.8443 169.631 9.3984 171.011 8.67544 172.589 7.82104 174.56 7.36098 175.612 7.03237 176.795 6.70375 178.438 6.44086 179.95 6.17797 181.593 6.11225 183.367 6.04652 185.076 6.24369 186.785 6.44086 188.297 6.63803 189.743 7.16381 191.188 7.75532 192.503L7.82104 192.766C8.28111 193.883 8.80689 195 9.52985 196.183 10.8443 198.286 12.4874 200.39 14.5248 202.427L14.5248 202.559C14.0647 205.45 13.9333 208.408 13.7361 211.3L13.6704 211.891C13.3418 217.872 13.1446 224.247 15.3135 230.096 15.3792 230.359 15.5106 230.622 15.5764 230.885 15.5106 231.082 15.4449 231.279 15.3792 231.477 14.7877 233.383 14.9849 235.617 15.905 237.063 17.8767 240.218 19.8484 243.241 22.2801 245.936 23.3974 247.119 24.5804 248.17 25.632 249.025L25.8949 249.222C26.9465 250.142 28.0638 251.062 29.2468 251.851 31.1527 253.165 33.1244 254.414 35.1618 255.597 35.4247 255.794 35.7533 255.926 36.0162 256.123 37.9879 257.306 39.9596 258.555 42.2599 258.555 42.7857 258.555 43.3115 258.489 43.8373 258.357 46.5977 257.634 48.8322 255.926 49.8838 253.822L49.8838 253.757C50.9354 252.837 51.6583 251.719 52.1184 250.405 52.5785 248.893 52.5785 247.25 51.9869 245.739 53.5643 245.607 55.4703 245.41 57.3762 244.95 59.085 244.556 60.7281 243.833 62.5684 243.044 65.7888 241.664 68.6149 239.692 71.2438 237.72 73.2812 236.209 75.2529 234.368 77.0932 232.2 78.1447 230.951 79.262 229.571 80.2479 228.059 81.2337 226.547 82.0224 224.839 82.7453 223.327 83.534 221.552 84.1913 219.581 84.717 217.478 85.7686 217.675 86.9516 217.938 88.1346 217.938 89.9749 217.938 91.5522 217.609 93.6554 216.689 95.9557 215.703 98.0588 214.191 100.031 212.746L100.359 212.483C104.894 209.197 108.575 204.859 111.269 201.507 113.832 198.221 116.198 194.54 118.696 189.808 120.207 186.982 121.522 184.09 122.705 181.264L122.771 181.199C126.78 177.584 130 173.18 132.366 168.12 133.023 166.674 133.681 165.162 134.404 163.453 136.112 163.453 137.756 163.388 139.333 163.322 141.436 165.294 143.079 166.805 144.722 168.185 148.534 171.471 152.017 174.1 155.369 176.269 158.787 178.504 162.665 180.476 167.725 182.513 176.664 186.128 186.128 187.114 196.775 187.968 196.972 187.968 197.103 187.968 197.301 187.968 200.981 187.968 204.136 184.748 204.333 181.001L204.333 180.936C205.385 180.344 206.502 179.687 207.882 178.767 209.328 177.847 210.511 176.926 211.628 176.072 212.614 177.715 213.731 179.227 214.98 180.738 216.755 182.842 218.924 184.616 220.961 186.193 223.524 188.165 226.482 189.545 228.782 190.465 231.477 191.583 234.368 192.109 236.932 192.503 237.918 192.634 238.903 192.766 239.889 192.766 241.795 192.766 243.701 192.503 245.607 191.911 247.053 191.451 248.499 190.86 250.011 190.137 251.456 189.414 252.771 188.494 253.888 187.639 255.006 186.851 256.057 185.865 257.174 184.682 258.423 186.062 259.803 187.179 261.315 188.428 263.287 190.071 265.521 191.188 268.216 192.503 273.079 194.803 278.337 195.658 282.872 196.183 283.858 196.315 284.909 196.381 285.961 196.381 290.299 196.381 294.768 195.329 298.843 193.292 299.763 192.831 300.749 192.24 301.8 191.517 302.26 193.489 302.852 195.526 303.838 197.958 304.824 200.39 306.072 202.624 307.847 205.056 308.504 205.976 309.227 206.831 310.016 207.619 310.87 208.539 311.922 209.394 312.908 210.182L313.499 210.708C315.536 212.417 317.968 213.6 320.466 214.717 322.503 215.637 324.738 216.36 327.629 217.018 330.981 217.741 333.742 218.201 336.305 218.398 336.962 218.463 337.685 218.463 338.342 218.463 340.643 218.463 343.009 218.201 344.98 217.938 345.703 217.872 346.426 217.741 347.149 217.543 347.083 218.529 347.018 219.515 347.018 220.435 346.952 222.604 347.083 224.839 347.412 227.336 347.741 229.505 348.332 231.74 349.384 234.237 350.304 236.472 351.618 238.378 352.933 240.152 354.05 241.729 355.299 243.11 356.613 244.227 358.519 245.87 360.097 246.922 361.805 247.842 363.974 248.959 366.209 249.813 368.641 250.471 370.481 250.996 372.387 251.325 374.227 251.588 374.49 252.048 374.819 252.508 375.213 252.968 376.265 254.151 378.171 255.268 379.945 255.268 380.076 255.268 380.142 255.268 380.208 255.268 384.611 254.94 389.672 254.545 394.47 253.231 399.136 251.917 403.54 250.076 407.417 247.776 409.586 246.462 411.689 244.95 413.661 243.241 415.633 241.467 417.341 239.363 418.59 237.655 420.036 235.683 421.088 233.514 422.139 231.082 422.928 229.374 423.519 227.402 424.045 224.773 425.097 219.646 425.36 214.586 424.965 209.722 424.702 206.765 424.308 204.333 423.717 202.098 425.951 200.85 427.397 198.549 427.463 196.052L427.463 195.723C427.66 189.611 427.857 183.367 427.331 177.189L427.2 175.481C427.068 173.64 426.937 171.8 426.674 169.894 426.477 168.054 426.148 165.622 425.557 163.19 425.36 162.336 425.097 161.482 424.9 160.627 424.768 160.101 424.571 159.51 424.44 158.984 423.585 155.632 422.731 152.017 421.745 148.008 420.956 144.788 417.999 142.422 414.647 142.422 414.515 142.422 414.384 142.422 414.187 142.422 413.332 140.976 412.347 139.399 411.032 137.624 408.272 133.878 404.854 130.92 402.159 128.751 400.516 127.371 398.939 126.254 397.427 125.268 396.113 124.414 394.667 123.691 393.287 122.968L392.498 122.574 391.709 122.245 391.381 122.113 391.381 121.391C391.381 120.733 391.315 120.01 391.315 119.353 391.249 117.25 390.987 115.081 390.724 112.584 390.395 110.152 389.738 107.523 388.752 104.763 387.7 101.871 386.517 99.3733 385.137 97.073 383.626 94.5755 381.917 92.2095 380.076 90.1063 378.105 87.9375 375.805 86.0315 374.03 84.717 371.927 83.1397 369.495 81.7595 366.275 80.445 363.186 79.1963 359.702 78.6048 355.562 78.6048 353.524 78.6048 351.355 78.7362 348.595 79.0648 346.821 79.262 344.98 79.6564 343.14 80.1821 343.403 77.0932 343.337 74.0042 343.206 71.6381 342.943 66.446 342.351 62.3712 341.366 58.8221 340.183 54.7473 338.079 50.8697 335.188 47.3206 332.624 44.1659 329.273 41.6684 326.052 39.3681 325.001 38.6452 323.686 38.2508 322.372 38.2508 319.874 38.2508 317.377 39.5653 316.062 41.6027 315.931 41.7999 315.865 41.997 315.734 42.1285 314.814 41.9313 313.828 41.7999 312.908 41.6684L312.579 41.6027C311.922 41.537 311.133 41.4713 310.213 41.4713 309.687 41.4713 309.161 41.4713 308.636 41.4713L308.438 41.4713C305.809 41.537 302.918 41.8656 299.829 42.4571 298.12 42.7857 296.345 43.3115 294.374 44.1002 294.045 41.6684 293.519 39.4338 292.862 37.3964 291.022 31.7442 288.196 26.5521 284.515 22.0172 282.675 19.7826 280.506 17.8767 278.666 16.365 276.76 14.7877 274.657 13.4075 272.422 12.2245 269.727 10.7786 267.23 9.79274 264.667 9.20123 261.972 8.544 259.08 8.21538 255.4 8.14966 255.071 8.14966 254.808 8.14966 254.48 8.14966ZM33.9788 229.242C34.1103 229.176 34.2417 229.111 34.3732 229.111 34.2417 229.176 34.1103 229.176 33.9788 229.242Z" fill="#5B3E36" fill-rule="nonzero" fill-opacity="1" transform="matrix(1.00016 0 0 1 3.06573 778.04)"/><path d="M413.595 229.045C413.004 229.176 412.478 229.571 412.215 230.031 411.886 230.491 411.689 231.279 411.886 231.805 412.149 232.528 412.412 233.251 412.544 234.04 412.544 234.237 412.544 234.368 412.544 234.566 412.412 235.157 412.149 235.683 411.952 236.209 411.558 236.932 411.163 237.589 410.638 238.18 409.06 239.955 407.22 241.467 405.314 242.912 401.831 245.344 398.15 247.447 394.207 249.025 393.221 249.419 392.235 249.682 391.184 249.945 390.001 250.208 388.818 250.405 387.635 250.536 384.677 250.799 381.72 250.668 378.762 250.208 377.382 249.945 376.002 249.55 374.687 248.959 373.833 248.565 373.044 248.039 372.321 247.513 371.795 247.053 371.335 246.593 370.941 246.067 370.678 245.673 370.481 245.279 370.284 244.818 370.087 244.227 369.889 243.635 369.758 243.11 369.429 241.927 368.246 241.072 366.998 241.401 365.815 241.664 364.96 242.978 365.289 244.161 365.683 245.541 366.077 246.922 366.8 248.105 367.523 249.353 368.575 250.405 369.692 251.325 372.058 253.165 374.884 254.217 377.776 254.677 380.734 255.203 383.691 255.4 386.649 255.203 388.095 255.137 389.606 254.94 391.052 254.677 392.564 254.414 394.076 253.954 395.521 253.428 398.282 252.377 400.911 251.128 403.408 249.616 405.971 248.105 408.535 246.33 410.835 244.424 411.886 243.57 412.872 242.584 413.792 241.598 414.318 241.007 414.778 240.415 415.173 239.823 415.698 239.101 416.027 238.378 416.356 237.589 416.619 236.997 416.816 236.34 417.013 235.749 417.21 234.96 417.21 234.106 417.144 233.317 417.013 232.462 416.75 231.608 416.487 230.754 416.421 230.557 416.356 230.359 416.29 230.162 416.093 229.834 415.83 229.505 415.501 229.308 415.107 229.045 414.713 228.979 414.252 228.979 413.924 228.979 413.792 229.045 413.595 229.045L413.595 229.045Z" fill="#5B3E36" fill-rule="nonzero" fill-opacity="1" transform="matrix(1.00016 0 0 1 3.06573 778.04)"/><path d="M415.37 232.068C414.975 232.462 414.581 233.12 414.647 233.646 414.647 233.843 414.647 234.04 414.647 234.237 414.45 234.894 414.252 235.486 413.99 236.077 413.53 236.932 413.069 237.72 412.478 238.443 411.163 239.889 409.783 241.204 408.272 242.518 406.629 243.964 404.92 245.279 403.145 246.593 399.991 248.828 396.573 250.799 392.958 252.245 390.724 253.034 388.489 253.691 386.123 253.954 383.297 254.151 380.471 253.954 377.71 253.494 376.002 253.165 374.359 252.837 372.781 252.179 372.19 251.917 371.664 251.588 371.204 251.194 371.007 250.996 370.81 250.799 370.678 250.602 370.415 250.208 370.152 249.748 369.889 249.288 369.298 248.17 367.852 247.776 366.8 248.367 365.683 248.959 365.289 250.339 365.88 251.456 366.406 252.442 366.998 253.428 367.786 254.283 368.772 255.268 370.021 255.926 371.27 256.517 372.518 257.043 373.833 257.372 375.147 257.7 376.659 258.029 378.105 258.292 379.616 258.423 382.443 258.752 385.334 258.752 388.226 258.357 391.118 257.963 393.944 256.977 396.639 255.794 399.136 254.677 401.502 253.297 403.803 251.851 406.234 250.208 408.6 248.433 410.835 246.527 411.755 245.739 412.675 244.884 413.595 244.03 414.581 243.044 415.501 242.058 416.421 241.007 417.341 239.955 417.933 238.706 418.524 237.457 418.985 236.34 419.445 235.091 419.379 233.843 419.313 233.185 419.182 232.66 418.787 232.2 418.393 231.74 417.802 231.477 417.21 231.477 417.21 231.477 417.144 231.477 417.144 231.477 416.356 231.411 415.764 231.674 415.37 232.068L415.37 232.068Z" fill="#5B3E36" fill-rule="nonzero" fill-opacity="1" transform="matrix(1.00016 0 0 1 3.06573 778.04)"/><path d="M413.464 230.491C412.609 231.279 412.412 232.857 413.332 233.711 413.53 233.908 413.727 234.106 413.924 234.303 413.924 234.368 413.924 234.5 413.924 234.566 413.792 235.157 413.595 235.749 413.332 236.34 412.807 237.392 412.084 238.312 411.361 239.232 408.075 243.044 404.328 246.462 400.253 249.419 397.164 251.588 393.944 253.494 390.461 254.874 388.62 255.531 386.78 255.926 384.874 256.189 382.837 256.32 380.799 256.254 378.828 255.926 377.316 255.663 375.87 255.203 374.49 254.611 373.438 254.085 372.518 253.494 371.598 252.837 370.81 252.179 370.021 251.456 369.298 250.734 368.838 250.273 368.312 250.011 367.721 250.011 367.129 250.011 366.538 250.208 366.077 250.602 365.223 251.391 365.026 252.968 365.946 253.822 366.932 254.743 367.918 255.663 368.969 256.517 370.021 257.372 371.138 258.029 372.387 258.62 373.701 259.277 375.082 259.738 376.527 260.066 378.105 260.461 379.748 260.658 381.325 260.789 382.837 260.921 384.283 260.789 385.794 260.658 387.24 260.526 388.62 260.263 390.001 259.869 391.447 259.475 392.827 258.883 394.207 258.292 395.653 257.634 397.033 256.911 398.413 256.123 400.976 254.677 403.408 252.902 405.708 251.128 408.009 249.288 410.243 247.25 412.281 245.147 414.318 243.044 416.421 240.809 417.67 238.115 418.196 236.932 418.524 235.749 418.656 234.5 418.656 234.171 418.656 233.843 418.59 233.58 418.59 233.448 418.59 233.383 418.524 233.251 418.393 232.923 418.262 232.66 418.196 232.331 417.802 231.674 417.341 231.148 416.816 230.622 416.356 230.162 415.83 229.899 415.238 229.899 415.238 229.899 415.173 229.899 415.173 229.899 414.45 229.899 413.858 230.096 413.464 230.491L413.464 230.491ZM413.858 233.974C413.924 234.04 413.924 234.171 413.99 234.237 413.99 234.237 413.99 234.237 413.99 234.237 413.924 234.171 413.858 234.04 413.858 233.974ZM413.99 234.434C413.99 234.434 413.99 234.434 413.99 234.434 413.99 234.5 413.99 234.566 413.99 234.631 413.99 234.566 413.99 234.5 413.99 234.434ZM411.229 239.429C411.163 239.495 411.163 239.495 411.098 239.561 411.163 239.561 411.229 239.495 411.229 239.429ZM385.269 256.189C385.203 256.189 385.137 256.189 385.071 256.189 385.137 256.254 385.203 256.189 385.269 256.189Z" fill="#5B3E36" fill-rule="nonzero" fill-opacity="1" transform="matrix(1.00016 0 0 1 3.06573 778.04)"/><path d="M52.6442 226.35C52.1184 226.613 51.7241 227.139 51.5269 227.665 51.3297 228.191 51.3954 228.913 51.7241 229.439 52.3813 230.425 52.8413 231.477 53.3014 232.528 53.5643 233.251 53.6957 233.974 53.8272 234.697 53.9586 236.669 53.8272 238.64 53.63 240.612 53.4329 242.584 53.17 244.556 52.8413 246.527 52.6442 247.71 52.3156 248.828 51.9869 249.945 51.7241 250.931 51.3954 251.851 51.0011 252.771 50.7382 253.231 50.4753 253.691 50.1467 254.151 49.8181 254.545 49.4237 254.874 49.0294 255.203 48.7665 255.334 48.5036 255.531 48.2407 255.663 47.9778 255.728 47.7807 255.794 47.5178 255.794 46.9263 255.794 46.3348 255.794 45.7433 255.728 44.3631 255.4 43.0486 254.874 41.7341 254.283 39.1052 253.034 36.6735 251.456 34.3732 249.616 33.453 248.828 32.5329 247.907 31.6785 246.987 30.6927 245.936 29.8383 244.753 29.0496 243.635 28.1295 242.321 27.2751 241.007 26.6178 239.561 25.8292 237.983 25.1719 236.34 24.5147 234.697 24.3175 234.171 23.726 233.777 23.2002 233.58 22.6087 233.383 21.9515 233.448 21.4257 233.777 20.8999 234.04 20.5056 234.566 20.3084 235.091 20.1113 235.749 20.2427 236.274 20.5056 236.866 21.0971 238.378 21.7543 239.889 22.4773 241.335 23.2002 242.847 24.0546 244.227 25.0405 245.607 26.0263 247.053 27.0779 248.433 28.1952 249.748 29.3125 251.062 30.5612 252.179 31.8757 253.297 34.4389 255.4 37.265 257.109 40.2882 258.489 41.7341 259.146 43.2458 259.803 44.8231 260.132 46.4005 260.461 48.2407 260.526 49.8181 260 51.5269 259.409 52.8413 258.226 53.9586 256.911 54.9445 255.663 55.6017 254.283 56.0618 252.771 57.1133 249.616 57.6391 246.264 58.0992 242.978 58.2964 241.269 58.4278 239.561 58.5593 237.786 58.625 236.143 58.625 234.434 58.2964 232.791 58.0335 231.477 57.5077 230.228 56.9162 229.111 56.5876 228.453 56.2589 227.796 55.8646 227.205 55.536 226.679 55.1417 226.285 54.5501 226.087 54.353 226.022 54.0901 225.956 53.8272 225.956 53.3671 226.022 52.9728 226.153 52.6442 226.35L52.6442 226.35Z" fill="#5B3E36" fill-rule="nonzero" fill-opacity="1" transform="matrix(1.00016 0 0 1 3.06573 778.04)"/><path d="M212.088 150.9C211.563 151.229 211.037 151.623 210.511 152.017 209.854 152.543 209.459 153.2 208.999 153.858 208.539 154.449 208.276 155.369 208.014 156.027 207.816 156.487 207.685 156.947 207.488 157.407 207.093 158.524 206.896 159.641 206.699 160.759 206.436 162.205 206.305 163.65 206.108 165.162 205.845 167.397 205.713 169.631 205.713 171.866 204.859 173.509 203.873 175.152 202.821 176.664 201.573 178.175 200.192 179.621 198.615 180.87 197.432 181.659 196.249 182.382 194.935 182.973 193.292 183.565 191.648 184.09 189.94 184.353 187.837 184.55 185.668 184.55 183.565 184.287 180.738 183.827 178.044 182.907 175.415 181.856 173.115 180.804 171.011 179.621 168.974 178.11 167.725 177.124 166.608 176.006 165.622 174.823 164.833 173.706 164.176 172.523 163.585 171.274 163.19 170.288 162.927 169.303 162.665 168.251 162.27 166.477 161.613 164.833 160.89 163.125 159.97 160.89 158.787 158.721 156.947 157.144 156.947 157.144 156.947 157.144 156.947 157.144 155.304 158.13 154.055 159.576 153.003 161.153 152.215 162.27 151.755 163.65 151.36 164.965 150.834 166.871 150.9 168.908 151.229 170.814 151.755 173.377 152.74 175.743 153.989 178.044 155.238 180.41 157.012 182.644 158.984 184.485 160.89 186.259 162.993 187.771 165.228 189.151 167.594 190.597 170.223 191.648 172.786 192.569 177.715 194.343 182.973 195.263 188.231 194.935 193.554 194.672 198.812 192.963 203.281 190.005 205.187 188.691 206.962 187.114 208.539 185.405 208.671 185.733 208.868 186.062 208.999 186.325 210.051 188.494 211.694 190.465 213.403 192.174 215.177 193.883 217.215 195.395 219.449 196.512 221.684 197.695 224.116 198.484 226.547 199.207 228.913 199.93 231.345 200.324 233.843 200.455 235.289 200.521 236.734 200.324 238.18 200.127 239.363 199.93 240.546 199.667 241.729 199.338 246.527 197.892 250.931 194.803 254.151 190.991 257.174 187.376 260.066 183.039 259.803 178.11 259.672 175.809 258.817 173.246 257.043 171.669 257.043 171.669 257.043 171.669 257.043 171.669 255.86 172.589 254.808 173.575 253.822 174.692 252.639 176.138 251.456 177.518 250.339 179.03 249.222 180.476 248.433 182.119 247.382 183.63 246.396 184.813 245.41 185.931 244.227 186.916 242.978 187.837 241.664 188.625 240.284 189.282 239.101 189.743 237.852 190.071 236.537 190.268 235.42 190.4 234.303 190.4 233.185 190.334 230.688 189.874 228.256 189.151 225.89 188.165 224.641 187.574 223.524 186.916 222.407 186.193 221.421 185.405 220.567 184.55 219.778 183.565 219.121 182.644 218.595 181.724 218.135 180.738 217.609 179.358 217.215 177.978 217.018 176.598 216.82 174.823 216.82 173.049 216.82 171.274 217.543 169.237 218.201 167.134 218.792 164.965 219.384 162.796 220.041 160.693 220.435 158.458 220.567 157.604 220.83 156.75 220.698 155.895 220.698 154.909 220.435 154.055 219.975 153.2 219.646 152.609 219.252 152.149 218.792 151.623 218.135 150.966 217.346 150.506 216.426 150.243 215.966 150.111 215.44 150.046 214.914 150.046 213.863 150.177 212.877 150.44 212.088 150.9L212.088 150.9ZM224.904 187.968C224.97 187.968 225.036 188.034 225.036 188.034 225.036 187.968 224.97 187.968 224.904 187.968Z" fill="#35241D" fill-rule="nonzero" fill-opacity="1" transform="matrix(1.00016 0 0 1 3.06573 778.04)"/><path d="M255.597 164.308C253.625 165.951 252.377 168.317 251.719 170.683 251.588 171.077 251.522 171.471 251.522 171.866 251.391 172.852 251.259 173.706 251.325 174.692 251.391 176.204 251.588 177.781 251.851 179.293 252.245 181.659 253.231 183.959 254.151 186.128 255.137 188.297 256.517 190.203 258.029 192.109 259.475 194.014 261.315 195.526 263.221 196.972 267.099 199.864 271.699 201.836 276.431 203.019 278.929 203.676 281.492 204.07 284.055 204.202 286.421 204.333 288.787 204.004 291.087 203.61 293.322 203.216 295.491 202.164 297.463 201.047 298.251 200.587 298.974 200.127 299.697 199.601 300.42 202.624 301.537 205.582 303.181 208.276 305.612 212.22 309.03 215.506 313.105 217.806 315.142 218.989 317.377 219.844 319.611 220.632 321.846 221.421 324.146 222.078 326.446 222.473 328.812 222.933 331.31 223.196 333.742 223.196 336.173 223.196 338.671 222.867 341.037 222.407 343.469 221.947 345.769 221.158 348.004 220.172 350.238 219.186 352.276 218.003 354.182 216.558 355.102 215.835 356.022 215.112 356.942 214.323 357.796 213.534 358.519 212.68 359.242 211.891 361.083 209.788 362.463 207.291 362.791 204.464 363.054 202.427 362.463 200.258 360.82 198.944 359.571 197.958 358.059 197.761 356.613 198.418 356.613 198.418 356.613 198.418 356.613 198.418 356.679 198.812 356.745 199.207 356.811 199.601 356.811 199.798 356.811 199.995 356.811 200.192 356.745 200.39 356.745 200.521 356.679 200.718 356.679 200.784 356.613 200.85 356.548 200.915 355.365 202.296 353.919 203.413 352.736 204.727 352.144 205.45 351.553 206.173 350.895 206.831 350.238 207.553 349.581 208.145 348.858 208.736 347.281 209.854 345.638 210.84 343.863 211.628 341.891 212.351 339.92 212.877 337.882 213.271 335.516 213.534 333.15 213.534 330.718 213.271 327.498 212.746 324.409 211.825 321.452 210.642 319.677 209.854 317.968 208.934 316.391 207.816 315.339 206.896 314.353 205.91 313.499 204.859 312.645 203.676 311.922 202.493 311.33 201.178 310.542 199.009 309.95 196.775 309.621 194.54 309.358 191.911 309.293 189.217 309.49 186.522 309.819 185.799 310.147 185.076 310.476 184.353 311.002 183.17 311.462 181.987 311.856 180.738 312.316 179.227 312.053 177.649 311.659 176.204 311.264 174.823 310.41 173.64 309.161 172.983 308.307 172.457 307.387 172.26 306.401 172.26 305.415 172.26 304.495 172.523 303.641 172.983 302.852 173.312 302.523 173.575 301.8 174.166 300.749 174.955 300.354 176.006 299.894 177.189 299.303 178.635 299.237 180.344 299.04 181.921 299.04 181.856 299.04 181.79 299.04 181.724 298.843 183.039 298.711 184.353 298.58 185.668 298.054 186.588 297.528 187.508 296.937 188.362 296.082 189.348 295.162 190.334 294.176 191.123 293.191 191.846 292.139 192.437 291.022 192.963 290.102 193.292 289.116 193.554 288.13 193.752 286.553 193.883 284.975 193.883 283.398 193.752 280.769 193.292 278.206 192.569 275.708 191.583 273.737 190.663 271.831 189.611 270.122 188.297 268.939 187.311 267.887 186.259 266.901 185.076 265.981 183.762 265.193 182.447 264.535 181.001 264.01 179.555 263.549 178.11 263.287 176.532 263.221 175.283 263.221 174.1 263.089 172.852 262.958 171.209 262.629 169.566 262.301 167.988 261.841 165.819 261.052 163.716 259.738 161.942 259.738 161.942 259.738 161.942 259.738 161.942 258.029 162.402 256.78 163.256 255.597 164.308L255.597 164.308Z" fill="#35241D" fill-rule="nonzero" fill-opacity="1" transform="matrix(1.00016 0 0 1 3.06573 778.04)"/><path d="M347.281 218.989C346.623 219.712 346.032 220.567 345.44 221.421 344.849 222.341 344.52 223.393 344.126 224.379 343.732 225.364 343.666 226.679 343.534 227.665 343.403 228.585 343.403 229.571 343.403 230.491 343.403 232.331 343.666 234.237 343.995 236.012 344.323 238.049 345.178 239.889 346.032 241.729 347.478 244.95 349.91 247.776 352.67 250.011 354.05 251.128 355.496 252.179 357.073 252.968 358.651 253.822 360.36 254.48 362.003 255.071 364.237 255.926 366.603 256.517 369.035 256.583 372.518 256.714 376.593 255.466 378.762 252.574 378.762 252.574 378.762 252.574 378.762 252.574 377.119 250.668 375.082 249.156 372.913 247.842 371.73 247.119 370.481 246.527 369.166 246.001 368.838 245.87 368.444 245.739 368.115 245.673 367.129 245.41 366.143 245.081 365.223 244.687 363.711 243.964 362.266 243.175 360.885 242.255 359.9 241.401 358.979 240.546 358.125 239.561 357.402 238.509 356.811 237.457 356.219 236.34 355.825 235.223 355.496 234.04 355.233 232.857 355.102 231.345 355.102 229.834 355.233 228.322 355.43 227.139 355.628 225.956 355.759 224.707 355.89 223.393 355.825 222.078 355.628 220.764 355.365 218.661 354.839 216.558 353.656 214.717 353.656 214.717 353.656 214.717 353.656 214.717 351.158 215.44 348.99 217.083 347.281 218.989L347.281 218.989Z" fill="#35241D" fill-rule="nonzero" fill-opacity="1" transform="matrix(1.00016 0 0 1 3.06573 778.04)"/><path d="M116.921 163.388C116.133 163.782 115.41 164.439 115.541 165.359 115.541 165.359 115.541 165.359 115.541 165.359 115.607 165.359 115.673 165.359 115.738 165.359 115.738 165.359 115.673 165.359 115.673 165.359 115.738 165.359 115.804 165.359 115.87 165.425 115.935 165.425 115.935 165.491 116.001 165.491 116.133 165.622 116.264 165.754 116.33 165.885 116.461 166.082 116.527 166.214 116.658 166.411 116.658 166.477 116.724 166.542 116.724 166.608 116.921 168.711 116.79 170.814 116.856 172.917 116.856 174.1 116.921 175.218 116.921 176.401 116.856 177.649 116.79 178.832 116.593 180.081 116.264 182.447 115.738 184.748 115.213 187.114 114.687 189.348 113.898 191.451 113.044 193.62 111.861 196.315 110.415 198.878 108.706 201.31 107.26 203.084 105.617 204.727 103.842 206.239 102.199 207.422 100.425 208.474 98.5846 209.328 96.9415 209.985 95.2984 210.445 93.5239 210.708 92.4724 210.84 91.4208 210.905 90.3692 210.905 89.9092 209.065 89.2519 207.291 88.2661 205.647 86.7544 203.216 84.5199 201.178 82.0881 199.667 80.9708 199.009 79.7221 198.549 78.5391 198.155 77.0274 197.695 75.5815 197.892 74.0042 198.155 73.3469 198.286 72.4268 198.681 71.901 198.944 71.3095 199.272 70.5866 199.732 70.1265 200.192 69.6007 200.718 69.0749 201.31 68.7463 201.901 68.2205 202.69 67.8919 203.544 67.5633 204.399 67.0375 205.845 67.2347 207.422 67.5633 208.868 67.6948 209.525 68.1548 210.445 68.4177 211.037 68.6149 211.497 68.8778 211.891 69.1407 212.351 70.6523 214.717 72.8869 216.492 75.3186 217.806 77.0274 218.661 78.7362 219.384 80.5108 219.909 80.1164 221.75 79.5906 223.59 78.9334 225.364 78.079 227.336 77.0274 229.176 75.7787 230.951 74.8586 232.002 73.8727 232.988 72.8212 233.843 71.7696 234.566 70.718 235.223 69.535 235.814 68.0891 236.34 66.6432 236.734 65.1316 236.932 64.2772 236.997 63.4228 237.063 62.5684 237.063 61.714 237.063 60.8596 236.997 60.0052 236.866 58.2964 236.603 56.6533 236.274 54.9445 235.814 54.1558 235.617 53.3014 235.354 52.5127 235.091 51.5269 234.763 50.4753 234.566 49.4237 234.368 48.3065 234.237 47.3206 234.106 46.2033 234.04 45.086 234.04 43.9687 234.171 42.9172 234.368 41.537 234.566 40.1568 235.091 38.9738 235.749 38.9738 235.749 38.9738 235.749 38.9738 235.749 39.3024 237.523 40.1568 239.166 41.2741 240.612 42.1285 241.729 42.9829 242.65 44.0345 243.504 44.7574 244.095 45.4146 244.556 46.2033 245.016 47.1892 245.607 48.3065 246.001 49.358 246.33 52.0527 247.184 54.813 247.71 57.6391 248.105 58.8221 248.236 60.0709 248.367 61.2539 248.433 62.9627 248.499 64.6715 248.302 66.3803 248.105 68.6149 247.776 70.718 247.25 72.8212 246.396 74.1356 245.87 75.3844 245.279 76.6331 244.556 78.0133 243.701 79.262 242.65 80.5108 241.598 82.4167 239.955 83.9941 237.983 85.3743 235.88 86.8202 233.646 87.8717 231.148 88.8576 228.716 89.712 226.482 90.3035 224.116 90.6321 221.75 90.6978 221.487 90.6978 221.224 90.7636 220.961 91.8151 220.895 92.8667 220.83 93.8525 220.698 96.2186 220.369 98.5189 219.909 100.753 219.055 104.96 217.412 108.772 215.046 112.058 211.957 113.635 210.511 115.015 208.802 116.33 207.093 117.644 205.385 118.762 203.61 119.747 201.704 123.822 193.883 125.794 185.076 126.188 176.335 126.32 174.166 126.188 171.932 125.597 169.828 125.268 168.711 124.677 167.66 124.085 166.674 123.428 165.622 122.442 164.571 121.391 163.848 120.536 163.322 119.485 162.927 118.499 162.927 118.039 162.993 117.447 163.125 116.921 163.388L116.921 163.388ZM115.935 165.425C115.935 165.425 116.001 165.425 116.001 165.425 116.001 165.425 116.001 165.425 116.001 165.425 116.001 165.491 115.935 165.491 115.935 165.425ZM116.001 165.491C116.001 165.491 116.067 165.491 116.067 165.491 116.067 165.491 116.067 165.491 116.001 165.491 116.001 165.491 116.001 165.491 116.001 165.491ZM77.6847 206.042C77.6847 206.108 77.6189 206.108 77.6847 206.042 77.6189 206.108 77.6847 206.108 77.6847 206.042ZM75.9759 207.948C75.9101 207.948 75.8444 207.948 75.7787 207.948 75.8444 207.948 75.9101 207.948 75.9759 207.948Z" fill="#35241D" fill-rule="nonzero" fill-opacity="1" transform="matrix(1.00016 0 0 1 3.06573 778.04)"/><path d="M138.084 158.13C136.507 158.721 135.192 159.641 134.009 160.759 133.155 161.547 132.498 162.467 131.84 163.322 130.92 164.571 130.263 165.819 129.737 167.265 129.343 168.251 129.212 169.237 129.014 170.223 128.817 171.734 128.62 173.18 128.62 174.758 128.62 177.387 128.949 180.081 129.606 182.579 129.935 183.762 130.46 184.945 130.986 186.062 131.446 187.114 132.038 188.099 132.629 189.02 133.878 191.057 135.455 192.897 137.033 194.672 138.413 196.249 140.056 197.629 141.699 198.944 143.736 200.521 145.839 202.033 148.074 203.281 152.149 205.582 156.618 207.225 161.087 208.671 163.322 209.394 165.556 209.854 167.857 210.248 169.5 210.511 171.077 210.774 172.786 210.642 176.204 210.314 179.884 209.197 182.25 206.568 182.25 206.568 182.25 206.568 182.25 206.568 181.396 205.45 180.476 204.53 179.358 203.676 177.518 202.296 175.481 201.178 173.246 200.521 172.786 200.39 172.326 200.324 171.932 200.192 170.486 199.864 169.04 199.667 167.66 199.338 164.965 198.681 162.402 197.761 159.839 196.709 156.421 195.198 153.2 193.423 150.177 191.188 148.008 189.414 146.037 187.508 144.262 185.339 143.211 183.893 142.29 182.447 141.502 180.87 141.107 179.818 140.845 178.701 140.647 177.584 140.516 175.875 140.516 174.232 140.647 172.523 140.845 171.274 141.042 170.026 141.173 168.777 141.305 167.134 141.107 165.556 140.845 163.979 140.647 162.665 140.122 161.482 139.596 160.299 139.07 159.51 138.61 158.787 138.084 158.13 138.084 158.13 138.084 158.13 138.084 158.13 138.084 158.13 138.084 158.13 138.084 158.13L138.084 158.13ZM179.621 204.004C179.49 203.939 179.358 203.807 179.293 203.742 179.424 203.807 179.555 203.939 179.621 204.004ZM179.293 203.742C179.293 203.742 179.293 203.742 179.293 203.742 179.293 203.742 179.293 203.742 179.293 203.742 179.293 203.742 179.293 203.742 179.293 203.742ZM179.293 203.742C179.227 203.676 179.095 203.61 179.03 203.544 179.095 203.61 179.161 203.676 179.293 203.742Z" fill="#35241D" fill-rule="nonzero" fill-opacity="1" transform="matrix(1.00016 0 0 1 3.06573 778.04)"/><path d="M96.8101 40.4197C94.5098 40.9455 92.2095 41.7341 90.0406 42.6543 87.4117 43.7058 84.9142 44.9546 82.5482 46.4662 73.807 52.1184 67.169 60.8596 64.6058 70.9809 63.9485 73.4784 63.6857 75.9759 63.357 78.5391 63.2256 79.5249 63.0941 80.5108 63.0284 81.4309 62.1083 81.8252 61.1882 82.2196 60.3338 82.6796 58.0992 83.8626 56.1275 85.44 54.2215 87.0173 52.3156 88.5947 50.541 90.4349 49.0294 92.3409 42.4571 100.556 38.9738 111.072 38.6452 121.588 38.5794 124.019 38.8423 126.517 39.4996 128.817 39.8282 129.935 40.354 131.052 40.814 132.169 41.3398 133.418 42.2599 134.535 43.1801 135.455 43.9687 136.178 44.8889 136.835 45.809 137.427 46.7291 137.953 47.7807 138.347 48.8322 138.676 50.3439 139.136 52.1184 139.201 53.4986 138.347 53.4986 138.347 53.4986 138.347 53.4986 138.347 53.3014 137.887 53.1042 137.493 52.9728 137.033 52.3156 135.455 51.7241 133.878 50.9354 132.301 50.081 130.592 49.0951 128.949 48.3065 127.24 47.9778 126.254 47.6492 125.268 47.5178 124.282 47.3206 122.179 47.3863 120.076 47.6492 117.973 48.2407 114.292 49.2266 110.678 50.6068 107.194 51.8555 104.368 53.4986 101.608 55.3388 99.1104 57.1133 96.9415 59.085 94.9698 61.2539 93.261 62.3055 92.4724 63.4228 91.7494 64.54 91.1579 65.7888 94.3783 67.8262 97.3359 70.3894 99.7019 74.2671 103.251 79.3935 105.946 84.7828 105.617 87.5431 105.42 90.172 104.368 92.2752 102.594 94.3126 100.885 95.89 98.3217 96.4157 95.6928 97.0072 92.9981 96.8101 90.1063 95.6271 87.5431 94.5098 85.1771 92.3409 83.4683 90.172 82.2196 85.8343 79.6564 80.5765 78.7362 75.5815 78.802 74.5957 78.802 73.5441 78.8677 72.5583 78.9991 73.0183 76.173 73.6756 73.3469 74.7271 70.6523 75.8444 68.2205 77.2246 65.8545 78.802 63.6857 80.5765 61.5168 82.6139 59.5451 84.7828 57.7706 87.0831 56.0618 89.5148 54.6159 92.1437 53.4329 95.2327 52.2498 98.3874 51.3297 101.608 50.8039 106.34 50.2781 111.203 50.4753 115.935 51.0668 117.71 51.3297 119.419 51.6583 121.128 52.1184 122.113 52.3813 123.099 52.6442 124.019 52.9728 125.137 53.3671 126.254 53.7615 127.437 54.0244 129.54 54.4844 131.709 54.6816 133.812 54.4187 135.39 54.2215 136.967 53.9586 138.347 53.2357 138.347 53.2357 138.347 53.2357 138.347 53.2357 138.084 51.3954 137.361 49.7524 136.31 48.175 135.587 47.1234 134.732 46.1376 133.746 45.2175 132.301 43.8373 130.592 42.9172 128.751 42.1942 123.691 40.2882 118.17 39.5653 112.781 39.2367 111.401 39.1709 110.086 39.1052 108.706 39.1052 104.763 39.1709 100.753 39.4996 96.8101 40.4197L96.8101 40.4197ZM79.262 88.6604C80.7737 88.9233 82.1538 89.2519 83.5997 89.7777 84.5856 90.2378 85.5057 90.6978 86.3601 91.3551 86.5573 91.5522 86.7544 91.7494 86.9516 91.9466 86.9516 91.9466 86.9516 92.0123 87.0173 92.0123 87.0831 92.1437 87.0831 92.2752 87.1488 92.4724 87.1488 92.8667 87.1488 93.3268 87.1488 93.7211 87.0831 93.984 87.0173 94.2469 86.9516 94.5755 86.7544 94.9041 86.623 95.167 86.4258 95.4956 86.2944 95.6271 86.1629 95.7585 86.0315 95.9557 85.7686 96.1528 85.44 96.2843 85.1114 96.4815 84.7828 96.6129 84.5199 96.6786 84.1913 96.7444 83.7312 96.7444 83.2054 96.7444 82.7453 96.7444 81.9567 96.6129 81.2337 96.4157 80.445 96.1528 79.3935 95.6271 78.4733 95.0356 77.4875 94.3783 76.5016 93.5896 75.5815 92.6695 74.7271 91.6837 74.0699 90.7636 73.5441 89.7777 73.084 88.7919 75.1215 88.4632 77.2246 88.4632 79.262 88.6604Z" fill="#35241D" fill-rule="nonzero" fill-opacity="1" transform="matrix(1.00016 0 0 1 3.06573 778.04)"/><path d="M29.7725 146.037C28.6553 146.234 27.538 146.562 26.4864 146.957 23.8575 147.877 21.2943 149.06 18.8625 150.572 16.6279 151.952 14.5248 153.595 12.6188 155.369 10.5814 157.21 8.87261 159.313 7.22954 161.482 4.14055 165.556 2.30031 170.354 1.18302 175.283 0.591508 177.847 0.197169 180.41 0.0657231 183.039-0.0657231 185.668 0.328615 188.428 1.05157 190.926 1.38018 192.174 1.97169 193.423 2.49748 194.606 3.02326 195.789 3.81194 196.841 4.60061 197.826 5.91508 199.47 7.42671 200.85 9.06978 202.098 8.67544 203.15 8.28111 204.267 7.95249 205.385 7.29526 207.685 6.90092 210.051 6.57231 212.351 6.17797 215.046 5.91508 217.741 5.91508 220.501 5.84935 225.627 6.63803 230.885 8.28111 235.749 9.06978 238.18 10.1214 240.546 11.3701 242.781 12.6188 245.016 14.0647 246.987 15.6421 248.959 16.365 249.879 17.1537 250.799 18.0081 251.588 18.994 252.442 20.1113 253.231 21.2943 253.822 22.543 254.48 23.9232 254.874 25.3034 255.071 26.815 255.334 28.4581 255.334 29.7725 254.545 29.7725 254.545 29.7725 254.545 29.7725 254.545 29.6411 254.217 29.5097 253.822 29.3782 253.494 28.9839 252.377 28.3924 251.325 27.8009 250.339 27.1436 249.222 26.4207 248.17 25.7634 247.119 24.6462 245.476 23.266 244.03 22.0172 242.452 20.4399 240.349 19.1254 238.115 18.0738 235.683 17.0223 232.923 16.2336 230.162 15.7735 227.27 15.3792 223.524 15.3792 219.778 15.7735 216.032 16.0364 214.323 16.365 212.614 16.7594 210.905 17.088 209.394 17.4823 207.882 18.0081 206.436 20.3084 207.093 22.7402 207.422 25.1062 207.751 26.3549 207.882 27.538 207.882 28.7867 207.816 30.1012 207.685 31.4813 207.488 32.7301 207.028 34.1103 206.502 35.5562 205.845 36.6735 204.793 37.1993 204.267 37.725 203.676 38.1194 203.084 38.6452 202.296 39.0395 201.441 39.3024 200.521 39.3681 199.93 39.4338 199.338 39.5653 198.747 39.4996 198.024 39.4338 197.301 39.2367 196.578 38.8423 195.132 37.9222 193.883 36.9364 192.766 35.9505 191.648 34.5046 191.057 33.1901 190.531 32.27 190.137 31.3499 189.874 30.4298 189.611 29.1153 189.282 27.7351 189.085 26.4207 188.954 25.1062 188.822 23.726 189.085 22.4773 189.348 21.1628 189.611 19.9141 190.137 18.6654 190.663 17.4823 191.254 16.4965 191.977 15.3792 192.831 14.8534 193.292 14.3276 193.752 13.8676 194.343 13.1446 193.686 12.4874 193.029 11.8959 192.306 11.5015 191.714 11.1072 191.057 10.7786 190.4 10.3185 189.151 9.98991 187.902 9.79274 186.654 9.66129 185.339 9.72701 184.025 9.85846 182.644 10.3842 179.555 11.1729 176.598 12.3559 173.706 13.2103 171.8 14.2619 170.026 15.5106 168.317 17.2194 166.279 19.0597 164.373 21.1628 162.665 23.2002 161.219 25.3034 159.97 27.538 158.918 29.2468 158.261 31.0213 157.735 32.7958 157.407 33.9788 157.275 35.0961 157.078 36.2791 156.881 37.3307 156.684 38.3823 156.355 39.4338 156.092 41.0769 155.632 42.72 155.304 44.3631 154.712 44.3631 154.712 44.3631 154.712 44.3631 154.712 44.2973 152.872 43.5087 151.229 42.4571 149.849 41.6684 148.863 40.6826 148.14 39.631 147.483 38.9738 147.088 38.0537 146.694 37.3964 146.497 36.3449 146.102 35.359 145.971 34.2417 145.839 33.9131 145.774 33.5845 145.774 33.3216 145.774 32.0729 145.642 30.8898 145.839 29.7725 146.037L29.7725 146.037ZM30.0354 199.798C30.0354 199.798 30.0354 199.798 30.0354 199.798 30.0354 199.798 30.0354 199.864 30.0354 199.864 30.0354 199.864 30.0354 199.798 30.0354 199.798Z" fill="#35241D" fill-rule="nonzero" fill-opacity="1" transform="matrix(1.00016 0 0 1 3.06573 778.04)"/><path d="M253.165 0C247.907 0 242.584 0.657231 237.457 1.84025 232.528 3.02326 227.599 4.73206 223.196 7.29526 221.947 8.01821 220.764 8.80689 219.646 9.72701 219.515 9.66129 219.318 9.59557 219.186 9.52985 214.98 7.82104 210.577 6.96665 206.042 6.57231 203.742 6.37514 201.507 6.37514 199.207 6.30941 196.709 6.30941 194.212 6.37514 191.714 6.57231 186.851 6.90092 181.921 7.6896 177.189 8.80689 172.589 9.92418 168.12 11.7644 164.045 14.1305 162.205 15.2478 160.43 16.4308 158.721 17.7452 156.684 19.3226 154.778 20.9657 152.938 22.7402 149.651 26.0921 146.76 29.9697 144.591 34.1103 143.473 36.2791 142.488 38.6452 141.765 40.9455 141.37 42.1285 141.107 43.3115 140.845 44.4945 140.516 46.0061 140.319 47.5178 140.516 49.0951 140.582 49.8181 140.647 50.4753 140.845 51.1325 140.976 51.8555 141.436 52.7756 141.765 53.4329 142.356 54.5501 143.079 55.536 143.934 56.4561 145.051 57.6391 146.497 58.625 148.074 59.1508 148.074 59.1508 148.074 59.1508 148.074 59.1508 149.849 56.7847 150.637 53.9586 151.492 51.1325 152.017 49.358 152.215 47.5835 152.609 45.809 153.003 44.1002 153.529 42.3914 154.186 40.7483 155.435 37.9879 156.947 35.4247 158.787 32.993 161.022 30.2326 163.519 27.7351 166.279 25.5005 169.04 23.4631 171.997 21.6229 175.086 20.2427 179.818 18.3367 184.879 17.2194 189.94 16.4965 193.029 16.1022 196.183 15.905 199.272 15.8393 202.427 15.7735 205.582 15.7735 208.736 16.1022 209.854 16.2993 211.037 16.4965 212.154 16.7594 212.088 16.8251 212.023 16.9566 211.957 17.0223 210.38 18.994 208.868 21.0314 207.619 23.2002 206.239 25.5663 205.122 28.1952 204.267 30.8241 203.413 33.2559 202.953 35.8848 202.756 38.448 202.493 41.2741 202.887 44.1659 203.413 46.9263 203.873 49.358 204.727 51.7241 205.779 53.9586 206.37 55.1417 207.225 56.1932 208.014 57.1791 208.934 58.3621 210.182 59.2822 211.431 60.1366 211.825 60.4652 212.351 60.6624 212.811 60.8596 213.534 61.1882 214.191 61.4511 214.98 61.6482 216.295 61.9769 217.675 61.9769 218.989 61.9111 220.369 61.8454 221.684 61.5825 222.998 61.2539 224.51 60.8596 225.956 60.1366 227.336 59.4794 229.636 58.4278 231.674 56.9819 233.514 55.2074 234.5 54.2873 235.289 53.17 236.143 52.0527 237.063 50.8039 237.589 49.358 238.115 47.9778 238.509 46.9263 238.772 45.809 238.969 44.6917 239.166 43.3772 239.298 41.997 239.298 40.6826 239.232 39.3024 239.035 37.9222 238.838 36.6077 238.64 35.2276 238.378 33.8474 238.049 32.5329 237.457 30.0354 236.406 27.6694 235.42 25.3034 234.96 24.2518 234.434 23.2002 233.843 22.1487 233.12 20.8342 232.134 19.5855 231.214 18.4025 230.359 17.3509 229.439 16.2993 228.453 15.3792 229.702 14.5905 231.017 13.9333 232.397 13.3418 236.866 11.5673 241.598 10.3185 246.396 9.59557 250.602 9.06978 254.874 8.87261 259.146 9.33268 262.038 9.79274 264.864 10.5814 267.624 11.633 269.925 12.6846 272.028 13.9333 273.999 15.3792 275.905 16.8908 277.614 18.5996 279.126 20.4399 281.295 23.3317 283.135 26.4864 284.581 29.7725 285.961 33.1244 287.013 36.6077 287.736 40.1568 287.67 40.2225 287.604 40.2225 287.538 40.2882 286.355 41.0112 285.304 41.8656 284.252 42.7857 282.281 44.4288 280.638 46.6634 279.52 49.0294 278.929 50.2781 278.469 51.5269 278.074 52.8413 277.68 54.1558 277.548 55.6017 277.417 56.9819 277.286 58.1649 277.417 59.2822 277.548 60.4652 277.746 61.9769 277.943 63.4228 278.403 64.8687 279.257 67.5633 281.032 70.0608 283.529 71.441 286.684 73.1498 290.825 71.9668 292.993 69.2721 294.702 67.169 295.885 64.7372 296.805 62.174 297.2 61.0567 297.397 59.808 297.594 58.625 297.857 57.0476 297.988 55.4045 297.988 53.7615 298.054 51.5926 297.857 49.358 297.594 47.1892 298.646 46.9263 299.631 46.6634 300.683 46.4662 301.932 46.3348 303.181 46.3348 304.429 46.4662 305.875 46.7291 307.255 47.0577 308.57 47.5835 309.753 48.1093 310.804 48.7665 311.856 49.4895 312.71 50.2124 313.433 51.0011 314.156 51.8555 315.076 53.17 315.799 54.4844 316.457 55.9303 316.785 56.7847 317.114 57.7049 317.377 58.625 317.837 60.1366 318.428 61.5825 319.085 63.0284 320.006 65.0658 321.386 66.7746 322.24 68.812 322.372 69.0749 322.437 69.4036 322.569 69.6665 322.569 69.6665 322.569 69.6665 322.569 69.6665 324.278 69.4036 325.461 68.1548 326.315 66.7089 326.907 65.7231 327.235 64.4743 327.432 63.357 327.695 61.9111 327.761 60.5309 327.629 59.085 327.498 58.2306 327.432 57.3762 327.169 56.5876 327.038 55.9961 326.775 55.4045 326.578 54.813 326.118 53.4329 325.526 52.1184 324.935 50.8039 323.818 48.3065 322.24 46.0719 320.466 44.0345 318.823 42.1942 316.719 40.6826 314.551 39.4338 312.185 38.1194 309.556 37.1993 306.861 36.7392 305.481 36.4763 304.101 36.3449 302.72 36.2791 301.275 36.2134 299.829 36.4106 298.383 36.6077 297.528 36.7392 296.674 36.8706 295.82 37.0678 294.702 32.2043 292.993 27.4722 290.759 23.0031 288.524 18.5339 285.501 14.1962 281.82 10.7786 279.98 9.06978 278.009 7.55815 275.905 6.17797 273.605 4.66634 271.108 3.61477 268.61 2.62892 263.681 0.722954 258.423 0 253.297 0 253.231 0 253.165 0 253.165 0L253.165 0ZM221.224 21.0971C222.473 22.2144 223.656 23.3974 224.707 24.7119 225.956 26.4864 226.942 28.3266 227.796 30.2983 228.913 33.0587 229.636 35.8191 230.031 38.7109 230.162 39.9596 230.228 41.1426 230.162 42.3914 229.965 43.3772 229.702 44.2973 229.374 45.2175 229.045 45.8747 228.716 46.5319 228.322 47.1234 227.665 47.9121 226.876 48.6351 226.087 49.358 225.036 50.081 223.984 50.6725 222.801 51.1983 221.75 51.5926 220.632 51.9869 219.515 52.2498 218.792 52.3156 218.069 52.3156 217.412 52.3156 217.28 52.3156 217.149 52.2498 217.018 52.1841 216.82 52.0527 216.558 51.9212 216.36 51.7898 215.9 51.3954 215.44 50.9354 215.046 50.4753 214.652 49.8838 214.323 49.2923 213.994 48.6351 213.337 46.9263 212.943 45.086 212.614 43.2458 212.417 41.4713 212.417 39.7625 212.548 37.9879 212.943 35.6876 213.6 33.5188 214.454 31.3499 215.637 28.721 217.083 26.2235 218.792 23.9232 219.581 22.8716 220.369 21.9515 221.224 21.0971ZM288.721 53.3671C288.721 54.1558 288.656 54.9445 288.59 55.6674 288.393 56.8505 288.13 58.0335 287.736 59.1508 287.67 58.2964 287.67 57.442 287.736 56.5876 287.933 55.6017 288.196 54.6816 288.524 53.7615 288.59 53.6957 288.656 53.5643 288.721 53.3671Z" fill="#35241D" fill-rule="nonzero" fill-opacity="1" transform="matrix(1.00016 0 0 1 3.06573 778.04)"/><path d="M316.654 33.3216C314.485 34.176 312.579 35.359 311.199 37.1993 311.199 37.1993 311.199 37.1993 311.199 37.1993 312.447 39.0395 314.222 40.4197 316.128 41.537 317.508 42.3914 319.02 42.9829 320.531 43.5744 321.583 44.0345 322.635 44.3631 323.686 44.7574 324.935 45.3489 326.184 46.0719 327.301 46.8605 328.615 47.9778 329.864 49.2266 330.981 50.541 332.296 52.3813 333.347 54.2873 334.202 56.3247 335.056 58.4278 335.713 60.5309 336.305 62.7655 336.896 65.1973 337.357 67.7605 337.685 70.258 337.948 72.4925 338.079 74.7271 338.014 76.9617 336.239 77.6189 334.53 78.3419 332.887 79.1963 330.718 80.3136 328.681 81.8252 326.841 83.4026 324.869 85.1114 323.226 87.1488 321.977 89.3834 321.32 90.5664 320.794 91.8809 320.334 93.1953 319.874 94.5098 319.743 95.89 319.611 97.2044 319.48 98.3874 319.743 99.6362 319.94 100.819 320.006 101.279 320.137 101.674 320.334 102.068 320.729 103.054 321.254 104.237 322.043 104.96 323.16 105.946 324.409 106.734 325.921 107.063 326.972 107.326 327.958 107.326 329.01 107.063 329.733 106.931 330.39 106.603 331.047 106.274 331.507 106.077 331.901 105.683 332.296 105.354 332.953 104.894 333.545 104.434 334.202 103.908 335.188 103.054 336.173 102.199 337.094 101.279 338.868 99.5704 340.38 97.533 341.826 95.4956 343.272 93.4582 344.389 91.2893 345.44 88.989 346.098 87.5431 346.623 86.0972 347.083 84.5856 348.924 84.1913 350.764 83.8626 352.604 83.5997 356.285 83.1397 360.031 82.8111 363.711 83.2054 366.012 83.5997 368.246 84.1255 370.415 84.9142 371.795 85.5714 373.11 86.3601 374.359 87.2802 376.133 88.7261 377.776 90.3035 379.222 92.078 380.734 94.1812 381.917 96.4157 382.968 98.7818 384.151 101.871 384.94 105.091 385.4 108.312 385.729 110.941 385.794 113.569 385.466 116.198 385.137 117.973 384.743 119.747 384.086 121.391 383.428 122.836 382.574 124.282 381.654 125.597 381.522 125.728 381.457 125.86 381.325 125.991 380.668 125.86 380.011 125.794 379.354 125.728 378.171 125.597 376.856 125.728 375.739 125.991 374.227 126.32 372.781 126.911 371.401 127.766 370.349 128.423 369.364 129.277 368.575 130.263 367.458 131.643 366.735 133.089 366.8 134.929 366.866 136.112 367.129 136.77 367.589 137.821 367.852 138.413 368.246 139.07 368.706 139.464 368.772 139.53 368.838 139.596 368.969 139.662 369.561 140.253 370.284 140.713 371.138 140.91 371.861 141.239 372.715 141.239 373.504 141.239 376.133 141.173 378.433 139.99 380.602 138.61 382.903 137.23 384.94 135.39 386.78 133.484 390.395 129.803 392.761 124.94 393.813 119.945 394.338 117.447 394.601 114.818 394.536 112.255 394.536 109.429 394.076 106.537 393.55 103.711 392.695 98.6503 390.789 93.7211 388.226 89.2519 386.977 87.0831 385.4 85.1771 383.691 83.3369 381.851 81.3652 379.748 79.6564 377.513 78.1447 375.476 76.8303 373.241 75.8444 370.941 75.1215 368.444 74.2671 365.815 73.8727 363.186 73.5441 358.322 72.9526 353.327 73.5441 348.464 74.2671 348.464 73.8727 348.464 73.4127 348.464 73.0183 348.398 70.1265 348.004 67.2347 347.609 64.3429 347.281 61.7797 346.821 59.2822 346.163 56.7847 345.44 54.0901 344.389 51.5269 343.272 49.0294 342.154 46.5319 340.708 44.2973 339 42.1285 337.291 39.9596 335.385 38.1851 333.15 36.542 330.916 34.8989 328.418 33.7817 325.789 32.7958 324.475 32.27 323.029 32.0729 321.649 32.0729 319.874 32.3358 318.231 32.6644 316.654 33.3216L316.654 33.3216Z" fill="#35241D" fill-rule="nonzero" fill-opacity="1" transform="matrix(1.00016 0 0 1 3.06573 778.04)"/><path d="M397.164 124.611C395.653 124.677 394.141 125.005 392.761 125.597 392.761 125.597 392.761 125.597 392.761 125.597 393.024 128.029 394.076 130.329 395.521 132.235 396.507 133.549 397.559 134.798 398.808 135.85 400.122 136.967 401.502 137.887 402.882 138.873 406.563 141.765 410.112 144.985 413.069 148.666 414.91 151.097 416.487 153.726 417.736 156.552 419.313 160.627 420.365 164.965 421.022 169.303 421.548 173.64 421.811 178.044 421.482 182.447 420.891 181.921 420.233 181.461 419.576 181.001 418.656 180.344 417.67 179.818 416.619 179.358 415.37 178.767 414.121 178.307 412.807 178.044 411.295 177.715 409.652 177.584 408.075 177.584 402.685 177.518 397.296 178.767 392.63 181.461 390.526 182.644 388.62 184.419 387.109 186.259 386.254 187.311 385.531 188.362 384.874 189.611 384.217 190.991 383.757 192.371 383.494 193.883 383.297 195.263 383.165 196.578 383.231 197.958 383.231 199.338 383.494 200.718 383.757 202.033 384.02 203.413 384.546 204.727 385.137 206.042 385.663 207.225 386.254 208.342 387.043 209.394 387.766 210.445 388.62 211.431 389.606 212.286 390.198 212.746 390.724 213.14 391.381 213.534 391.972 213.863 392.761 214.191 393.418 214.454 394.338 214.783 395.324 215.046 396.31 215.177 397.164 215.309 397.953 215.374 398.742 215.44 399.793 215.506 400.779 215.309 401.831 215.177 404.263 214.849 406.694 214.323 408.995 213.469 411.558 212.548 414.121 211.365 416.421 209.854 418.196 208.671 419.773 207.291 421.219 205.779 421.679 210.445 421.745 215.177 421.219 219.844 420.693 222.998 419.905 226.153 418.722 229.111 417.473 231.871 416.093 234.5 414.45 236.997 413.595 238.378 412.544 239.692 411.624 241.072 411.163 241.795 410.769 242.65 410.375 243.438 409.258 245.936 408.469 248.499 408.272 251.259 408.272 251.259 408.272 251.259 408.272 251.259 410.375 251.785 412.544 250.865 414.45 250.011 415.173 249.682 415.83 249.222 416.487 248.762 417.013 248.367 417.539 247.973 417.999 247.579 419.247 246.527 420.233 245.147 421.153 243.767 424.111 239.495 426.608 234.763 428.383 229.834 430.223 224.707 430.946 219.252 431.012 213.797 431.143 208.408 430.618 202.953 429.435 197.695 429.172 196.512 428.909 195.395 428.514 194.277 429.96 190.597 430.815 186.719 431.275 182.842 431.866 177.781 431.603 172.589 431.078 167.594 430.486 162.402 429.5 157.144 427.529 152.28 426.083 148.6 424.177 145.248 421.876 142.093 419.51 138.807 416.684 135.915 413.727 133.221 412.347 131.972 410.901 130.789 409.455 129.672 408.403 128.883 407.352 128.029 406.3 127.306 405.248 126.517 403.934 126.123 402.751 125.663 402.028 125.4 401.239 125.268 400.451 125.137 399.465 125.005 398.545 124.874 397.559 124.874 397.493 124.611 397.296 124.611 397.164 124.611L397.164 124.611ZM410.112 187.376C410.835 187.508 411.558 187.705 412.215 187.968 413.069 188.428 413.924 188.888 414.713 189.414 415.37 189.94 415.961 190.531 416.487 191.188 417.079 192.043 417.604 192.897 418.13 193.817 417.407 195.132 416.619 196.446 415.698 197.695 414.647 199.009 413.464 200.258 412.149 201.375 410.638 202.427 408.995 203.347 407.286 204.07 405.183 204.859 403.014 205.45 400.779 205.779 399.991 205.845 399.202 205.91 398.413 205.845 397.822 205.713 397.296 205.582 396.704 205.385 396.442 205.253 396.244 205.122 395.981 204.99 395.784 204.793 395.521 204.53 395.324 204.333 394.798 203.544 394.338 202.69 393.944 201.836 393.615 200.915 393.353 199.93 393.155 199.009 393.09 197.958 393.09 196.906 393.155 195.855 393.287 195.329 393.353 194.869 393.55 194.343 393.813 193.752 394.141 193.226 394.536 192.7 395.193 191.911 395.981 191.188 396.77 190.465 397.69 189.808 398.676 189.282 399.662 188.822 401.305 188.165 403.014 187.705 404.723 187.442 406.497 187.311 408.272 187.245 410.112 187.376Z" fill="#35241D" fill-rule="nonzero" fill-opacity="1" transform="matrix(1.00016 0 0 1 3.06573 778.04)"/><path d="M19.3226 127.897C16.365 127.897 13.4732 128.423 10.5814 129.014 8.93834 129.343 7.36098 130 5.9808 130.92 4.99495 131.578 3.94338 132.366 3.15471 133.221 1.7088 134.798 0.525785 136.638 0.0657231 138.741 0.0657231 138.741 0.0657231 138.741 0.0657231 138.741 1.38018 139.399 2.76037 139.859 4.20628 140.187 5.65218 140.45 7.09809 140.582 8.544 140.647 10.9758 140.713 13.3418 140.122 15.7078 139.727 19.0597 139.399 22.4116 139.596 25.7634 139.99 27.6037 140.253 29.3782 140.647 31.2185 141.042 33.2559 141.502 35.2276 142.225 37.265 142.619 38.5794 142.882 39.8939 143.013 41.2084 143.079 42.3914 143.145 43.5744 142.882 44.6917 142.751 46.3348 142.553 48.0436 141.83 49.4237 140.91 49.4237 140.91 49.4237 140.91 49.4237 140.91 48.898 138.741 47.5835 136.967 46.1376 135.324 45.086 134.075 43.6401 133.089 42.2599 132.235 40.7483 131.315 38.9738 130.855 37.3307 130.329 34.5046 129.54 31.6785 129.014 28.7867 128.554 25.7634 128.094 22.6745 127.831 19.6512 127.831 19.5855 127.897 19.454 127.897 19.3226 127.897L19.3226 127.897Z" fill="#35241D" fill-rule="nonzero" fill-opacity="1" transform="matrix(1.00016 0 0 1 3.06573 778.04)"/><path d="M396.179 105.617C395.456 106.406 394.864 107.326 394.273 108.18 393.747 108.969 393.287 109.889 392.761 110.743 391.907 112.189 390.987 113.569 390.001 114.884 388.292 116.921 386.386 118.762 384.743 120.93 383.363 122.705 382.377 124.677 381.522 126.714 381.522 126.714 381.522 126.648 381.588 126.648 381.522 126.846 381.457 126.977 381.391 127.174 381.391 127.174 381.391 127.24 381.391 127.24 381.391 127.24 381.391 127.24 381.391 127.174 381.128 127.831 380.931 128.489 380.734 129.146 380.734 129.146 380.734 129.146 380.734 129.146 382.508 130.263 384.743 130.592 386.78 130.395 389.146 130.197 391.512 129.409 393.484 128.029 395.39 126.714 396.902 125.005 398.413 123.231 399.859 121.456 401.239 119.616 402.488 117.71 403.737 115.804 404.854 113.832 405.577 111.598 405.971 110.415 406.037 109.166 406.169 107.917 406.234 106.997 406.169 106.077 406.037 105.223 405.84 103.514 405.446 101.871 404.525 100.359 404.525 100.359 404.525 100.359 404.525 100.359 401.108 101.082 398.282 103.185 396.179 105.617L396.179 105.617Z" fill="#35241D" fill-rule="nonzero" fill-opacity="1" transform="matrix(1.00016 0 0 1 3.06573 778.04)"/></g></g></g></g></svg>