<svg width="428" height="433" xmlns="http://www.w3.org/2000/svg" xmlns:xlink="http://www.w3.org/1999/xlink" xml:space="preserve" overflow="hidden"><defs><clipPath id="clip0"><rect x="46" y="525" width="428" height="433"/></clipPath><clipPath id="clip1"><rect x="47" y="526" width="427" height="432"/></clipPath><clipPath id="clip2"><rect x="47" y="526" width="428" height="432"/></clipPath><clipPath id="clip3"><rect x="47" y="526" width="428" height="432"/></clipPath></defs><g clip-path="url(#clip0)" transform="translate(-46 -525)"><g clip-path="url(#clip1)"><g clip-path="url(#clip2)"><g clip-path="url(#clip3)"><path d="M249.136 99.3705C249.136 99.3705 200.718 76.5947 177.818 113.671 154.918 150.748 175.637 195.457 165.823 232.534 158.039 261.937 120.023 280.515 125.475 323.043 128.142 343.849 149.91 351.689 155.91 375.018 160.445 392.656 142.304 421.38 117.107 410.293 117.107 410.293 139.28 410.293 133.737 389.128 127.227 364.272 76.7936 378.042 55.6287 322.61 36.0003 317.158 11.1065 292.259 2.57566 266.667-9.41957 230.681 24.3851 193.604 24.3851 193.604 24.3851 193.604 16.7519 172.885 24.3851 134.718 32.0183 96.5514 67.1654 57.2161 99.9738 33.3551 149.862-2.92744 177.942 5.82092 199.751 16.7252 199.751 16.7252 216.776-10.6358 264.757 4.63134 312.738 19.8985 363.199 76.5939 382.828 119.123 401.385 159.329 371.923 181.28 387.19 200.908 402.456 220.537 416.633 241.256 411.18 275.061 405.728 308.865 374.795 317.247 374.109 342.766 373.694 358.235 396.282 364.434 386.203 388.119 378.181 406.971 352.293 405.918 352.293 405.918 352.293 405.918 380.646 400.466 365.38 377.566 350.113 354.665 333.869 355.744 331.575 333.947 329.394 313.228 364.29 294.69 358.837 275.061 353.384 255.432 325.032 242.346 325.032 200.908 325.032 159.47 330.677 138.044 320.67 118.032 308.675 94.0421 282.396 79.2132 249.136 99.3705Z" fill="#BA9978" fill-rule="nonzero" fill-opacity="1" transform="matrix(1.00155 0 0 1 56.5563 536.675)"/><path d="M118.432 179.42C117.927 201.279 103.633 219.082 88.3692 233.296 78.5994 242.394 67.6296 250.886 61.3178 262.936 54.5111 275.931 53.235 291.868 56.8886 305.977 57.0641 306.655 56.0791 307.099 55.7419 306.46 49.5563 294.756 47.934 281.714 51.5715 268.874 55.0844 256.472 63.798 246.527 72.9685 237.873 81.6514 229.678 90.7313 221.808 98.4518 212.658 107.063 202.452 109.797 191.329 113.009 178.686 113.779 175.658 118.504 176.317 118.432 179.42ZM234.958 58.8481C232.168 54.3275 229.175 49.9299 225.875 45.7668 222.389 41.3675 218.437 37.6993 214.54 33.6963 213.538 32.6685 212.151 34.167 213.001 35.2344 216.242 39.3013 218.963 43.9666 221.78 48.3457 224.615 52.7538 227.36 57.2202 229.846 61.8362 232.259 66.3179 234.598 70.8563 236.698 75.4941 238.848 80.2451 240.547 85.2145 243.495 89.5353 244.509 91.0216 247.289 90.6351 247.159 88.543 246.829 83.2259 244.822 78.432 242.661 73.6082 240.388 68.5345 237.878 63.5797 234.958 58.8481ZM35.3913 245.133C40.41 230.759 53.5997 223.124 62.2251 211.425 63.4794 209.724 61.1011 207.768 59.478 208.678 52.3365 212.684 46.3401 219.113 41.1734 225.381 36.4022 231.169 32.1938 237.608 30.1462 244.895 28.1916 251.852 27.7549 259.522 28.7019 266.667 29.7467 274.551 33.0534 281.292 37.0944 288.051 37.43 288.613 38.2363 288.12 37.9613 287.544 31.7676 274.56 30.6128 258.818 35.3913 245.133ZM143.174 72.3418C135.884 79.941 130.098 89.1689 125.65 98.6767 121.681 107.159 118.105 116.789 119.742 126.297 120.08 128.259 123.346 128.247 123.695 126.297 126.842 108.724 135.125 90.995 147.101 77.6993 153.937 70.1098 163.222 64.572 173.095 61.9567 183.239 59.2694 193.182 60.6992 203.481 61.0396 204.243 61.0647 204.598 59.9066 203.882 59.5589 183.518 49.6598 158.532 56.3322 143.174 72.3418ZM322.432 60.683C317.952 56.6913 312.46 53.5843 307.133 50.8777 295.334 44.8805 280.324 40.5685 267.262 44.7689 259.523 47.258 253.647 52.8622 249.677 59.833 248.868 61.2523 250.944 62.4241 251.844 61.1003 271.063 32.8254 305.523 56.6598 325.677 70.5773 326.732 71.3059 328.429 70.3492 328.321 69.0602 328.04 65.7073 324.776 62.771 322.432 60.683ZM113.697 70.8716C119.203 63.1317 124.503 55.3182 131.92 49.2401 137.764 44.4502 144.654 40.7464 151.847 38.4465 162.911 34.9077 175.196 34.6821 186.458 37.5246 187.609 37.8158 188.133 36.3351 187.232 35.6897 176.827 28.2385 161.203 29.8227 149.601 33.3365 132.29 38.5776 115.979 51.9257 109.875 69.2599 109.037 71.6399 112.412 72.679 113.697 70.8716Z" fill="#4F484A" fill-rule="nonzero" fill-opacity="1" transform="matrix(1.00155 0 0 1 56.5563 536.675)"/></g></g></g></g></svg>