<svg width="400" height="433" xmlns="http://www.w3.org/2000/svg" xmlns:xlink="http://www.w3.org/1999/xlink" xml:space="preserve" overflow="hidden"><defs><clipPath id="clip0"><rect x="92" y="52" width="400" height="433"/></clipPath><clipPath id="clip1"><rect x="92" y="53" width="399" height="432"/></clipPath><clipPath id="clip2"><rect x="92" y="53" width="399" height="433"/></clipPath><clipPath id="clip3"><rect x="92" y="53" width="399" height="433"/></clipPath><linearGradient x1="187.957" y1="-27.7543" x2="194.498" y2="390.411" gradientUnits="userSpaceOnUse" spreadMethod="pad" id="fill4"><stop offset="0" stop-color="#524A45" stop-opacity="1"/><stop offset="1" stop-color="#1A0C00" stop-opacity="1"/></linearGradient></defs><g clip-path="url(#clip0)" transform="translate(-92 -52)"><g clip-path="url(#clip1)"><g clip-path="url(#clip2)"><g clip-path="url(#clip3)"><path d="M376.653 347.955C372.586 355.441 367.97 364.197 361.031 369.321 359.972 374.102 360.553 380.779 357.473 384.55 354.734 393.16 352.512 404.548 346.791 410.931 349.327 401.522 353.896 390.723 351.659 379.994 350.756 402.028 332.477 420.866 312.177 427.235 307.58 426.701 320.194 419.057 320.016 415.553 318.28 415.723 309.766 416.432 311.168 413.569 308.12 412.195 304.848 411.358 301.698 410.241 300.892 414.005 298.685 413.224 300.511 409.803 294.826 414.451 286.86 407.461 280.163 406.492 233.365 394.46 234.398 384.741 233.416 330.768 233.447 324.985 233.517 319.698 235.752 317.138 237.217 315.46 239.914 314.529 243.048 312.194 261.192 298.672 281.366 284.171 285.177 263.037 285.658 260.372 291.804 261.185 295.184 258.963 300.141 255.704 304.734 251.12 308.055 244.749 313.318 234.654 315.673 226.083 317.359 216.196 319.082 206.084 316.421 198.503 306.988 198.283 301.304 201.651 298.817 203.64 298.817 203.64 298.935 202.616 299.516 200.807 300.2 198.078 300.704 196.069 301.413 193.492 301.275 190.715 297.107 189.38 292.269 189.019 287.716 187.638 292.34 192.469 299.642 196.253 299.591 196.667 299.538 197.093 295.325 197.307 287.762 196.634 249.785 193.905 231.621 142.367 207.798 122.605 214.063 142.786 222.557 164.165 233.247 180.394 187.259 148.832 193.046 137.648 172.576 94.4938 162.587 74.96 166.89 65.1636 142.975 79.095 143.427 78.9335 143.872 78.7621 144.31 78.5777 137.326 82.165 128.706 82.4573 121.442 85.8707 113.33 91.4156 97.8767 88.8991 99.5474 105.842 109.569 143.885 122.54 185.215 108.448 224.04 107.996 226.608 104.095 236.799 104.642 228.752 107.625 195.518 100.72 162.071 91.9695 130.269 87.3466 153.251 98.7948 183.901 78.7959 201.981 79.1196 201.91 79.2304 202.554 79.1304 202.582 82.6305 208.522 73.8973 194.251 65.3022 199.566 59.6142 203.996 59.9275 215.763 63.4771 227.971 68.1822 244.154 78.984 261.136 93.0502 263.061 98.0265 288.268 123.729 303.222 143.164 317.627 146.754 337.991 146.181 374.646 137.02 386.091 124.485 401.751 101.004 405.212 81.4218 412.13 78.9131 409.149 75.5089 409.804 71.7864 410.992 72.2114 411.787 74.3798 415.899 74.6994 416.324 65.8885 407.807 56.4754 387.502 57.509 363.908 55.4925 378.774 56.9469 388.631 58.6376 396.222 60.2862 403.624 62.2655 408.713 64.0025 411.551 65.3036 413.677 66.6641 414.836 65.8631 415.39 64.7761 416.143 60.3418 415.931 45.8138 417.348 45.8138 417.701 41.6019 417.329 38.1427 412.939 40.2088 419.157 50.6132 422.897 46.0182 421.029 48.0852 422.269 34.1902 417.491 28.6361 405.515 5.92134 393.972-6.05655 361.158 3.8298 337.721 5.1489 333.338 4.81099 327.789 5.10792 323.004 4.23695 318.681 24.1133 275.743 26.6988 253.185 31.4536 210.018 28.3465 164.977 41.6156 123.339 41.6513 119.613 43.0554 115.981 44.2201 111.698 46.8382 102.07 49.7597 90.8186 51.8201 81.5721 56.6977 63.1491 61.7045 48.407 70.6583 37.6628 79.3485 27.235 92.6811 20.8239 115.312 17.3994 114.999 14.9481 122.488 17.237 121.283 18.7603 125.788 20.5961 129.736 24.5461 131.93 28.9029 132.174 28.7185 144.635 14.0244 152.514 7.89599 154.697 6.19827 158.805 1.90534 164.805 0.92301 186.248-2.58801 233.822 7.40628 268.018 33.882 299.666 54.6427 318.362 97.6724 332.524 132.812 337.261 142.026 335.723 156.923 342.555 163.489 342.753 164.907 340.792 163.955 340.136 164.628 349.177 191.986 357.988 214.188 364.201 232.641 392.605 317.012 391.607 320.092 376.653 347.955ZM38.1491 217.773C38.5772 210.688 36.8198 235.577 32.2243 252.319 32.6551 250.596 26.4309 274.1 27.2519 274.1 27.2287 275.378 26.265 280.264 27.7627 276.002 27.7627 276.119 36.129 252.834 35.625 254.346 39.5359 243.511 38.1491 217.656 38.1491 217.773ZM266.38 168.684C265.512 167.862 262.712 164.644 262.986 164.918 250.854 148.386 231.072 130.463 231.108 130.991 230.634 131.072 231.181 131.581 231.102 131.422 243.8 144.965 249.285 159.752 267.451 174.21 283.823 184.899 264.743 167.047 266.38 168.684ZM30.6178 264.516C30.621 264.496 30.6276 264.476 30.6309 264.457 30.6837 264.206 30.7298 263.952 30.776 263.699 30.776 263.702 30.776 263.702 30.776 263.705 30.7892 263.623 30.8023 263.537 30.8155 263.455L30.8023 263.442C30.7331 263.798 30.6771 264.157 30.6178 264.516ZM231.19 131.408C231.193 131.408 231.193 131.405 231.196 131.405 231.193 131.405 231.193 131.405 231.193 131.405 231.19 131.405 231.19 131.408 231.19 131.408ZM231.203 131.401C231.2 131.405 231.2 131.405 231.2 131.405 231.203 131.401 231.206 131.401 231.21 131.401 231.206 131.401 231.206 131.401 231.206 131.401 231.203 131.401 231.203 131.401 231.203 131.401ZM262.649 166.848C262.745 166.963 262.84 167.079 262.936 167.191 262.946 167.184 262.956 167.181 262.969 167.174 262.88 167.085 262.794 166.993 262.705 166.904 262.686 166.884 262.669 166.864 262.649 166.848ZM255.657 158.972C255.597 158.9 255.538 158.831 255.479 158.758 255.469 158.746 255.457 158.734 255.446 158.721 255.447 158.722 255.448 158.724 255.449 158.725 255.446 158.722 255.439 158.715 255.436 158.709 255.434 158.707 255.433 158.706 255.433 158.706 254.906 158.083 254.388 157.457 253.874 156.821 253.808 156.867 253.732 156.887 253.657 156.89 253.657 156.962 253.637 157.035 253.594 157.104 253.574 157.137 253.548 157.167 253.522 157.193 253.571 157.183 253.624 157.19 253.67 157.223 253.831 157.335 253.973 157.48 254.118 157.611 254.276 157.76 254.434 157.908 254.593 158.06 254.896 158.353 255.192 158.649 255.489 158.949 255.522 158.982 255.558 159.019 255.591 159.052 255.63 159.061 255.667 159.081 255.7 159.104 255.766 159.15 255.832 159.2 255.894 159.249 255.891 159.246 255.891 159.243 255.887 159.243 255.812 159.15 255.736 159.061 255.657 158.972ZM252.988 157.236C252.935 157.206 252.896 157.16 252.853 157.117 252.793 157.058 252.737 156.992 252.681 156.929 252.635 156.88 252.592 156.831 252.546 156.781 252.54 156.811 252.533 156.837 252.52 156.863 252.474 156.969 252.381 157.041 252.269 157.074 252.266 157.074 252.263 157.074 252.26 157.078 252.111 157.12 251.96 157.048 251.867 156.936 251.798 156.847 251.729 156.761 251.656 156.672 251.66 156.676 251.66 156.679 251.663 156.682 251.654 156.672 251.645 156.661 251.637 156.65 251.593 156.598 251.549 156.543 251.505 156.491 251.515 156.504 251.525 156.514 251.531 156.527 251.42 156.393 251.309 156.256 251.198 156.122 251.2 156.125 251.203 156.129 251.205 156.132 250.806 155.654 250.408 155.176 250.006 154.698 250.02 154.778 250.006 154.862 249.964 154.93 250.051 155.055 250.139 155.18 250.226 155.305 250.645 155.901 251.054 156.501 251.505 157.074 251.714 157.339 251.929 157.604 252.135 157.872 252.214 157.855 252.299 157.875 252.368 157.928 252.579 158.089 252.78 158.27 252.978 158.452 252.883 158.336 252.79 158.221 252.701 158.102 252.645 158.04 252.593 157.974 252.54 157.908 252.507 157.868 252.49 157.802 252.474 157.756 252.444 157.664 252.454 157.559 252.52 157.486 252.53 157.476 252.536 157.466 252.546 157.456 252.645 157.344 252.81 157.325 252.929 157.42 253.021 157.493 253.113 157.572 253.202 157.651 253.212 157.598 253.235 157.552 253.274 157.516 253.294 157.496 253.317 157.483 253.344 157.473 253.324 157.407 253.331 157.334 253.377 157.278 253.294 157.311 253.199 157.318 253.113 157.288 253.07 157.275 253.027 157.262 252.988 157.236ZM252.5 158.119 252.503 158.119C252.503 158.119 252.5 158.119 252.5 158.116L252.5 158.119ZM255.331 157.434C255.344 157.427 255.357 157.42 255.37 157.417 254.945 156.834 254.517 156.251 254.078 155.674 254.042 155.624 254.003 155.575 253.966 155.529 253.943 155.572 253.91 155.611 253.871 155.641 253.835 155.667 253.795 155.684 253.756 155.694 254.098 156.069 254.434 156.442 254.774 156.817 254.958 157.022 255.146 157.226 255.331 157.434ZM251.742 156.715C251.742 156.712 251.739 156.709 251.736 156.705 251.739 156.712 251.745 156.719 251.749 156.725 251.749 156.722 251.745 156.719 251.742 156.715ZM265.056 172.109C265.06 172.113 265.066 172.117 265.07 172.121 265.061 172.111 265.051 172.105 265.044 172.098 265.047 172.101 265.051 172.105 265.056 172.109Z" fill="url(#fill4)" fill-rule="nonzero" transform="matrix(1.00092 0 0 1 98.0601 55.775)"/><path d="M290.943 117.765C287.201 113.47 283.46 109.176 279.718 104.881 278.514 103.499 276.651 101.988 275.074 102.92 275.382 106.147 275.442 109.397 275.255 112.633 275.218 113.282 275.13 114.01 274.618 114.41 274.144 114.779 273.473 114.732 272.884 114.612 270.046 114.038 267.614 112.277 265.281 110.561 260.967 107.388 256.654 104.215 252.34 101.043 250.219 99.4823 247.323 97.8871 245.154 99.3818 242.748 101.041 243.651 104.762 244.919 107.396 246.188 110.029 247.449 113.516 245.357 115.557 243.049 117.808 239.22 115.882 236.765 113.794 231.527 109.339 226.73 104.191 220.603 101.069 218.377 99.935 215.865 99.0744 213.407 99.5215 210.949 99.9685 208.663 102.098 208.786 104.593 205.027 102.935 201.623 100.479 198.865 97.4339 196.542 94.87 194.511 91.7737 191.301 90.4842 188.091 89.1945 183.375 91.2175 183.76 94.6553 179.519 91.4963 176.644 86.5635 175.986 81.3163 180.432 82.0708 184.724 83.7148 188.537 86.1229 188.654 84.5792 188.771 83.0356 188.889 81.4919 199.556 84.023 208.233 91.5893 218.163 96.2365 219.328 96.7817 220.834 97.2442 221.79 96.3838 222.606 95.6495 222.529 94.3702 222.91 93.3406 223.721 91.1497 226.611 90.3995 228.849 91.0708 231.087 91.7423 232.857 93.4091 234.679 94.8709 236.33 96.1954 238.988 97.2948 240.315 95.6455 241.6 94.0479 240.135 91.544 240.948 89.6619 241.576 88.2108 243.414 87.6236 244.972 87.8904 246.531 88.1572 247.889 89.0672 249.238 89.8915 252.86 92.1051 256.775 93.8398 260.849 95.0365 263.62 95.8507 267.008 96.2706 269.047 94.2246 270.677 92.5899 270.776 89.9914 270.487 87.7014 270.487 85.1684 269.181 82.5529 268.633 80.2084 272.742 81.8839 275.989 89.5903 278.415 93.1708 282.091 98.598 285.767 104.025 289.443 109.452 291.14 111.958 292.83 115.398 290.943 117.765ZM85.915 133.084C85.2916 132.02 85.135 130.684 84.297 129.779 83.1544 128.546 81.0863 128.601 79.6503 129.476 78.2142 130.351 77.2798 131.841 76.4725 133.316 75.8442 134.464 75.0369 135.79 73.7315 135.876 71.8092 136.003 70.9763 133.491 70.9056 131.566 70.6046 123.363 72.6286 115.087 76.6816 107.949 71.9706 110.978 68.0554 115.233 65.4284 120.179 66.2612 118.06 66.421 115.682 65.8794 113.47 64.9393 114.94 62.9037 115.595 61.2829 114.949 59.662 114.303 58.6354 112.427 58.9644 110.713 58.1799 111.835 57.3589 112.991 56.1791 113.684 54.9992 114.378 53.3517 114.476 52.3551 113.538 51.4445 112.681 51.3446 111.29 51.3288 110.04 51.2704 105.437 51.5405 100.83 52.1361 96.2661 51.9111 96.0226 51.5068 95.9471 51.2353 96.1373 50.0466 96.9698 49.5724 98.4748 49.1739 99.8703 48.5771 101.959 48.1056 104.094 47.3751 106.14 42.7049 119.221 39.4343 132.801 37.6373 146.573 39.7162 142.583 41.795 138.593 43.8738 134.602 44.6898 135.711 46.4836 135.618 47.574 134.778 48.6644 133.937 49.2249 132.598 49.7396 131.322 50.0195 134.748 50.8301 138.131 52.1336 141.312 54.0468 137.578 56.9478 134.355 60.4613 132.061 57.9326 142.523 57.2768 153.435 58.5347 164.125 61.6471 156.478 59.0008 146.522 64.6843 140.534 64.0871 144.829 64.8698 149.305 66.8891 153.142 70.196 148.331 73.503 143.519 76.8099 138.707 78.0359 140.167 79.4595 141.461 81.0297 142.542L88.9349 133.845C88.2076 134.84 86.5384 134.148 85.915 133.084Z" fill="#FFFFFF" fill-rule="nonzero" fill-opacity="0.3" transform="matrix(1.00092 0 0 1 98.0601 55.775)"/><path d="M232.595 177.32C233.675 178.694 234.769 180.194 236.015 181.476 235.626 181.291 235.237 181.103 234.852 180.919 234.85 180.917 234.849 180.916 234.847 180.914 229.289 178.243 223.755 175.485 218.88 171.679 207.465 162.574 197.435 151.486 190.443 138.615 180.376 118.218 172.257 96.8982 162.661 76.277 162.016 75.0302 161.235 73.5657 160.337 72.0094 157.782 72.1994 155.451 73.9651 153.056 74.8069 149.137 76.3368 145.338 78.3621 141.628 80.2044 145.983 76.8787 150.983 74.6599 156.13 72.8691 157.392 72.4391 158.87 71.8164 160.231 71.8281 159.285 70.1965 158.211 68.472 157.032 66.7933 155.709 67.0485 154.576 68.1809 153.37 68.789 151.265 69.9328 149.297 71.3976 147.478 72.8387 149.555 70.4714 152.213 68.8106 155.014 67.4312 155.324 67.2734 156.253 66.774 156.933 66.6538 155.307 64.354 153.482 62.1543 151.512 60.4187 150.896 60.652 150.221 61.4029 149.826 61.7159 144.667 66.5758 141.344 73.094 138.745 79.5297 140.63 72.1031 144.549 64.8512 151.039 60.5164 151.135 60.4557 151.273 60.3922 151.423 60.3426 149.599 58.7524 147.652 57.5671 145.623 57.0733 140.493 60.4681 135.309 75.3288 134.702 80.0186 135.176 74.035 137.154 68.161 140.248 63.0284 141.6 61.0468 143.158 58.2386 145.331 57.0088 144.723 56.8812 144.108 56.8091 143.486 56.8157 141.486 57.1386 139.608 57.567 137.828 58.4863 136.708 59.3958 135.858 60.5952 135.014 61.7518 131.633 67.5348 129.979 74.1317 129.218 80.7255 129.225 79.8391 129.277 78.6824 129.294 77.7104 129.801 70.7608 130.342 58.9312 137.545 55.6591 140.735 54.6376 144.221 54.0642 147.374 55.5141 150.416 56.5949 152.571 59.1619 154.821 61.3597 159.596 66.3981 163.026 72.6259 165.986 78.8638 171.647 91.3492 176.916 104.003 182.175 116.663 185.826 124.802 188.907 133.238 193.52 140.902 200.532 153.101 210.484 163.276 221.368 172.068 225.255 175.069 229.581 177.48 233.854 179.896 233.5 179.529 233.139 179.162 232.789 178.803 227.24 173.05 223.394 165.942 220.623 158.495 216.873 150.191 214.23 141.495 211.169 132.938 207.531 121.922 202.552 111.334 196.598 101.39 192.822 95.3429 189.444 89.0327 185.295 83.2299 183.911 81.3022 182.425 79.3086 180.346 78.1257 182.129 78.9791 183.598 80.6959 184.877 82.2546 189.576 88.0606 193.415 94.483 197.461 100.744 204.154 111.364 209.383 122.861 213.624 134.661 216.511 142.566 219.318 150.478 222.719 158.179 225.299 164.904 228.103 171.63 232.595 177.32ZM227.787 127.649C228.061 127.744 228.316 127.878 228.563 128.025 228.562 128.023 228.56 128.02 228.558 128.018 228.578 128.03 228.597 128.045 228.617 128.057 228.763 128.146 228.906 128.239 229.046 128.338 229.102 128.378 229.158 128.415 229.213 128.456 229.376 128.576 229.536 128.699 229.695 128.822 229.781 128.891 229.863 128.954 229.949 129.023 229.961 129.037 229.972 129.052 229.984 129.066 233.575 131.941 236.75 135.349 240.121 138.451 245.762 143.479 250.797 149.104 255.796 154.755 263.259 162.952 270.097 171.879 277.85 179.778 277.899 179.827 277.947 179.878 277.996 179.927 277.994 179.926 277.992 179.926 277.991 179.925 277.991 179.926 277.992 179.926 277.993 179.927 277.777 179.842 277.563 179.754 277.349 179.669 276.989 179.526 276.628 179.384 276.27 179.237 276.269 179.236 276.267 179.236 276.266 179.235 276.266 179.235 276.266 179.235 276.266 179.235 272.516 177.697 268.893 175.91 265.721 173.307 257.44 166.443 250.234 157.951 243.835 149.364 239.225 142.395 234.391 135.725 229.342 129.092 229.125 128.811 228.915 128.514 228.704 128.218 228.4 127.997 228.092 127.796 227.787 127.649ZM231.129 130.471C236.324 136.785 241.294 143.259 245.841 150.063 251.786 157.79 258.396 165.026 265.49 171.689 268.184 174.218 271.309 176.088 274.57 177.718 266.665 170.621 259.94 162.234 252.995 154.234 248.253 148.735 243.129 143.591 238.098 138.358 235.712 135.795 233.559 132.994 231.129 130.471ZM244.635 61.5113C250.105 68.1972 254.652 75.6081 258.304 83.4308 263.197 93.9853 266.822 105.07 271.455 115.74 278.463 132.611 284.975 150.28 296.752 164.505 299.461 167.756 302.232 171.052 305.221 174.097 304.602 172.958 304 171.801 303.428 170.615 300.788 165.174 299.009 159.355 296.666 153.783 299.368 159.078 301.596 164.897 304.578 170.127 306.346 173.172 308.21 176.196 310.212 179.125 310.233 179.156 310.254 179.187 310.275 179.218 310.275 179.218 310.274 179.218 310.274 179.217 312.971 183.156 315.919 186.922 319.224 190.336L319.225 190.336C319.228 190.34 319.232 190.344 319.236 190.347 320.052 191.19 320.888 192.011 321.749 192.808 320.951 192.593 320.155 192.373 319.361 192.146 319.292 192.126 319.224 192.109 319.156 192.089 319.154 192.088 319.153 192.086 319.151 192.085 317.868 191.716 316.595 191.318 315.335 190.873 313.672 190.997 312.006 191.093 310.354 191.078 305.108 191.101 299.879 190.53 294.732 189.535 292.301 189.043 289.839 188.475 287.503 187.613 288.919 188.92 290.337 190.225 291.895 191.351 294.789 193.516 297.964 195.252 301.195 196.823 301.691 196.844 302.187 196.867 302.682 196.887 302.288 196.919 301.881 196.941 301.475 196.963 301.479 196.965 301.483 196.967 301.487 196.969 301.393 196.974 301.295 196.976 301.2 196.981 301.023 196.99 300.844 196.995 300.666 197.002 300.421 197.012 300.179 197.026 299.932 197.032 299.929 197.031 299.926 197.029 299.923 197.028 298.668 197.064 297.397 197.071 296.161 197.065 289.069 196.909 281.825 196.912 274.988 194.796 257.696 188.959 245.961 173.838 235.853 159.42 230.061 150.895 224.159 142.493 217.838 134.361 215.144 130.944 212.973 127.045 209.646 124.178 211.5 125.26 215.144 129.726 217.255 132.374 219.254 134.742 221.328 137.049 223.295 139.445 239.456 159.256 251.71 186.395 278.028 194.201 285.006 195.807 292.197 196.401 299.351 196.742 298.355 196.253 297.369 195.74 296.409 195.18 292.586 193.091 289.428 190.015 286.42 186.935 286.366 186.879 286.31 186.824 286.256 186.767 286.256 186.767 286.257 186.768 286.257 186.768 285.623 186.118 284.994 185.469 284.368 184.83 285.189 185.501 285.977 186.212 286.76 186.931 290.024 188.004 293.872 188.704 297.16 189.193 302.156 189.947 307.197 190.603 312.245 190.619 313.018 190.635 313.788 190.619 314.558 190.591 314.384 190.527 314.208 190.469 314.035 190.402 305.708 187.285 297.809 182.863 290.847 177.33 290.094 176.689 289.371 176.016 288.667 175.325 288.673 175.332 288.679 175.339 288.685 175.346 288.67 175.331 288.656 175.315 288.64 175.3 288.497 175.159 288.361 175.01 288.219 174.867 287.701 174.344 287.192 173.812 286.695 173.268 286.471 173.022 286.25 172.773 286.03 172.524 285.609 172.048 285.194 171.567 284.786 171.08 284.586 170.842 284.385 170.605 284.188 170.365 283.615 169.668 283.05 168.965 282.493 168.255 282.014 167.654 281.522 167.061 281.028 166.469 280.897 166.313 280.768 166.157 280.637 166.001 280.517 165.858 280.397 165.714 280.277 165.571 280.038 165.286 279.799 165.001 279.56 164.716 279.448 164.582 279.338 164.448 279.227 164.314 278.819 163.822 278.416 163.327 278.019 162.828 277.938 162.727 277.856 162.626 277.776 162.524 277.346 161.977 276.932 161.421 276.528 160.858 276.473 160.781 276.412 160.707 276.358 160.63 276.311 160.563 276.27 160.493 276.224 160.426 275.843 159.878 275.473 159.323 275.129 158.752 275.122 158.755 275.112 158.755 275.106 158.758 275.043 158.837 275.115 159.114 275.069 159.085 275.057 159.026 275.016 158.847 275.057 158.757 267.316 147.427 260.866 135.133 254.465 123.065 248.981 110.612 244.058 97.8337 237.195 86.06 232.393 78.056 226.943 70.5726 220.923 63.4715 216.277 58.4035 210.823 54.2252 205.047 50.5379 193.033 43.249 179.288 36.5368 164.888 38.4248 160.232 39.074 155.843 41.1796 151.569 43.0248 149.886 43.9475 148.08 44.8438 146.689 46.1619 146.155 46.7121 145.885 47.6184 145.104 47.8721 145.687 47.6282 145.915 46.8869 146.264 46.3498 146.815 45.3644 147.76 44.6989 148.62 44.0036 152.878 40.7875 157.824 38.4018 162.822 36.5663 172.82 33.8524 182.987 36.4986 192.279 40.7132 197.825 40.6341 203.319 40.8249 208.888 41.5866 214.676 42.8191 220.481 44.8198 225.606 47.848 227.636 47.7784 229.617 48.9015 231.441 49.7043 236.654 52.5814 240.915 56.9211 244.635 61.5113ZM244.919 63.294C240.626 57.7116 233.121 48.8495 225.806 47.973 226.376 48.3139 226.944 48.6575 227.496 49.0245 233.348 53.4078 238.879 58.3457 242.963 64.4593 249.387 72.832 254.03 82.289 258.138 91.9638 264.187 105.784 269.178 120.04 275.286 133.842 278.493 141.334 282.125 148.615 286.618 155.409 292.36 164.032 299.195 172.019 305.845 179.87 297.417 171.177 289.239 162.061 282.884 151.712 274.967 138.671 269.86 124.192 263.904 110.203 258.674 96.792 253.411 83.1289 245.547 71.0099 242.657 66.9124 239.844 62.719 236.396 59.0616 233.099 55.7841 229.516 52.9653 225.749 50.2934 220.218 47.013 214.008 44.7454 207.781 43.181 203.654 42.5071 199.524 41.7401 195.371 41.271 194.667 41.2131 193.943 41.1775 193.215 41.1468 195.756 42.3345 198.231 43.625 200.611 44.953 207.462 48.7029 213.993 53.2239 219.509 58.7829 222.923 62.0747 225.625 65.9894 228.403 69.8118 232.95 76.1517 237.125 82.7849 240.816 89.662 246.246 100.398 250.639 111.624 255.377 122.68 262.826 137.2 270.789 151.72 280.439 164.918 284.41 169.38 288.419 173.834 293.114 177.515 299.78 182.24 306.752 186.6 314.278 189.802 315.609 190.393 316.982 190.885 318.373 191.337 318.144 191.121 317.917 190.903 317.692 190.684 317.684 190.684 317.677 190.685 317.669 190.686 317.587 190.61 317.505 190.527 317.422 190.445 317.429 190.445 317.436 190.444 317.442 190.444 313.157 186.234 309.47 181.444 306.346 176.088 302.466 172.681 299.013 168.736 295.661 164.861 289.802 158.165 285.647 150.254 281.765 142.306 275.264 129.224 270.354 115.443 264.775 101.956 259.803 88.2879 254.063 74.7382 244.919 63.294ZM341.942 163.128C341.942 163.128 341.942 163.128 341.942 163.128 341.942 163.128 341.943 163.128 341.943 163.128L341.942 163.128ZM245.23 56.5602C245.232 56.5612 245.232 56.5631 245.232 56.5631 245.235 56.5632 245.239 56.5636 245.243 56.5638 245.238 56.5625 245.234 56.5614 245.23 56.5602ZM150.7 63.541C150.702 63.5402 150.703 63.5393 150.704 63.5386 150.704 63.538 150.704 63.5375 150.704 63.537 150.703 63.5382 150.702 63.5397 150.7 63.541ZM141.188 77.5628C143.671 72.6281 146.286 67.1235 150.7 63.541 146.231 65.9331 142.697 72.2912 141.188 77.5628ZM138.937 80.4563C138.898 80.4664 138.941 80.4227 138.954 80.4168 138.95 80.4128 138.97 80.3994 138.972 80.3869 138.97 80.382 138.968 80.3764 138.967 80.3714 136.056 80.7483 133.296 82.2342 130.429 82.9707 128.921 83.3789 127.427 83.8389 125.945 84.331 126.028 84.4065 126.107 84.4887 126.19 84.5629 126.092 84.4937 126.001 84.415 125.904 84.3442 125.01 84.6414 124.121 84.9503 123.237 85.2737 123.287 85.3368 123.35 85.3927 123.399 85.4568 123.329 85.401 123.257 85.347 123.186 85.2914 119.001 86.8255 114.926 88.6319 110.971 90.5463 113.11 88.9883 115.36 87.5988 117.698 86.3924 112.494 85.2706 105.425 81.1619 100.305 83.5185 98.6448 88.0301 98.3827 92.9891 98.9437 97.8066 99.6235 104.721 101.132 111.535 102.878 118.25 105.549 127.776 108.034 137.35 110.099 147.014 111.136 151.584 112.163 156.155 113.097 160.748 115.526 174.654 117.081 188.753 115.256 202.824 114.313 212.047 111.173 220.817 107.028 229.047 106.226 230.781 105.407 232.56 104.5 234.274 104.264 235.425 103.998 236.57 103.686 237.705 103.822 236.844 103.922 235.98 104.031 235.117 103.393 236.26 102.721 237.375 101.95 238.396 102.75 237.036 103.475 235.634 104.152 234.207 104.337 232.604 104.482 230.998 104.588 229.389 104.482 229.599 104.375 229.808 104.253 230.008 104.385 229.729 104.49 229.443 104.6 229.158 105.092 221.387 104.754 213.555 104.318 205.794 103.289 189.339 100.857 173.019 97.6096 156.864 95.7974 148.414 93.3271 140.158 91.4667 131.749 91.2388 134.754 91.3623 137.722 91.6047 140.714 91.8123 149.924 92.6262 159.131 92.2769 168.341 91.7338 181.684 89.4274 195.247 77.6355 202.914 77.5879 202.88 77.5403 202.846 77.4927 202.812 86.3945 195.624 89.3792 184.868 90.2437 173.732 91.084 166.954 90.8632 160.182 90.6688 153.394 90.7215 147.374 90.7083 141.482 90.8137 135.494 90.8631 133.993 91.1121 132.49 91.3075 130.99 91.0115 129.623 90.7355 128.25 90.4794 126.873 89.4134 129.763 88.6974 132.756 87.9061 135.729 87.9065 135.827 87.9007 135.927 87.9029 136.025 87.6203 157.27 87.5297 181.092 74.8441 199.048 80.1984 190.023 83.1769 179.65 84.5647 169.28 86.2313 158.592 86.8717 147.799 87.5548 137.016 87.3706 137.678 87.1813 138.339 86.9775 138.995 86.1515 141.513 85.1952 143.996 84.4735 146.547 82.0416 154.744 80.1401 163.133 77.0358 171.113 71.7332 184.12 62.7189 195.143 55.9699 207.347 50.6518 217.927 45.1876 228.647 42.7558 240.319 40.6145 250.658 40.4422 262.292 44.0303 272.366 43.8832 270.835 43.7603 269.3 43.6887 267.763 42.3638 259.824 42.6557 251.536 44.7828 243.782 47.0344 236.419 51.2688 228.899 55.7558 223.124 55.756 223.124 55.7563 223.123 55.7566 223.123 46.0976 236.846 42.173 249.702 43.6249 265.654 43.5779 262.113 43.8537 258.583 44.7662 255.134 46.6477 247.71 49.7155 240.638 53.3666 233.923 55.9615 229.228 59.0235 224.809 61.5373 220.075 61.5425 220.098 61.5477 220.121 61.5528 220.144 59.4504 224.53 56.5032 229.109 54.1672 233.534 50.5194 240.464 47.3066 247.707 45.4416 255.322 44.157 260.16 44.0183 265.197 44.1576 270.185 44.1734 270.292 44.1829 270.395 44.1993 270.502 44.1842 270.432 44.1748 270.36 44.1598 270.29 44.1859 271.198 44.2188 272.104 44.258 273.008 44.4323 273.473 44.6231 273.931 44.8141 274.389 44.7858 266.856 46.1722 259.323 49.462 252.506 53.7457 244.499 59.5749 237.322 63.3083 229.012 63.393 228.783 63.4961 228.552 63.6018 228.32 63.6243 228.404 63.6474 228.489 63.6709 228.573 63.626 228.705 63.5861 228.834 63.5555 228.959 55.7021 249.246 46.7555 254.389 45.5155 275.963 45.6931 276.341 45.8612 276.724 46.0512 277.096 45.857 276.762 45.693 276.416 45.5098 276.078 45.3976 278.079 45.3458 280.21 45.3729 282.519 45.0308 279.955 44.8386 277.361 44.8125 274.765 44.6254 274.386 44.4589 273.999 44.2847 273.615 44.3171 274.333 44.3507 275.049 44.384 275.762 44.2888 274.916 44.1957 274.067 44.109 273.216 38.5007 260.479 39.7983 245.428 43.7513 232.334 44.8719 228.395 46.365 224.574 48.1207 220.874 48.9695 219.09 49.8035 217.297 50.6404 215.505 50.6358 207.491 49.7897 199.496 49.8371 191.479 49.9721 181.591 51.5275 171.801 53.2706 162.086 56.2758 144.451 60.7836 126.841 70.2178 111.459 70.358 111.218 70.4998 110.977 70.64 110.736 71.146 109.225 71.6355 107.71 72.1283 106.193 71.8486 107.379 71.5246 108.602 71.1721 109.825 73.3299 106.126 75.53 102.442 78.0833 99.0068 79.5167 97.1713 81.2203 94.8548 83.1117 93.84 80.871 95.415 79.3783 97.9095 77.8263 100.144 75.6515 103.61 73.6942 107.208 71.7632 110.813 71.04 112.04 70.3476 113.277 69.6798 114.523 65.7465 125.818 63.2272 137.623 62.5197 149.567 61.6492 163.59 62.5763 177.881 60.7702 191.778 61.5489 165.551 59.277 143.031 67.6505 118.503 58.8312 136.737 55.28 156.849 52.5061 176.892 50.5998 189.29 52.0376 201.928 51.1767 214.365 52.8764 210.746 54.6177 207.147 56.6154 203.683 63.4428 192.257 71.7502 181.541 76.3605 168.939 78.8621 161.532 80.3285 153.813 82.9209 146.426 84.0571 142.93 85.8229 139.68 87.0103 136.204 87.276 135.403 87.5411 134.591 87.8097 133.779 87.9049 132.923 88.009 132.071 88.0772 131.283 88.0779 131.919 88.0419 132.561 88.0031 133.205 88.7369 131.005 89.5277 128.819 90.4578 126.752 90.2722 125.748 90.084 124.745 89.9249 123.734 88.2813 115.632 86.5633 107.457 86.959 99.1423 87.2511 93.2929 88.6624 87.3927 91.625 82.3073 89.1136 87.3895 88.0907 93.3018 88.3164 98.9909 89.0914 111.814 91.8955 124.418 94.5114 136.965 97.6157 149.71 100.7 162.488 102.45 175.502 103.924 185.531 104.696 195.627 105.472 205.725 105.806 211.721 106.095 217.848 105.777 223.899 105.958 222.511 106.111 221.116 106.375 219.753 106.937 216.64 107.589 213.61 107.683 210.457 108.61 187.783 102.509 165.696 97.7978 143.727 93.8428 127.564 89.1607 111.076 91.3223 94.2858 91.6706 89.6401 92.453 84.9643 93.9192 80.5384 94.6994 78.356 96.0646 76.4034 96.9607 74.3073 96.2228 76.6144 94.7486 78.9054 94.1628 81.3424 93.2961 84.8381 92.9508 88.4534 92.6605 92.0386 92.1242 101.772 91.6278 111.558 93.4775 121.178 94.7179 129.101 96.7381 136.87 98.6015 144.663 99.7165 149.352 100.547 154.107 101.811 158.763 105.421 175.181 108.919 191.888 108.362 208.783 108.408 213.559 107.193 218.182 106.309 222.837 106.085 224.053 105.89 225.327 105.59 226.557 105.412 228.668 105.146 230.766 104.773 232.841 106.645 228.657 108.131 224.274 109.634 219.972 112.03 211.134 113.908 202.166 114.168 192.985 114.613 178.874 112.758 164.798 110.482 150.895 107.764 138.011 103.962 125.376 100.499 112.671 97.751 100.577 94.3534 86.4385 102.749 75.7881 103.976 74.2163 105.618 73.049 107.31 72.025 109.152 70.8912 111.086 69.6946 113.3 69.547 116.286 69.4544 119.406 70.3455 121.683 72.3281 124.653 75.1146 126.996 78.6664 128.484 82.432 129.384 82.2315 130.292 82.0597 131.209 81.9192 133.741 81.4282 136.211 80.5968 138.778 80.3046 138.926 80.2903 139.09 80.3574 138.937 80.4563ZM118.74 85.8768C113.717 83.3074 107.994 78.9804 102.274 79.4672 101.516 80.6897 100.891 81.9648 100.39 83.2809 105.679 80.3559 112.631 84.4657 117.7 86.3914 118.044 86.2138 118.392 86.0459 118.74 85.8768ZM122.067 84.4221C119.7 82.5972 117.245 80.8225 114.962 78.9148 112.519 76.9001 109.786 75.1613 106.642 74.5963 105.106 75.7225 103.745 77.054 102.77 78.6914 102.635 78.8888 102.513 79.0913 102.386 79.2918 108.267 78.126 114.098 82.6347 118.86 85.8209 119.911 85.3135 120.981 84.8485 122.067 84.4221ZM124.754 83.4652C121.213 80.5878 118.274 76.9422 114.094 74.9244 112.498 74.0464 110.612 73.1207 108.788 73.2071 108.221 73.5381 107.667 73.8916 107.127 74.2646 107.468 74.3018 107.804 74.3489 108.116 74.3819 112.101 74.9714 115.254 77.6741 118.091 80.3461 119.432 81.7146 121.036 82.9279 122.372 84.3009 123.157 83.999 123.952 83.7221 124.754 83.4652ZM128.453 82.4391C126.831 79.1748 124.428 76.3095 121.727 73.8605 119.039 71.5314 114.96 70.4741 111.576 71.7283 110.808 72.1019 110.034 72.5013 109.271 72.9285 110.946 72.8818 112.792 73.5577 114.228 74.2918 118.672 76.1597 121.628 80.1187 124.959 83.3979 126.11 83.0356 127.271 82.7034 128.453 82.4391ZM109.463 208.17C110.255 199.147 108.885 190.187 108.027 181.216 106.093 164.579 102.09 148.297 98.955 131.867 97.5771 124.768 95.6577 117.798 95.4721 110.518 95.3674 108.666 95.38 106.802 95.2084 104.952 95.2373 107.385 95.1565 110.002 95.2314 112.502 95.2307 119.528 97.1213 126.346 98.296 133.228 101.075 148.452 105.177 163.431 106.987 178.823 107.913 188.162 109.375 197.475 108.847 206.889 109.057 213.027 108.59 219.154 106.89 225.088 108.73 219.732 109.574 213.887 109.463 208.17ZM81.9986 168.227C82.1271 167.281 82.193 166.328 82.2359 165.376 82.137 165.943 82.1205 166.701 82.0118 167.333 80.8222 174.158 79.0988 180.87 76.9899 187.477 75.614 191.64 73.3532 195.399 71.0733 199.126 71.0903 199.129 71.1074 199.132 71.1245 199.135 71.1402 199.138 71.1559 199.141 71.1716 199.144 78.2179 190.485 80.3048 179.036 81.9986 168.227ZM77.9254 28.0602C77.929 28.055 77.9328 28.0498 77.9364 28.0445 77.8098 28.1365 77.6838 28.228 77.5577 28.3195 77.5676 28.3129 77.5775 28.3064 77.5874 28.2998 77.7001 28.2196 77.8127 28.1399 77.9254 28.0602ZM40.1853 131.59C40.1843 131.594 40.1832 131.597 40.1822 131.601 40.1797 131.612 40.178 131.622 40.1754 131.632 40.1787 131.616 40.182 131.603 40.1853 131.59ZM25.8583 404.049C23.5454 402.878 21.2799 401.262 19.1141 399.353 20.2185 401.099 21.5128 402.751 23.0623 404.269 21.0636 402.557 19.4678 400.595 18.1605 398.472 12.0383 392.757 6.79731 384.817 3.6916 378.152-0.420746 368.289-0.513056 357.135 0.623793 346.653 1.4136 341.252 3.00393 336.024 4.80897 330.867 4.6068 329.037 4.58618 327.193 4.74018 325.362 4.85486 320.244 5.87158 315.027 7.27536 310.171 10.7056 299.797 16.258 290.169 19.3423 279.674 21.2996 273.429 23.0264 267.132 23.9622 260.644 26.0052 251.319 26.9707 241.815 27.6726 232.309 28.4403 223.086 28.2789 213.836 28.7435 204.6 29.531 194.253 29.6134 183.866 30.7339 173.542 32.6879 159.614 34.899 145.678 37.858 131.918 39.1168 125.719 41.4267 119.815 43.3972 113.831 43.8281 112.601 44.1597 111.278 44.4784 109.952 46.4461 99.6457 48.7215 89.4183 51.606 79.3336 53.0668 74.1697 54.329 68.9261 56.2917 63.922 57.0377 62.1223 57.8491 60.3508 58.6774 58.5867 59.0401 57.3009 59.454 56.0318 60.0786 54.8466 60.1382 54.7234 60.2071 54.6044 60.2716 54.4832 62.313 49.5301 64.7248 44.7586 67.6881 40.2921 67.6914 40.2854 67.698 40.2821 67.7013 40.2756 67.7639 40.2129 67.8034 40.1701 67.8562 40.1009 67.9221 40.0153 67.988 39.9328 68.0539 39.8472 68.1692 39.7022 68.2845 39.5573 68.3998 39.4122 68.6206 39.1289 68.8414 38.8487 69.0622 38.5654 69.4741 38.0447 69.8827 37.5208 70.2947 37.0001 70.5978 36.7366 70.9042 36.473 71.2107 36.2093 71.6819 35.8072 72.1498 35.4019 72.6145 34.9966 72.6672 34.9537 72.72 34.9044 72.7694 34.8582 72.5227 35.1908 72.291 35.5272 72.0499 35.8612 78.7824 29.0602 87.2242 24.2057 96.0555 20.5193 100.352 18.73 104.679 16.8287 109.296 16.0478 111.33 15.7596 113.393 15.6135 115.461 15.5781 115.451 15.5732 115.441 15.5681 115.431 15.5634 115.569 15.5613 115.708 15.5705 115.847 15.5695 116.819 15.5602 117.793 15.5683 118.766 15.6129 119.542 15.9439 120.301 16.3087 121.048 16.6952 121.119 16.7323 121.196 16.7616 121.267 16.7991 121.262 16.7993 121.258 16.7998 121.253 16.8001 124.098 18.3001 126.683 20.2315 128.691 22.803 130.098 24.8461 132.062 27.2449 131.983 29.7789 129.786 24.1444 124.116 20.1288 118.259 17.0064 109.628 17.7608 101.229 20.193 93.3007 23.7455 88.5786 25.8478 83.8204 27.9665 79.4544 30.7543 76.3469 32.6868 73.506 35.0896 70.8335 37.5718 67.6125 42.245 64.9088 47.0605 62.5762 52.0223 61.6972 55.3951 60.5526 58.7177 59.2847 61.9796 59.0886 62.7686 58.8883 63.5567 58.6711 64.3409 56.9658 70.609 54.3657 76.5962 52.578 82.83 50.2331 90.3978 48.3836 98.1279 46.4366 105.808 46.4514 105.807 46.467 105.809 46.4811 105.806 46.4642 105.883 46.4488 105.961 46.4321 106.038 46.4324 106.037 46.4327 106.037 46.433 106.036 46.1008 107.55 45.7802 109.068 45.4713 110.586 45.434 110.77 45.4008 110.954 45.3637 111.137 45.0937 112.478 44.829 113.82 44.5778 115.163 44.5695 115.19 44.5623 115.218 44.5541 115.244 44.2422 116.258 43.9523 117.277 43.678 118.302 43.4999 118.961 43.3225 119.62 43.1599 120.283 43.1241 120.29 43.089 120.301 43.0556 120.317 42.871 120.406 42.8117 120.607 42.7491 120.788 42.6897 120.96 42.6304 121.134 42.5777 121.312 42.469 121.662 42.3734 122.014 42.2844 122.37 42.2614 122.456 42.2383 122.545 42.2152 122.633 42.1296 122.97 42.0406 123.309 41.9648 123.648 41.9549 123.704 41.9417 123.76 41.9285 123.816 41.9219 123.84 41.9153 123.863 41.9087 123.889 41.7967 124.331 41.6715 124.765 41.543 125.204 41.4243 125.619 41.3057 126.041 41.22 126.463 41.0388 127.336 40.8938 128.216 40.729 129.092 40.5696 129.932 40.3866 130.768 40.1823 131.601 40.1107 131.887 40.0329 132.17 39.958 132.456 39.8592 132.773 39.7603 133.092 39.6614 133.412 39.5131 133.89 39.3648 134.371 39.2231 134.852 39.2115 134.89 39.2 134.928 39.1886 134.966 39.2077 134.812 39.232 134.658 39.2514 134.504 39.1978 134.769 39.1441 135.034 39.0905 135.299 39.0048 135.602 38.9191 135.908 38.8367 136.212 38.7246 136.607 38.6291 137.009 38.5369 137.411 38.4248 137.905 38.3194 138.399 38.2172 138.894 38.1193 139.374 38.0285 139.855 37.9384 140.336 37.8385 140.631 37.7509 140.926 37.6603 141.223 37.5647 141.546 37.4791 141.869 37.3999 142.196 37.3209 142.508 37.2649 142.828 37.2088 143.145 37.0935 143.78 36.9848 144.416 36.8958 145.052 36.8068 145.688 36.7343 146.328 36.652 146.964 36.5827 147.458 36.5103 147.952 36.4444 148.446 36.3751 148.944 36.2927 149.441 36.2269 149.942 36.2188 150.002 36.2109 150.061 36.2031 150.121 34.6382 158.515 33.2226 166.932 32.1211 175.391 31.0139 185.843 30.8821 196.315 30.022 206.758 29.6398 216.027 29.676 225.303 28.8423 234.556 28.2887 243.697 27.198 252.802 25.2472 261.755 24.4201 266.355 23.6524 270.978 22.0937 275.4 20.7592 279.489 19.8068 283.707 17.9913 287.625 16.0504 292.479 13.7701 297.214 12.0962 302.163 9.08531 309.535 6.79828 317.372 5.4833 325.195 5.45391 326.595 5.42697 327.996 5.33571 329.377 6.37499 326.475 7.46243 323.591 8.5025 320.71 11.6363 313.497 15.5938 306.716 18.3255 299.331 21.5338 292.409 24.2229 285.291 26.7164 278.108 27.5638 266.36 31.3196 255.01 33.8476 243.544 34.8911 238.253 35.3291 232.855 36.0944 227.517 36.985 222.949 37.3891 218.321 37.9965 213.718 37.9527 212.299 37.9109 210.88 37.8654 209.462 37.8963 209.542 37.928 209.623 37.9634 209.703 38.0327 209.867 38.1051 210.032 38.1776 210.197 38.2027 210.255 38.2274 210.313 38.2517 210.371 38.4851 211.71 38.7358 213.047 38.9751 214.385 39.0377 214.725 39.097 215.067 39.153 215.407 39.186 215.687 39.2157 215.967 39.2453 216.25 39.2085 222.49 39.0004 228.734 38.6158 234.967 38.6279 234.878 38.6449 234.791 38.6568 234.703 38.6 235.639 38.5233 236.574 38.4573 237.51 38.4097 238.183 38.3663 238.857 38.3136 239.53 38.1344 241.829 37.935 244.125 37.6946 246.417 37.3654 248.046 37.0043 249.668 36.6262 251.286 36.5036 251.812 36.3716 252.335 36.2443 252.859 35.9772 253.957 35.7032 255.053 35.4166 256.147 35.3446 256.421 35.2821 256.698 35.2088 256.972 35.214 256.938 35.218 256.904 35.2232 256.87 34.6419 259.053 34.0354 261.229 33.3878 263.391 30.0695 272.643 27.1599 281.867 23.5945 290.998 19.904 299.545 16.4933 308.301 11.9988 316.453 9.70867 320.911 7.93916 325.61 6.3047 330.342 4.51546 335.324 2.67672 340.313 1.81996 345.559 0.429346 355.254 0.577638 365.485 3.5598 374.873 5.37213 380.346 8.67387 385.039 12.0482 389.629 13.452 391.538 14.914 393.437 16.4575 395.264 13.4144 388.544 12.6916 380.639 12.2443 373.34 11.1554 358.523 13.1492 343.53 18.1984 329.551 20.0756 324.267 22.6145 319.099 25.181 314.192 22.6436 319.849 19.9872 325.472 18.0874 331.382 13.136 345.953 11.6287 361.449 13.0254 376.741 13.5436 383.538 14.565 390.441 17.4916 396.452 20.0081 399.299 22.7496 401.928 25.8583 404.049ZM27.0081 277.261C27.6118 275.51 28.2081 273.757 28.7943 272.001 31.246 265.595 33.5592 259.133 35.0321 252.421 35.6019 250.223 36.1246 248.024 36.6171 245.821 37.5852 236.368 38.0093 226.857 38.1086 217.354 38.0905 216.722 38.0691 216.09 38.0502 215.458 37.6373 224.403 36.9595 233.35 35.4555 242.187 32.7109 253.872 29.0014 265.457 27.0081 277.261ZM43.0176 420.198C39.1045 417.858 35.126 415.405 32.2157 411.825 30.3996 409.54 28.88 407.062 27.5982 404.461 19.5754 394.681 17.4001 385.064 17.4558 372.394 17.4114 355.974 20.535 339.612 25.8816 324.113 27.4641 319.261 29.6229 314.543 31.4935 309.796 31.6165 302.101 32.9574 294.335 33.7248 286.736 34.3871 282.12 35.1188 277.513 35.9822 272.933 36.3212 270.586 37.2486 267.959 36.4039 265.726 36.745 266.011 36.7972 266.562 36.9147 266.982 37.3439 269.633 36.7584 272.321 36.5191 274.969 35.9877 279.431 35.4583 283.897 34.8944 288.357 33.6773 300.898 31.1586 314.096 35.5601 326.275 37.8104 332.38 41.0077 338.079 44.7915 343.375 37.0644 326.604 35.8195 305.227 37.8211 288.629 38.4701 283.101 40.5893 277.682 41.0964 272.241 41.236 275.227 40.3689 278.157 39.854 281.076 39.1003 284.662 38.5973 288.283 38.2658 291.93 36.6022 310.606 38.727 330.945 47.88 347.458 50.3177 350.503 52.9324 353.402 55.6543 356.152 60.3186 360.864 66.139 364.505 70.3476 369.564 65.1414 364.634 58.9805 360.859 53.7759 355.918 53.3155 355.452 52.8592 354.979 52.4041 354.505 54.3567 357.142 56.5279 359.644 58.9459 361.976 54.8058 358.752 51.3647 354.76 48.5183 350.258 41.8756 342.636 36.2234 334.047 33.2138 324.374 31.8978 319.826 31.4564 315.196 31.4821 310.539 30.5157 313.358 29.4636 316.15 28.423 318.946 27.0564 328.165 24.2887 337.133 23.2167 346.409 21.5203 359.265 21.4086 372.332 22.9991 385.203 24.2825 394.913 27.303 404.781 33.694 412.363 36.3644 415.442 39.9523 417.662 43.0176 420.198ZM27.2623 403.781C24.3379 397.592 22.7608 390.724 21.9711 383.974 20.3573 370.511 20.6903 356.835 22.6006 343.42 23.6331 335.619 25.9099 327.982 27.8832 320.403 26.8377 323.246 25.8337 326.103 24.9952 329.016 20.7105 342.457 18.3947 356.513 18.1251 370.611 18.0702 384.352 19.7903 392.817 27.2623 403.781ZM47.0086 419.973C37.5851 417.717 35.6102 405.317 34.2855 397.14 31.9465 380.66 29.6498 363.853 32.2329 347.264 32.9021 341.344 34.5799 335.41 34.8034 329.507 33.9594 336.02 31.9985 342.362 31.2182 348.902 29.1826 364.225 31.4106 379.654 33.5213 394.85 34.8993 403.573 35.8284 417.272 46.023 420.002 46.5026 420.094 46.9901 420.071 47.4698 419.999 47.3764 419.906 47.1632 420.047 47.0086 419.973ZM37.0737 391.838C33.9681 382.323 32.3294 372.355 32.0912 362.353 32.0919 359.412 32.1929 356.474 32.2889 353.535 31.9822 356.247 31.7689 359.144 31.6661 361.931 31.5766 380.098 37.2702 409.361 56.9696 415.599 46.7996 411.401 40.4267 402.093 37.0737 391.838ZM71.1355 368.606C71.1317 368.546 71.1285 368.485 71.1247 368.424 72.067 368.99 73.0163 369.542 73.9714 370.073 73.0152 369.439 72.058 368.791 71.1072 368.129 70.2941 355.084 69.8314 342.002 70.5818 328.939 71.6563 311.426 73.2321 293.941 75.0499 276.49 75.6964 269.913 77.2186 263.264 77.3274 256.715 76.7699 262.854 75.1954 268.863 74.3649 274.974 72.5825 288.217 71.7752 301.57 70.5324 314.872 68.9627 332.386 69.0059 350 70.2611 367.533 64.5128 363.445 59.1253 358.699 56.0888 352.144 48.3467 335.69 47.0644 315.904 47.6 297.936 47.6001 297.94 47.6001 297.944 47.6001 297.949 48.4258 282.108 51.438 266.297 57.7098 251.675 58.3534 249.955 59.1179 248.239 59.2815 246.389 59.1524 247.083 58.9705 247.914 58.7048 248.646 47.8536 271.814 44.8789 298.029 47.9562 323.305 49.7512 335.797 52.136 349.054 60.0491 359.265 62.853 362.815 66.4606 365.554 70.288 367.921 70.3412 368.655 70.3829 369.389 70.4405 370.122 71.4146 379.978 72.4723 401.703 78.1639 409.101 75.1018 403.965 74.5555 397.71 73.574 391.87 72.4013 384.158 71.7026 376.383 71.1355 368.606ZM57.3106 362.968C57.4525 363.653 57.4366 364.358 57.4226 365.064 56.8192 382.662 62.5008 402.805 74.0893 416.274 62.8785 402.061 58.0454 383.502 57.5906 365.568 57.5319 364.716 57.5943 363.73 57.3106 362.968ZM56.7769 372.895C56.8169 371.084 57.0496 369.272 56.9747 367.461 56.9461 367.17 56.9126 366.824 56.711 366.601 56.6948 366.586 56.6715 366.613 56.6945 366.617L56.697 366.617C56.7782 366.721 56.814 366.834 56.8494 366.953 56.8494 366.953 56.8461 366.953 56.8462 366.95 56.8979 370.544 56.1106 374.18 56.2071 377.808 56.2007 383.405 56.8713 388.988 58.0027 394.465 59.6508 401.526 61.6449 410.6 67.1333 415.656 60.7637 408.669 59.0575 397.49 57.551 388.356 56.849 383.241 56.5652 378.058 56.7769 372.895ZM106.006 401.764C102.802 397.8 101.002 392.729 98.9547 388.033 96.1557 381.273 93.9581 374.187 92.8114 366.952 92.4874 357.952 92.9233 348.925 94.3785 340.034 94.7319 337.984 95.2594 335.848 95.6735 333.876 95.344 334.938 95.0197 336.005 94.7344 337.078 92.6622 345.089 92.0383 353.328 92.1578 361.583 91.9134 358.594 91.864 355.587 92.0448 352.573 92.0869 351.19 92.2614 349.698 92.2887 348.382 92.1492 349.638 92.0163 350.895 91.9064 352.155 91.4026 357.126 91.6058 362.099 92.3365 367.004 92.5671 371.631 92.982 376.248 93.459 380.819 94.0616 385.986 94.8812 391.131 96.0327 396.204 97.0842 400.138 98.2561 404.225 100.85 407.447 96.1751 400.366 95.4475 391.46 94.1773 383.221 93.6464 379.114 93.2628 374.98 93.0149 370.836 94.1844 376.523 96.0227 382.092 98.2858 387.423 100.532 392.322 102.29 397.754 106.006 401.764ZM115.793 318.165C115.948 316.165 116.122 314.163 116.38 312.171 115.951 313.871 115.717 315.795 115.46 317.595 112.763 337.72 114.343 379.255 123.349 397.115 119.013 386.989 117.35 375.776 116.106 364.825 114.49 349.321 114.627 333.699 115.793 318.165ZM123.039 320.925C123.314 319.105 123.709 317.313 123.901 315.485 123.653 316.663 123.348 317.997 123.061 319.229 119.995 333.984 121.049 349.245 122.794 364.106 124.17 374.082 125.646 384.179 129.009 393.71 122.583 370.243 120.025 345.201 123.039 320.925ZM126.407 348.61C126.506 347.094 126.595 345.579 126.67 344.063 126.467 345.276 126.355 346.69 126.189 347.971 124.597 363.861 127.111 380.159 132.776 395.056 127.705 380.263 125.593 364.292 126.407 348.61ZM247.947 310.18C247.914 310.078 247.941 310.108 247.878 310.055 247.871 310.048 247.862 310.052 247.858 310.058 247.835 310.111 247.829 310.144 247.819 310.203 247.815 310.217 247.835 310.22 247.838 310.207 247.85 310.162 247.851 310.119 247.873 310.085 247.881 310.091 247.888 310.098 247.896 310.106 247.869 320.15 248.416 330.276 247.233 340.293 245.79 351.712 241.936 362.597 238.391 373.494 240.576 368.063 242.662 362.385 244.389 356.728 244.387 356.732 244.386 356.737 244.385 356.741L244.379 356.768C246.741 348.803 248.256 340.586 248.527 332.271 248.712 325.393 248.122 318.525 248.017 311.65 248.003 311.157 247.997 310.669 247.947 310.18ZM257.941 342.953C257.938 343.74 257.941 344.524 257.954 345.312L257.958 345.333C258.061 352.358 258.674 359.388 258.159 366.405 257.18 376.626 254.834 386.812 251.008 396.354 256.05 386.69 258.429 375.496 259.193 364.619 259.331 359.51 259.052 354.411 258.752 349.312 260 355.645 261.131 362 261.572 368.431 261.467 378.564 262.393 388.897 260.567 398.895 263.503 390.519 263.072 381.318 263.062 372.468 263.026 362.411 260.436 352.647 257.941 342.953ZM273.851 300.118 273.851 300.118C273.851 300.118 273.848 300.118 273.848 300.118 273.887 300.203 273.917 300.295 273.953 300.382 273.933 300.321 273.917 300.258 273.894 300.198 273.879 300.17 273.866 300.146 273.851 300.118ZM273.953 300.382C273.984 300.456 273.999 300.543 274.028 300.618 274.028 300.618 274.029 300.619 274.029 300.619 274.007 300.538 273.979 300.461 273.953 300.382ZM272.971 399.709C279.935 381.39 281.087 361.418 280.425 341.941 280.212 336.585 279.28 331.292 278.58 325.989 277.811 319.48 276.767 313.009 275.327 306.613 274.839 304.683 274.708 302.418 274.028 300.618 274.027 300.618 274.028 300.618 274.026 300.616 276.195 313.049 277.927 325.581 279.262 338.138 279.852 349.641 279.808 361.221 278.217 372.655 277.327 381.826 274.912 390.734 272.971 399.709ZM282.81 311.32C281.804 306.537 280.979 301.663 279.057 297.144 278.308 295.331 277.509 293.547 276.829 291.697 276.799 291.615 276.697 291.259 276.552 291.407 276.542 291.417 276.556 291.43 276.565 291.42 276.578 291.411 276.59 291.399 276.613 291.391 280.967 302.592 282.154 314.638 283.703 326.514 285.731 339.831 285.936 353.299 285.156 366.741 284.899 379.724 283.059 392.437 279.985 405.028 281.86 399.485 283.483 393.609 284.589 387.788 285.718 381.3 286.094 374.73 286.372 368.155 286.886 358.331 286.959 348.514 286.276 338.676 285.411 329.535 284.473 320.357 282.81 311.32ZM291.944 428.984C292.04 428.849 292.135 428.717 292.231 428.582 292.235 428.567 292.24 428.552 292.246 428.538 292.236 428.532 292.227 428.526 292.218 428.519 292.127 428.674 292.036 428.829 291.944 428.984ZM311.838 390.021C310.743 392.773 309.634 395.522 308.473 398.249 308.371 398.453 308.269 398.659 308.167 398.866 307.934 399.333 307.703 399.805 307.472 400.273 307.433 400.352 307.393 400.434 307.357 400.513 306.826 401.492 306.335 402.487 305.831 403.476 305.574 403.976 305.32 404.477 305.06 404.978 304.724 405.565 304.378 406.145 304.045 406.735 303.844 407.09 303.643 407.446 303.446 407.806 303.36 407.964 303.274 408.125 303.192 408.283 303.106 408.445 303.014 408.606 302.945 408.774 302.928 408.812 302.919 408.851 302.916 408.891 302.916 408.892 302.915 408.894 302.914 408.895 302.914 408.896 302.914 408.896 302.914 408.897 302.849 409.009 302.784 409.122 302.719 409.234 302.719 409.233 302.719 409.232 302.72 409.231 302.668 409.319 302.617 409.408 302.566 409.496 302.335 409.891 302.114 410.29 301.887 410.686 301.432 411.49 301.001 412.307 300.566 413.124 300.437 413.368 300.302 413.612 300.167 413.852 299.944 414.113 299.714 414.371 299.486 414.629 299.485 414.632 299.485 414.634 299.484 414.637 299.262 414.889 299.04 415.141 298.818 415.393 298.644 415.591 298.471 415.789 298.297 415.987 301.082 409.006 303.129 401.708 304.667 394.4 306.924 380.599 306.766 366.378 304.716 352.574 301.998 334.816 296.142 317.747 292.659 300.157 290.013 287.665 289.143 274.794 287.697 262.207 288.303 263.436 288.26 265.044 288.445 266.445 288.672 268.774 289.057 271.087 289.433 273.407 291.025 282.13 291.895 290.967 293.697 299.657 297.144 317.266 302.986 334.365 305.629 352.142 308.005 369.963 307.978 388.6 302.492 405.867 301.831 408.004 301.108 410.143 300.342 412.269 300.722 411.555 301.092 410.837 301.479 410.125 302.265 408.586 303.011 407.028 303.746 405.465 304.311 403.385 304.88 401.305 305.497 399.237 307.661 393.019 309.635 386.738 310.416 380.177 311.616 371.238 311.892 362.156 311.013 353.177 310.746 348.896 310.861 344.596 310.35 340.329 309.23 332.671 308.238 324.99 307.474 317.289 306.571 310.316 305.398 303.357 304.686 296.361 303.714 288.393 302.551 280.488 302.6 272.448 302.976 280.426 304.248 288.482 305.299 296.45 306.083 304.059 307.48 311.588 308.423 319.157 309.016 324.265 309.474 329.376 310.311 334.44 311.497 340.579 311.629 346.82 311.919 353.045 312.822 360.789 312.634 368.595 311.942 376.348 311.457 381.661 310.35 386.845 308.862 391.931 308.94 391.707 309.015 391.482 309.094 391.259 311.584 383.967 314.053 376.579 314.795 368.882 315.235 362.758 315.888 356.59 315.905 350.452 315.965 345.657 315.448 340.884 315.042 336.115 314.261 327.835 312.672 319.662 311.433 311.434 310.452 303.922 309.369 296.433 308.135 288.957 306.715 278.966 305.802 268.897 304.178 258.958 306.102 267.26 307.149 275.998 308.222 284.521 309.562 294.073 311.129 303.592 312.425 313.151 314.54 325.808 316.831 338.54 316.812 351.414 316.518 359.725 316.236 368.137 314.643 376.313 313.671 380.701 312.317 384.99 310.79 389.216 310.953 388.824 311.116 388.433 311.279 388.041 314.343 381.388 317.454 374.643 319.128 367.492 325.837 345.006 325.685 328.636 320.752 305.836 316.617 287.04 309.947 268.66 308.787 249.357 312.066 276.974 324.565 303.434 325.767 331.571 326.684 342.736 324.331 353.83 321.24 364.503 320.156 368.273 319.233 371.931 317.997 375.615 316.29 380.544 313.927 385.263 311.838 390.021ZM306.118 400.17C306.069 400.303 306.022 400.437 305.973 400.57 305.984 400.543 305.997 400.516 306.009 400.489 306.046 400.382 306.082 400.276 306.118 400.17ZM330.486 388.885C332.061 381.676 333.409 374.398 333.963 367.032 334.477 360.347 334.315 353.623 334.273 346.908 334.058 337.288 333.815 327.62 333.149 318.033 333.304 326.041 333.079 334.294 333.367 342.381 333.792 357.272 333.51 372.064 329.979 386.625 326.986 402.036 321.452 418.196 308.672 428.21 321.977 419.759 327.575 403.709 330.486 388.885ZM350.371 394.382C350.337 394.592 350.306 394.802 350.271 395.012 350.077 396.165 349.863 397.316 349.63 398.464 348.691 403.13 347.459 407.746 346.016 412.284 349.487 404.439 351.755 396.126 352.283 387.668 352.522 386.502 352.759 385.337 353.007 384.175 354.945 375.272 356.523 366.243 356.253 357.095 356.227 343.714 354.806 330.411 352.46 317.244 350.796 306.666 349.099 295.489 345.886 285.501 348.532 295.808 349.877 306.538 351.669 317.056 354.101 330.49 355.577 344.083 355.597 357.745 355.828 366.54 354.198 375.195 352.388 383.765 352.384 381.835 352.29 379.901 352.091 377.966 352.692 368.073 351.657 357.907 350.439 348.586 348.342 335.877 345.337 323.192 342.01 310.813 344.69 324.384 348.187 337.824 350.064 351.535 350.773 358.258 351.309 365.263 351.177 372.207 351.117 372.09 351.035 371.964 350.969 371.942 351.065 372.072 351.126 372.217 351.174 372.367 350.886 386.381 347.843 400.13 337.887 410.776 337.252 411.536 336.58 412.255 335.883 412.946 340.526 402.033 342.063 393.28 342.225 378.442 342.245 377.259 342.268 376.072 342.281 374.886 342.176 375.838 342.189 376.988 342.12 378.013 341.681 385.114 341.451 392.275 339.994 399.26 338.862 404.162 337.181 408.885 335.263 413.519 332.798 415.846 330.026 417.821 327.114 419.594 330.74 413.686 333.402 407.203 335.355 400.091 341.813 379.173 341.055 357.023 339.833 335.416 339.197 325.182 338.284 314.901 335.345 305.032 337.859 315.398 338.689 326.226 339.408 336.906 340.713 358.212 341.247 380.04 334.752 400.628 332.926 406.516 330.755 412.339 327.66 417.694 327.179 418.531 326.672 419.351 326.151 420.161 324.038 421.41 321.877 422.583 319.734 423.732 317.079 424.954 314.15 427.315 311.269 426.965 311.288 426.955 311.315 426.968 311.335 426.975 312.737 427.453 314.283 426.862 315.632 426.411 317.801 425.594 319.953 424.742 322.087 423.838 322.848 423.53 323.583 423.208 324.304 422.879 324.303 422.882 324.301 422.884 324.299 422.887 324.629 422.739 324.955 422.587 325.275 422.432 325.277 422.428 325.28 422.424 325.283 422.42 328.418 420.912 331.189 419.192 333.692 417.195 333.692 417.197 333.691 417.198 333.69 417.2 333.849 417.074 334.004 416.946 334.158 416.817 334.161 416.812 334.163 416.807 334.166 416.801 338.195 413.487 341.554 409.446 344.708 404.423 348.404 398.275 350.464 391.406 351.47 384.26 351.344 386.628 351.123 388.989 350.816 391.342 350.684 392.357 350.535 393.371 350.371 394.382ZM306.197 170.715C306.224 170.753 306.253 170.792 306.279 170.83 306.256 170.792 306.23 170.755 306.206 170.717 306.203 170.716 306.2 170.716 306.197 170.715ZM315.068 225.806C315.068 225.807 315.067 225.807 315.067 225.808 315.067 225.808 315.067 225.808 315.07 225.808 315.075 225.818 315.08 225.828 315.085 225.839 315.081 225.828 315.077 225.818 315.073 225.807 315.071 225.807 315.07 225.807 315.068 225.806ZM387.175 324.655C385.749 332.995 382.302 340.873 378.196 348.225 374.526 355.229 369.343 361.355 363.705 366.794 363.012 367.584 362.272 368.318 361.524 368.99 360.96 372.712 360.264 376.415 359.443 380.081 357.683 387.255 355.177 394.242 352.372 401.066 350.992 404.369 349.461 407.645 347.356 410.555 347.195 410.742 347.033 410.99 346.784 411.048 346.747 411.048 346.718 411.027 346.707 410.967 346.731 410.928 346.732 411.001 346.749 411.011 346.764 411.017 346.779 411.02 346.796 411.026 350.622 405.953 352.128 399.345 354.384 393.44 357.811 383.866 360.329 373.944 361.351 363.82 362.715 354.162 361.905 344.408 361.018 334.746 360.166 324.722 358.874 314.733 357.008 304.846 355.812 298.478 354.61 292.11 353.511 285.724 353.513 285.747 353.517 285.769 353.519 285.791 352.363 279.434 350.182 273.294 349.025 266.95 348.768 268.094 348.491 269.231 348.174 270.35 347.32 273.686 345.72 276.756 344.01 279.719 343.481 283.646 342.482 287.51 340.961 291.2 342.012 287.931 342.744 284.571 343.16 281.177 343.105 281.271 343.049 281.365 342.994 281.459 342.837 283.026 342.486 284.601 341.887 286.179 342.265 284.846 342.478 283.515 342.564 282.189 342.323 282.597 342.081 283.004 341.845 283.409 342.083 282.867 342.334 282.33 342.59 281.795 343.052 271.331 335.186 261.181 329.783 252.779 324.219 244.21 318.423 235.54 315.085 225.839 319.204 235.148 325.724 244.363 331.332 253.243 336.5 261.329 343.716 270.934 343.047 280.855 343.109 280.729 343.169 280.602 343.231 280.476 344.308 270.654 342.746 260.576 338.517 251.589 335.048 245.091 330.651 239.036 327.003 232.668 322.976 225.718 319.669 218.351 317.662 210.567 320.084 217.368 323.124 224.103 326.809 230.401 330.85 237.555 335.772 244.2 339.614 251.461 343.477 259.698 345.09 268.944 344.216 277.938 347.479 262.148 342.729 248.233 334.036 234.848 329.991 228.697 325.896 222.548 322.704 215.898 320.799 211.827 318.512 207.846 317.443 203.451 317.393 203.396 317.377 203.221 317.36 203.132 317.354 203.112 317.384 203.102 317.389 203.122 318.076 205.714 319.311 208.104 320.605 210.447 324.281 217.294 328.21 223.989 332.319 230.584 342.197 245.047 349.114 261.092 344.187 278.531 345.277 276.296 346.297 274.034 346.877 271.596 347.713 268.359 348.34 265.017 348.701 261.647 348.451 261.982 348.209 262.325 347.948 262.65 348.216 262.247 348.468 261.829 348.724 261.416 349.199 256.822 349.164 252.178 348.353 247.67 348.284 247.402 348.193 247.144 348.118 246.878 348.092 246.929 348.073 246.979 348.046 247.029 348.07 246.969 348.087 246.91 348.11 246.85 347.18 243.545 345.849 240.416 344.283 237.382 340.759 229.25 336.891 221.284 332.937 213.357 332.03 212.222 331.13 211.081 330.259 209.919 329.379 208.683 328.298 207.609 327.346 206.429 328.686 207.758 330.116 209.24 331.339 210.756 331.567 211.017 331.8 211.276 332.03 211.536 331.865 211.207 331.703 210.876 331.538 210.548 331.781 210.97 332.041 211.404 332.292 211.831 337.488 217.697 343.022 223.364 346.563 230.441 349.095 235.113 350.613 239.843 349.02 244.731 349.276 245.535 349.514 246.347 349.701 247.175 350.406 250.967 350.552 254.868 350.265 258.746 355.22 249.347 357.027 237.831 352.94 227.909 351.187 223.62 348.305 219.884 345.549 216.211 341.028 210.328 335.935 204.885 330.437 199.906 321.048 191.486 312.928 181.51 306.28 170.83 311.655 178.608 318.838 186.587 325.491 193.836 330.222 198.547 335.369 202.772 339.766 207.811 344.899 213.702 350.091 219.802 353.546 226.857 357.206 234.856 356.885 244.157 353.798 252.347 353.997 252.797 354.2 253.347 354.384 253.694 354.737 254.514 355.407 255.345 355.623 256.149 355.47 255.879 355.313 255.608 355.157 255.337 359.848 265.482 364.817 280.728 367.776 292.606 372.899 313.068 375.053 327.785 362.657 345.981 363.174 353.588 362.687 361.209 361.56 368.747 362.182 367.959 362.843 367.206 363.531 366.476 367.778 361.17 371.928 355.76 375.296 349.814 379.943 341.642 384.263 332.982 385.834 323.64 386.698 316.394 385.363 309.201 383.755 302.159 381.383 292.642 378.13 283.422 375.573 273.959 369.925 256.979 366.386 239.376 360.017 222.63 355.95 210.573 351.812 198.549 347.264 186.663 344.17 179.621 342.354 172.153 340.131 164.814 337.882 164.89 335.632 164.929 333.397 164.929 332.853 164.929 332.31 164.926 331.769 164.923 322.299 164.432 313.02 161.555 304.413 157.68 300.834 155.957 297.802 153.284 294.445 151.248 297.667 152.951 300.943 155.531 304.505 156.932 311.253 159.502 318.289 161.186 325.35 162.623 329.818 163.41 334.336 163.654 338.86 163.769 339.012 163.783 339.167 163.792 339.322 163.806 339.345 163.809 339.368 163.809 339.388 163.812 339.42 163.816 339.453 163.822 339.486 163.825 339.618 163.849 339.753 163.868 339.885 163.885 339.941 163.895 340 163.908 340.056 163.908 340.063 163.908 340.073 163.908 340.079 163.905 340.116 163.901 340.149 163.888 340.182 163.875 340.274 163.885 340.366 163.891 340.458 163.895 340.538 163.898 340.603 163.865 340.646 163.806 341.247 163.817 341.848 163.826 342.449 163.836 341.868 163.714 341.293 163.577 340.725 163.412 340.706 163.395 340.679 163.382 340.65 163.376 340.613 163.369 340.574 163.362 340.538 163.356 334.89 161.655 329.95 157.906 325.268 154.426 314.974 146.376 306.004 136.642 298.913 125.665 287.805 108.208 279.438 88.865 265.819 73.104 260.511 66.7971 253.37 58.7766 245.241 56.5655 251.36 56.9082 262.01 65.9831 267.263 72.5141 283.785 91.0034 292.148 115.025 307.368 134.421 313.35 141.956 329.082 157.905 340.264 162.507 337.361 153.636 334.56 144.708 331.947 135.741 330.779 131.176 329.605 126.617 328.053 122.188 322.363 110.696 316.576 99.2563 310.861 87.775 302.872 71.4772 293.035 55.9397 280.069 43.1651 280.325 43.4402 280.59 43.7064 280.843 43.9849 269.576 34.5112 257.523 25.8186 244.236 19.4194 228.653 12.0151 212.22 6.07717 195.155 3.31245 187.282 2.11075 174.872 0.535695 164.418 0.943542 164.392 0.959249 164.368 0.977062 164.341 0.992593 160.618 3.20697 156.766 5.25981 153.388 8.00146 149.787 10.9309 146.775 14.4138 143.457 17.6366 139.123 21.9336 133.871 25.8152 131.432 31.5653 131.426 31.5686 131.416 31.5686 131.413 31.5587 133.772 24.5267 139.822 19.6829 144.63 14.315 147.111 11.6591 149.691 9.079 152.624 6.92727 156.456 4.08023 160.928 2.3338 165.172 0.211646 165.32 0.201818 165.462 0.188568 165.61 0.182075 165.608 0.183742 165.605 0.185146 165.603 0.186813 172.079-0.258064 178.63 0.156365 185.078 0.77849 201.811 2.22509 218.122 6.70316 233.646 13.0266 249.803 19.5207 265.412 28.4069 277.748 40.7548 278.251 41.1278 278.727 41.5499 279.178 41.9289 282.722 45.1686 286.418 48.3002 289.767 51.7401 298.917 61.9116 306.023 73.7286 312.216 85.8635 317.776 96.718 323.341 107.748 327.303 119.275 331.072 126.86 333.979 134.884 336.353 142.984 337.959 149.422 339.077 156.093 340.355 162.545 340.823 162.736 341.286 162.913 341.737 163.062 341.775 163.103 341.829 163.13 341.888 163.128L341.928 163.128C341.929 163.128 341.931 163.128 341.931 163.128 341.935 163.128 341.938 163.128 341.942 163.129 341.945 163.131 341.948 163.132 341.951 163.132 342.414 163.278 342.868 163.402 343.31 163.501 343.604 163.584 343.898 163.666 344.192 163.748 344.405 163.808 344.621 163.862 344.836 163.92 345.307 164.046 345.779 164.168 346.254 164.277 346.406 164.31 346.558 164.349 346.713 164.379 346.842 164.404 346.972 164.429 347.101 164.455 344.86 164.613 342.599 164.729 340.338 164.808 341.606 167.913 343.229 172.418 344.414 175.766 346.457 181.259 348.961 186.541 350.839 192.097 356.065 205.989 360.553 220.149 365.401 234.176 369.464 246.418 372.077 259.075 376.103 271.329 378.515 279.666 380.815 288.042 383.481 296.307 385.923 305.51 388.289 315.075 387.175 324.655ZM325.489 193.834C325.486 193.831 325.484 193.829 325.482 193.827 325.48 193.825 325.479 193.824 325.477 193.823 325.481 193.826 325.485 193.83 325.489 193.834ZM348.866 244.257C349.818 239.547 348.365 235.234 345.818 230.902 342.554 224.974 338.173 219.844 333.941 214.61 337.54 220.599 341.534 227.03 344.174 233.549 345.795 237.082 347.631 240.566 348.866 244.257ZM362.464 343.32C362.547 344.147 362.586 344.974 362.644 345.801 369.731 332.339 372.597 319.203 368.977 304.118 365.923 287.401 360.713 271.16 354.792 255.254 354.348 254.388 353.957 253.51 353.691 252.61 352.759 255.03 351.577 257.342 350.192 259.499 349.984 261.85 349.617 264.186 349.121 266.485 350.85 271.442 352.261 276.665 353.044 281.894 354.691 289.348 356.206 296.938 357.637 304.457 360.193 317.277 361.533 330.292 362.464 343.32ZM339.599 163.062C339.616 163.116 339.633 163.17 339.65 163.224 339.657 163.225 339.664 163.226 339.672 163.227 339.647 163.171 339.623 163.116 339.599 163.062Z" fill="#000000" fill-rule="nonzero" fill-opacity="1" transform="matrix(1.00092 0 0 1 98.0601 55.775)"/></g></g></g></g></svg>