<svg width="433" height="361" xmlns="http://www.w3.org/2000/svg" xmlns:xlink="http://www.w3.org/1999/xlink" xml:space="preserve" overflow="hidden"><defs><clipPath id="clip0"><rect x="596" y="628" width="433" height="361"/></clipPath><clipPath id="clip1"><rect x="597" y="628" width="432" height="361"/></clipPath><clipPath id="clip2"><rect x="597" y="628" width="432" height="361"/></clipPath><clipPath id="clip3"><rect x="597" y="628" width="432" height="361"/></clipPath></defs><g clip-path="url(#clip0)" transform="translate(-596 -628)"><g clip-path="url(#clip1)"><g clip-path="url(#clip2)"><g clip-path="url(#clip3)"><path d="M418.323 255.884C401.822 301.28 363.141 329.128 363.141 329.128 363.141 329.128 363.958 326.129 364.57 322.11 365.413 316.565 365.838 309.078 363.141 304.882 363.141 304.882 361.784 308.714 358.91 313.514 358.927 313.522 358.936 313.522 358.954 313.54 359.584 313.957 359.761 314.809 359.344 315.448 347.962 332.605 334.894 333.563 334.344 333.599 334.318 333.599 334.291 333.599 334.264 333.599 333.856 333.599 333.466 333.413 333.2 333.093 332.925 332.756 332.818 332.295 332.934 331.869 336.873 316.885 336.252 302.628 334.752 292.355 330.157 302.823 311.526 343.757 300.738 345.114 300.738 345.114 301.138 335.418 299.94 321.844 298.183 302.034 292.985 273.991 278.107 255.777 277.362 261.499 276.075 267.514 273.831 271.995 268.171 283.288 264.188 285.737 263.753 285.976 263.549 286.091 263.318 286.154 263.087 286.154 262.866 286.154 262.644 286.1 262.44 285.985 262.032 285.763 261.757 285.346 261.721 284.885 261.703 284.708 260.231 266.166 253.657 214.844 249.611 183.252 237.803 155.262 229.322 138.415 208.935 114.417 208.438 148.617 208.438 148.617 208.438 148.617 192.638 135.469 184.121 139.506 177.148 153.204 167.886 177.077 164.107 212.218 157.994 269.067 166.263 298.858 192.647 315.066 193.295 315.465 193.499 316.308 193.099 316.956 192.842 317.382 192.39 317.612 191.928 317.612 191.68 317.612 191.431 317.55 191.21 317.408 190.633 317.053 190.074 316.681 189.506 316.308 180.599 316.228 149.007 312.715 127.849 268.969 116.945 276.209 109.786 277.495 109.378 277.566 109.298 277.575 109.227 277.584 109.147 277.584 108.651 277.584 108.18 277.309 107.941 276.865 107.666 276.35 107.746 275.712 108.145 275.277 113.37 269.626 117.859 262.023 121.621 253.985 116.626 239.95 112.634 222.748 110.265 201.714 104.552 220.663 97.4546 245.566 95.0947 259.707 90.9694 284.459 93.9414 301.164 93.968 301.324 94.1011 302.034 93.6487 302.717 92.9655 302.894 93.1075 303.4 93.2583 303.897 93.4269 304.385 93.4269 304.385 93.1252 303.879 92.6373 302.939 92.6284 302.939 92.6284 302.939 92.6196 302.939 91.9719 302.939 91.3953 302.477 91.2711 301.812 91.2444 301.67 91.0936 300.836 90.9162 299.408 88.6806 294.52 85.5223 286.384 83.952 276.625 83.1447 293.171 82.6301 315.306 84.7327 327.14 84.8658 327.886 84.369 328.604 83.6237 328.737 83.606 328.737 83.5971 328.737 83.5794 328.737 84.1206 332.339 84.8125 335.471 85.6908 337.911 85.6908 337.911 65.1176 334.468 53.5224 317.666 53.4958 317.648 53.4692 317.639 53.4425 317.612 52.8215 317.213 48.5986 314.108 46.5671 304.207 46.6469 306.656 46.7711 309.938 47.0372 313.567 47.7204 323.796 49.3616 336.748 53.1675 341.486 52.3602 340.812 31.8402 323.308 20.449 284.007 17.0956 272.438 14.5228 258.989 13.4937 243.526 13.4937 243.526 13.263 243.117 12.8638 242.328 9.90958 236.473-2.43082 209.574 0.461323 173.52 0.762958 169.669 1.25977 165.713 1.93401 161.667 1.22428 161.552 0.7186 160.895 0.789573 160.177 6.11253 109.697 64.1683 58.6147 64.7538 58.109 65.3305 57.6122 66.191 57.6654 66.6967 58.2421 78.6823 47.8534 91.8743 38.2544 105.794 30.0126 112.953 25.772 120.299 21.904 127.778 18.4618 127.476 17.7964 127.751 16.998 128.416 16.6697 193.986-15.889 243.898 8.88048 248.946 11.5774 252.122 11.2137 271.311 9.4039 295.274 15.4455 319.404 21.5225 353.507 37.0212 378.951 76.2869 379.359 76.9168 379.181 77.7596 378.56 78.1766 390.191 95.4496 399.825 114.914 407.162 134.795 407.162 134.795 407.162 134.813 407.18 134.848 423.841 180.102 428.649 227.486 418.323 255.884Z" fill="#121119" fill-rule="nonzero" fill-opacity="1" transform="matrix(1.00215 0 0 1 599.401 643.887)"/><path d="M92.6196 302.93C93.1075 303.87 93.4091 304.376 93.4091 304.376 93.2494 303.888 93.0986 303.391 92.9478 302.885 92.9123 302.894 92.8857 302.912 92.8502 302.912 92.7704 302.921 92.6994 302.93 92.6196 302.93Z" fill="#343244" fill-rule="nonzero" fill-opacity="1" transform="matrix(1.00215 0 0 1 599.401 643.887)"/><path d="M407.145 134.831C407.127 134.786 407.127 134.777 407.127 134.777 399.799 114.887 390.164 95.4318 378.525 78.1588 378.516 78.1588 378.516 78.1677 378.507 78.1677 378.276 78.3185 378.019 78.3895 377.762 78.3895 377.309 78.3895 376.866 78.1677 376.608 77.7596 351.679 39.2835 318.295 24.0864 294.679 18.1158 269.04 11.6307 249.026 14.301 248.831 14.3276 248.529 14.372 248.219 14.3099 247.952 14.1591 247.456 13.8663 197.083-14.3897 129.605 19.1094 128.922 19.4466 128.097 19.1715 127.76 18.4884 127.751 18.4707 127.751 18.4529 127.742 18.4441 120.272 21.8862 112.918 25.7631 105.758 29.9949 113.867 35.0251 125.152 41.0844 139.879 46.9663 182.684 12.1452 237.511 20.7152 238.114 20.8128 238.859 20.937 239.365 21.6467 239.241 22.3919 239.116 23.146 238.407 23.6606 237.661 23.5275 237.076 23.4299 184.458 15.2325 142.824 48.1196 177.929 61.6665 231.558 73.8561 307.162 69.8728 307.135 69.8461 307.108 69.8195 307.073 69.784 284.672 48.0131 263.398 40.5077 263.185 40.4368 262.466 40.1884 262.085 39.4077 262.333 38.6891 262.582 37.9705 263.362 37.589 264.081 37.8374 264.968 38.139 286.047 45.5557 308.892 67.7081 309.548 68.3468 310.205 68.9945 310.87 69.6598 314.232 69.4647 317.63 69.234 321.081 68.9678 321.081 68.9678 318.313 70.1833 313.274 72.135 333.439 93.3293 356.701 129.605 362.378 187.084 362.449 187.838 361.899 188.513 361.145 188.593 361.101 188.601 361.057 188.601 361.012 188.601 360.311 188.601 359.717 188.069 359.646 187.359 353.977 129.863 330.512 93.9325 310.497 73.2085 272.766 87.5184 142.265 130.146 51.9432 74.5037 34.4484 93.0543 7.03518 126.97 3.50428 160.443 3.43331 161.153 2.83004 161.676 2.13806 161.676 2.0937 161.676 2.04047 161.676 1.99611 161.667 1.9695 161.667 1.94288 161.658 1.91627 161.65 1.23315 165.695 0.745215 169.652 0.44358 173.502 2.04047 188.362 6.94647 206.948 20.662 216.707 30.2344 198.28 43.8701 183.97 44.6242 183.19 45.1476 182.64 46.0259 182.631 46.5671 183.154 47.1171 183.678 47.1348 184.547 46.6025 185.097 46.363 185.346 22.7024 210.159 15.9511 235.967 15.7915 236.588 15.2325 236.996 14.6204 236.996 14.5051 236.996 14.3897 236.978 14.2744 236.952 14.2567 236.952 14.2478 236.943 14.2389 236.934 13.751 238.664 13.2719 240.456 12.8461 242.31 13.2453 243.091 13.476 243.508 13.476 243.508 14.5051 258.98 17.0778 272.429 20.4313 283.989 25.0357 293.02 33.0556 303.994 47.0106 313.558 46.7534 309.93 46.6292 306.638 46.5404 304.198 46.1146 302.078 45.7864 299.647 45.6089 296.853 45.6089 296.853 61.0899 313.265 81.601 324.985 78.6468 303.036 82.3462 257.321 82.5148 255.307 82.5769 254.553 83.2423 253.985 83.9963 254.047 84.7504 254.109 85.3182 254.775 85.2561 255.529 85.2384 255.742 84.5109 264.738 83.9342 276.617 85.5045 286.375 88.6628 294.511 90.8985 299.399 90.2065 293.881 89.0266 279.287 92.3711 259.237 96.5497 234.175 115.393 175.88 115.588 175.294 115.819 174.575 116.599 174.176 117.318 174.407 118.037 174.638 118.436 175.418 118.205 176.137 118.125 176.385 114.586 187.333 110.256 201.696 112.625 222.739 116.617 239.933 121.612 253.967 131.38 233.093 136.241 209.272 136.303 208.944 136.454 208.199 137.173 207.711 137.918 207.862 138.663 208.013 139.142 208.731 139 209.476 138.645 211.277 130.439 251.492 113.202 273.529 118.365 271.595 127.769 266.982 139.133 256.505 156.14 240.829 151.642 204.632 144.607 195.894 144.128 195.299 144.226 194.439 144.811 193.96 145.406 193.481 146.266 193.57 146.745 194.164 154.446 203.719 159.396 241.565 140.996 258.519 136.215 262.928 131.779 266.317 127.831 268.943 148.99 312.689 180.582 316.202 189.489 316.282 163.752 299.381 155.324 267.976 161.357 211.898 167.842 151.616 189.684 124.682 190.615 123.564 191.103 122.978 191.964 122.898 192.549 123.386 193.135 123.865 193.215 124.735 192.736 125.32 192.647 125.427 188.921 130.04 184.112 139.479 192.629 135.443 208.429 148.59 208.429 148.59 208.429 148.59 208.926 114.39 229.313 138.388 224.079 128 220.113 121.834 220.016 121.674 219.599 121.035 219.785 120.184 220.415 119.776 221.054 119.367 221.905 119.545 222.322 120.175 222.597 120.592 249.762 162.776 256.38 214.471 261.57 254.961 263.593 275.091 264.223 281.904 265.802 280.183 268.322 276.856 271.382 270.744 276.794 259.938 276.333 238.469 276.324 238.256 276.306 237.502 276.909 236.863 277.663 236.845 278.462 236.81 279.056 237.431 279.074 238.185 279.092 238.735 279.26 246.888 278.116 255.759 292.994 273.982 298.192 302.016 299.949 321.826 316.876 302.894 332.472 281.026 332.472 281.026 332.472 281.026 332.481 281.026 332.481 281.035 331.763 278.284 331.204 276.705 331.177 276.643 330.92 275.925 331.292 275.144 332.002 274.887 332.721 274.629 333.501 275.002 333.759 275.712 333.856 275.978 342.941 301.652 336.118 330.476 339.978 329.527 348.991 326.076 357.055 313.913 357.464 313.292 358.289 313.114 358.918 313.505 361.784 308.705 363.15 304.873 363.15 304.873 365.847 309.069 365.421 316.557 364.579 322.101 422.022 256.132 407.499 137.696 407.145 134.831ZM352.167 88.5209C351.999 88.5918 351.83 88.6185 351.653 88.6185 351.111 88.6185 350.588 88.2902 350.375 87.7579 326.191 27.5197 257.764 26.3664 257.081 26.3575 256.318 26.3487 255.706 25.7277 255.715 24.9736 255.724 24.2195 256.336 23.6073 257.09 23.6073 257.09 23.6073 257.099 23.6073 257.099 23.6073 257.809 23.6162 328.063 24.7961 352.93 86.7288 353.214 87.4297 352.868 88.237 352.167 88.5209Z" fill="#343244" fill-rule="nonzero" fill-opacity="1" transform="matrix(1.00215 0 0 1 599.401 643.887)"/><path d="M313.283 72.1439C318.322 70.1833 321.09 68.9767 321.09 68.9767 317.639 69.2429 314.241 69.4647 310.879 69.6687 311.677 70.4672 312.476 71.3011 313.283 72.1439Z" fill="#47465B" fill-rule="nonzero" fill-opacity="1" transform="matrix(1.00215 0 0 1 599.401 643.887)"/><path d="M66.6701 58.2243 66.6701 58.2243C78.6556 47.8357 91.8477 38.2366 105.767 29.9949 113.876 35.0251 125.161 41.0844 139.887 46.9663 135.789 50.302 131.797 54.0192 127.982 58.1977 127.467 58.7566 127.512 59.6261 128.07 60.1406 128.337 60.3801 128.665 60.5043 129.002 60.5043 129.375 60.5043 129.747 60.3535 130.013 60.0608 134.112 55.5806 138.415 51.6239 142.842 48.1285 177.947 61.6754 231.575 73.865 307.179 69.8816 308.271 70.9462 309.388 72.064 310.506 73.2262 272.775 87.5361 142.274 130.164 51.9521 74.5215 60.2737 65.6765 66.3507 60.3269 66.537 60.1583 67.1137 59.6615 67.1758 58.7921 66.6701 58.2243Z" fill="#47465B" fill-rule="nonzero" fill-opacity="1" transform="matrix(1.00215 0 0 1 599.401 643.887)"/></g></g></g></g></svg>