<svg width="186" height="132" xmlns="http://www.w3.org/2000/svg" xmlns:xlink="http://www.w3.org/1999/xlink" xml:space="preserve" overflow="hidden"><defs><clipPath id="clip0"><rect x="368" y="832" width="186" height="132"/></clipPath></defs><g clip-path="url(#clip0)" transform="translate(-368 -832)"><path d="M208.161 113.684C208.888 114.515 210.347 114.864 210.347 114.864 212.573 114.675 209.217 109.911 207.192 107.509 203.341 102.94 200.025 93.766 196.039 89.1152 193.018 85.5905 189.543 82.5252 186.053 79.4402 183.069 76.8016 179.01 74.779 176.253 72.0112 178.198 68.8924 178.683 68.0491 175.004 67.3849 177.326 61.9173 173.867 65.2137 171.236 66.2745 170.303 62.2252 167.876 62.2252 166.644 66.632 152.606 59.5827 138.36 55.207 122.356 56.3594 113.876 56.969 105.524 58.561 97.1219 59.7264 94.7261 60.0589 89.7936 59.6845 87.9198 61.3508 85.775 63.2599 84.9517 65.849 87.8867 67.3577 79.7351 68.5204 72.1492 67.9369 64.6229 71.6603 62.9647 72.4797 44.3471 82.2238 51.9818 83.2117 48.2139 85.4014 45.0209 89.2847 40.4892 90.0718 39.2985 90.2779 35.1231 94.8349 37.5761 95.3803 37.5738 95.383 37.5738 95.383 37.5715 95.3842 35.6055 95.777 40.9097 95.4153 42.1497 95.255 42.1674 95.2327 42.1828 95.2093 42.2004 95.187 42.511 95.1885 42.4445 95.217 42.1497 95.255 38.9679 99.5442 36.237 104.126 32.9456 108.341 32.1965 109.301 26.7558 116.066 32.2711 114.132 31.6815 116.363 33.7048 115.236 35.1012 115.982 34.9774 118.854 36.1624 121.8 35.2838 124.532 34.5857 126.686 29.8161 138.953 35.6558 132.279 33.8547 170.43 46.6526 177.853 49.066 181.777 51.4795 185.7 50.2572 153.669 58.8647 142.366 60.1904 140.626 59.9966 147.906 61.4853 146.219 67.8047 139.074 79.9553 126.903 88.466 121.126 90.6522 119.642 87.3471 127.144 89.6264 125.776 112.399 112.1 139.904 95.0409 160.278 98.7912 168.697 110.895 179.553 126.274 184.431 140.692 184.748 141.635 186.01 135.154 186.315 136.088 193.163 157.001 191.357 182.678 192.967 184.967 194.381 186.983 200.793 171.703 204.412 143.478 208.174 144.728 212.708 146.973 211.195 143.362 208.418 136.736 211.708 125.873 208.161 113.684" fill="#623B24" fill-rule="nonzero" fill-opacity="1" transform="matrix(1 0 0 1.00171 341.269 776.694)"/></g></svg>