<svg width="432" height="333" xmlns="http://www.w3.org/2000/svg" xmlns:xlink="http://www.w3.org/1999/xlink" xml:space="preserve" overflow="hidden"><defs><clipPath id="clip0"><rect x="324" y="373" width="432" height="333"/></clipPath><clipPath id="clip1"><rect x="324" y="374" width="432" height="332"/></clipPath><clipPath id="clip2"><rect x="324" y="374" width="432" height="332"/></clipPath><clipPath id="clip3"><rect x="324" y="374" width="432" height="332"/></clipPath><linearGradient x1="206.225" y1="354.312" x2="206.225" y2="28.6164" gradientUnits="userSpaceOnUse" spreadMethod="pad" id="fill4"><stop offset="0" stop-color="#A97C50" stop-opacity="1"/><stop offset="1" stop-color="#3C2415" stop-opacity="1"/></linearGradient></defs><g clip-path="url(#clip0)" transform="translate(-324 -373)"><g clip-path="url(#clip1)"><g clip-path="url(#clip2)"><g clip-path="url(#clip3)"><path d="M234.762 16.4133C235.585 16.44 236.863 16.2145 237.667 16.2056 216.435 4.38674 190.053 5.54465 171.601 22.0634 188.597 20.1549 205.82 16.6563 222.782 16.4773 226.804 16.1262 230.723 16.2799 234.762 16.4133ZM411.931 126.768C411.816 129.759 412.553 136.838 409.958 138.487 410.571 158.524 402.772 178.469 386.653 190.926 384.608 209.772 381.98 228.929 375.535 246.806 372.398 256.311 368.626 265.405 365.162 274.854 361.05 286.073 362.5 297.884 359.487 309.076 359.667 310.032 355.785 310.417 355.35 311.317 354.737 312.099 353.688 314.015 352.613 313.948 352.051 314.415 351.767 315.738 350.866 315.424 350.025 314.428 351.373 312.295 351.452 311.037 354.368 297.625 356.644 283.809 357.176 270.104 357.119 270.042 357.061 269.975 357.003 269.904 358.51 256.997 351.475 245.743 347.755 234.125 342.945 218.62 344.171 201.908 343.333 185.908 338.626 188.138 333.516 189.436 328.344 188.348 328.353 188.268 328.384 188.184 328.437 188.117 328.437 188.112 328.437 188.112 328.437 188.108L328.442 188.108C339.378 184.375 347.156 174.849 351.288 164.279 339.302 175.69 322.103 180.115 306.053 177.567 302.692 180.796 298.711 183.259 294.183 184.402 294.147 184.353 294.125 184.304 294.116 184.255 294.183 184.206 294.254 184.153 294.325 184.1L294.321 184.095C294.831 183.704 295.333 183.295 295.823 182.878 295.827 182.878 295.832 182.873 295.836 182.873 296.666 182.177 297.458 181.449 298.236 180.7 299.037 179.787 300.76 178.841 300.858 177.66 304.811 173.26 307.971 168.017 309.488 162.36 309.225 162.574 309.078 162.733 308.862 162.955 302.699 173.392 290.482 179.617 278.425 180.153 277.652 179.927 277.692 179.513 278.056 179.238 299.532 163.951 309.955 128.03 294.428 105.05 294.756 107.294 295.023 109.552 295.148 111.823 296.036 111.792 295.801 112.961 295.841 113.552 296.502 130.157 291.852 147.731 280.002 159.72 279.768 160.136 279.377 160.765 278.847 160.369 278.243 159.831 279.091 159.191 279.318 158.667 284.038 150.916 286.1 141.784 286.953 132.834 276.562 155.782 251.076 169.094 226.345 164.127 225.666 164.355 225.013 163.369 225.835 163.062 226.502 162.989 227.249 162.64 227.826 162.413 245.591 150.754 257.431 128.682 254.454 107.272 255.029 132.21 235.848 153.66 213.2 161.644 215.911 160.315 218.404 158.782 220.702 157.076 218.004 158.724 215.045 160.231 211.849 161.635 218.795 157.276 224.15 151.241 228.208 144.308 225.383 147.997 222.053 152.054 217.893 154.125 210.094 159.065 200.47 161.327 191.585 158.489 190.819 158.403 189.995 158.933 189.185 158.885 189.19 158.885 189.194 158.885 189.198 158.889 189.158 158.889 189.123 158.885 189.083 158.885 189.077 158.736 189.155 158.592 189.238 158.489 189.345 158.442 189.427 158.336 189.518 158.262L189.518 158.258C190.31 157.625 191.06 156.927 191.776 156.209 193.018 154.8 194.837 153.208 195.438 151.49 195.814 150.989 196.128 150.436 196.495 149.934 196.495 149.93 196.5 149.93 196.5 149.926 197.06 148.833 198.353 147.602 198.215 146.375 198.199 146.369 198.19 146.348 198.171 146.344 204.755 131.086 204.709 112.009 197.695 96.8734 197.673 112.893 191.715 130.343 177.591 139.149 177.404 138.896 177.6 138.482 177.853 138.273 181.713 120.498 183.604 98.7046 170.734 83.9903 170.367 83.2573 169.038 82.7621 169.214 81.915 162.601 75.1341 154.144 69.9955 144.683 68.5608 143.435 69.1771 141.718 68.5613 140.337 68.9074 136.217 76.8259 134.622 86.6459 136.697 95.3179 137.113 95.7413 137.549 96.9006 136.639 96.8868 132.91 92.1249 126.864 87.1735 120.104 88.9542 112.137 103.237 114.851 121.62 121.961 135.705 126.37 142.483 132.327 149.56 140.013 153.503 140.23 153.512 140.448 153.618 140.581 153.77 140.081 153.994 139.569 154.199 139.066 154.427 138.505 154.69 137.864 154.885 137.337 155.223 120.653 161.323 93.0116 138.756 96.7682 121.657 96.7415 117.911 97.1948 114.174 97.6837 110.45 82.2846 128.184 83.2176 158.932 105.998 169.741 106.185 169.826 106.323 169.994 106.318 170.186 97.7823 173.086 87.7755 169.019 81.0054 163.604 82.1401 180.501 83.0132 197.365 82.3025 214.301 81.4986 219.858 83.0056 226.494 80.7299 231.517 66.879 255.795 69.1983 263.544 71.3842 290.08 72.4829 290.808 71.6033 292.416 70.8107 291.173 69.4866 289.542 67.549 288.32 67.1801 286.133 66.3535 282.187 64.2453 279.642 62.2188 276.198 62.2188 276.18 61.6408 275.156 61.3428 274.726 58.3204 271.222 56.367 268.98 52.2516 266.872 49.7631 265.598 47.0631 265.141 44.2776 264.832 44.1976 265.027 44.0998 265.174 43.9844 265.267 43.6486 265.071 43.5691 263.617 43.5826 263.313 43.3988 263.117 43.3648 262.836 43.6537 262.629 43.3579 254.207 40.9924 245.821 38.5654 237.801 37.2424 237.354 37.6314 235.214 36.2723 234.743 32.3705 232.779 29.0864 229.815 25.8823 226.895 20.1585 221.651 16.0078 214.63 14.559 206.977 13.9152 202.979 11.048 195.805 14.1635 192.734 14.1679 192.725 14.1724 192.717 14.1813 192.712 8.3802 190.029 4.65307 182.404 2.23982 176.59-1.91578 164.725 1.87238 150.678 8.48422 140.695 3.78875 129.428 2.3793 116.182 7.37765 104.77 11.7849 93.6618 18.2263 81.1473 31.6996 80.3106 39.785 66.2376 51.6822 50.5086 64.3272 41.1058 64.3005 40.3059 65.1271 39.6571 66.2559 39.1371 66.7674 38.2839 67.9221 38.251 68.7934 38.0128 69.22 37.5062 69.9622 37.6084 70.5576 37.5551 74.8976 37.4795 79.4398 37.1761 83.7518 37.6484 91.6293 23.1659 106.003 13.0207 120.183 5.21986 123.5 3.77864 128.435-0.100012 131.804 2.32771 140.652 5.74367 148.537 11.6138 157.322 15.3219 183.387 2.03311 203.955-4.40923 232.278 7.94938 234.728 9.89368 237.314 11.3011 239.958 12.9924 240.34 12.8946 241.415 14.0422 241.797 14.2511 258.224 9.34553 278.716 3.79561 292.859 16.5262 294.196 17.3618 299.742 20.1081 301.475 22.2324 309.181 16.9752 331.896 27.2737 336.369 34.8532 340.173 37.7907 345.253 38.5817 349.395 41.0614 361.498 49.0223 370.495 61.2303 377.721 73.578 401.368 80.1267 410.89 104.155 411.931 126.768Z" fill="url(#fill4)" fill-rule="nonzero" transform="matrix(1 0 0 1.00082 332.659 379.524)"/><path d="M350.536 165.481C334.923 180.508 323.7 175.821 313.7 180.066 314.858 179.477 315.989 178.833 317.104 178.162 312.646 178.208 316.99 177.777 308.699 182.075 317.88 176.682 314.154 178.717 306.796 177.555 303.906 180.429 300.489 182.639 296.416 183.79 315.24 176.212 325.971 142.479 320.453 114.456 326.095 135.765 321.428 160.35 306.958 177.389 309.715 177.471 312.492 177.474 315.313 177.391 327.25 167.232 335.118 151.852 337.207 136.285 336.006 151.823 327.879 167.532 315.901 177.37 327.581 176.949 343.904 149.039 343.799 122.472 345.155 142.378 336.087 166.101 319.204 177.192 331.539 176.512 343.554 172.612 351.693 163.067 357.957 148.648 360.765 133.023 360.485 117.888 362.884 142.172 352.343 183.631 323.863 189.538 336.188 185.842 344.756 176.98 350.536 165.481ZM350.751 319.553C350.745 319.642 350.738 319.732 350.732 319.821 350.628 321.151 366.281 303.453 350.751 319.553ZM350.128 324.893C349.928 326.218 356.064 320.529 356.989 319.677 356.796 317.288 359.079 316.923 350.128 324.893ZM364.713 275.972C364.716 275.965 364.719 275.957 364.723 275.949 364.718 275.957 364.714 275.965 364.71 275.973 364.711 275.974 364.712 275.971 364.713 275.972ZM364.687 276.016C364.695 276.002 364.702 275.987 364.71 275.973 364.679 275.956 364.688 276.001 364.687 276.016ZM351.519 314.89C363.231 302.287 354.617 311.549 351.519 314.89ZM410.584 141.824C411.915 160.884 402.239 180.842 386.558 191.697 386.314 220.534 377.802 250.207 364.723 275.949 375.616 249.087 382.467 220.498 386.391 191.804 381.887 194.751 376.69 197.001 371.304 198.205 380.965 191.442 386.896 179.739 389.477 168.475 381.925 180.856 368.619 188.329 351.994 187.373 349.581 188.204 347.013 188.666 344.32 188.704 344.849 205.142 343.504 222.025 349.324 237.645 362.8 267.759 357.775 275.377 350.838 315.622 351.081 315.361 351.292 315.134 351.519 314.89 351.046 315.4 350.7 315.773 350.578 315.906 352.925 290.314 364.102 261.999 348.075 238.703 341.216 229.337 343.675 201.141 342.683 188.705 341.621 188.663 340.478 188.663 339.526 188.527 343.328 188.41 342.673 188.723 342.642 186.99 338.702 188.532 334.498 189.304 330.117 188.942 349.884 188.737 370.222 166.856 370.155 147.45 365.136 150.85 361.886 153.404 360.071 154.947 360.669 154.33 361.401 153.544 362.258 152.568 360.996 153.27 359.705 153.957 358.363 154.614 382.036 137.646 378.655 99.7928 365.063 76.7935 379.607 97.9411 380.829 130.415 364.373 150.575 369.109 147.15 370.784 146.007 368.802 145.2 377.468 146.92 402.012 105.868 377.558 73.5934 383.205 86.8574 385.46 101.579 381.286 115.398 389.327 82.8345 360.443 29.2825 322.324 36.7134 326.746 35.5405 331.432 33.9462 336.127 34.9486 327.314 26.1938 314.835 21.1566 302.423 21.5767 321.526 35.7074 333.429 66.7403 315.303 85.9735 342.19 55.5419 300.459-2.92444 252.083 16.6164 267.409 8.23896 286.664 9.92763 300.844 20.4385 314.951 17.5499 329.748 24.2096 338.531 35.3757 359.891 39.6071 367.522 57.9447 379.513 73.146 407.35 80.3215 418.062 116.603 410.584 141.824ZM390.185 164.531C391.851 152.127 388.519 139.775 385.133 127.881 382.293 135.678 377.229 142.052 370.327 147.324 371.434 163.171 357.931 179.588 344.248 186.32 344.26 186.973 344.28 187.623 344.304 188.275 359.458 187.127 370.071 173.264 372.926 159.233 371.42 170.854 364.085 182.593 353.171 186.941 370.503 185.992 383.487 178.07 390.185 164.531ZM388.917 95.5878C390.655 106.012 387.888 116.759 385.567 126.641 389.518 137.338 392.519 148.614 392.1 160.048 396.845 147.171 395.514 131.055 392.964 117.564 396.989 132.333 398.348 150.319 391.794 164.158 390.346 176.314 384.865 188.569 375.322 196.6 409.58 182.151 423.239 133.52 388.917 95.5878ZM410.243 138.097C414.226 117.311 406.324 90.4397 387.947 78.5018 372.714 70.3053 385.094 74.1512 388.748 94.5459 400.192 104.677 408.382 123.442 410.243 138.097ZM350.577 315.91C350.577 315.909 350.578 315.908 350.578 315.906 350.515 315.975 350.51 315.981 350.577 315.91ZM360.071 154.947C357.524 157.112 357.814 157.275 360.071 154.947ZM290.76 186.524C312.33 175.734 316.109 145.456 311.984 127.153 314.698 155.308 310.192 176.155 278.148 179.607 298.851 166.098 306.757 135.669 298.992 112.831 311.195 161.82 270.498 183.918 277.314 180.12 291.14 180.032 301.008 174.591 307.943 165.423 304.632 173.933 299.23 181.395 290.76 186.524ZM233.33 164.319C233.204 164.34 233.125 164.355 233.047 164.371 233.074 164.369 233.101 164.367 233.127 164.365 233.189 164.352 233.248 164.338 233.33 164.319ZM276.621 162.982C293.57 149.627 300.297 123.983 293.797 103.615 298.375 123.228 293.658 146.272 278.905 160.24 288.175 145.316 289.844 120.133 286.331 112.401 295.53 142.46 261.448 166.171 233.977 164.422 262.089 161.322 279.255 133.089 277.199 105.93 287.275 101.418 294.145 92.3414 297.164 81.8845 296.742 91.6538 292.729 99.2895 293.903 97.1098 313.572 84.632 311.281 54.9283 300.503 36.9623 315.724 51.9678 323.715 76.1639 308.883 94.2257 339.1 60.5185 281.728 12.1277 269.896 19.9407 275.723 16.716 297.594 32.1103 300.485 39.008 310.121 56.5473 312.305 84.1745 294.133 96.6509 300.881 83.525 297.526 54.2563 288.975 44.9499 294.904 52.0213 295.337 62.4854 296.775 71.3157 300.02 91.6176 280.399 108.562 261.258 109.752 266.612 109.941 271.943 108.455 276.831 106.115 278.175 132.264 262.646 159.671 235.656 163.891 256.489 156.697 267.281 133.623 269.301 112.829 263.316 155.121 237.255 163.377 233.33 164.319 233.659 164.264 234.152 164.191 234.835 164.113 234.275 164.259 233.703 164.328 233.127 164.365 232.793 164.438 232.748 164.43 233.047 164.371 230.612 164.513 228.071 163.878 225.641 163.77 243.73 156.069 256.058 132.215 255.343 113.619 290.891 94.9301 268.536 33.8199 254.897 39.3084 266.942 36.1011 289.54 91.1267 255.335 113.355 255.197 107.894 255.555 101.965 253.268 97.0777 254.915 102.5 254.27 108.383 254.117 114.067 252.954 114.706 248.288 116.981 254.115 114.226 254.116 133.647 242.394 155.675 224.093 163.697 250.785 169.155 275.154 159.295 286.683 135.082 285.317 145.083 282.284 154.965 276.621 162.982ZM194.16 159.243C194.092 159.263 193.382 158.569 188.719 158.907 206.208 144.607 204.406 116.289 197.895 96.3075 198.94 113.181 191.856 129.819 177.191 139.598 182.876 117.414 182.532 88.1119 159.585 75.9946 140.845 64.2566 134.414 71.0085 134.215 70.6838 135.778 65.4641 167.853 67.5188 177.742 95.3725 176.672 89.5934 175.253 83.8531 172.569 78.7019 182.458 96.5268 183.32 119.308 177.945 138.748 196.255 124.557 203.961 94.0962 190.425 74.4712 195.932 79.106 196.601 87.7689 197.714 94.4682 205.322 114.382 207.438 143.857 189.752 158.705 218.706 152.914 223.16 115.65 221.431 91.0117 224.046 115.029 219.409 151.442 192.155 158.396 201.943 160.503 225.436 139.708 226.857 105.375 227.792 125.832 215.273 152.275 194.895 159.005 224.742 164 240.265 129.575 239.224 104.321 235.604 106.347 232.373 108.55 227.869 109.184 241.09 105.435 239.896 102.615 238.634 93.2249 239.398 96.2844 239.578 99.7306 239.748 102.928 250.075 91.4006 252.063 71.9913 243.885 58.7937 252.724 71.5029 250.682 92.6308 239.762 103.292 239.767 103.424 239.773 103.556 239.778 103.688 260.29 89.8969 262.518 56.9969 244.122 40.4567 239.801 36.4772 233.089 31.93 227.195 34.9372 232.979 31.3617 240.363 36.0782 244.753 40.1416 263.287 56.9627 260.833 90.4383 239.789 103.977 241.847 129.569 224.733 166.84 194.16 159.243ZM238.301 104.551C238.612 104.379 238.918 104.2 239.224 104.02 239.226 103.627 239.402 103.671 238.301 104.551ZM120.406 88.8035C126.427 87.528 135.812 94.1282 138.192 100.851 137.933 96.7177 134.735 88.6779 139.463 69.9068 135.63 78.2333 134.225 88.504 137.032 97.3601 131.257 88.2682 122.43 86.9177 120.406 88.8035ZM75.2157 183.578C75.9071 184.341 76.0342 184.364 75.2157 183.578ZM88.8231 40.3983C88.9804 40.0112 88.935 40.0406 88.8231 40.3983ZM69.6603 84.9765C69.6605 84.9814 69.6501 84.955 69.634 84.91 69.6495 84.9881 69.6603 85.0116 69.6603 84.9765ZM147.665 156.89C145.153 156.551 142.779 155.148 140.546 154.103 122.963 163.604 87.0441 142.505 97.4648 110.855 83.2997 130.574 84.6114 159.042 106.914 170.012 99.8474 172.483 92.3671 172.48 81.6209 164.794 85.631 189.604 83.0686 227.965 81.6191 230.828 81.6159 230.688 81.9076 230.246 74.5437 247.724 70.1936 262.209 72.5173 277.778 72.1089 292.678 76.7447 298.961 68.067 288.048 67.2737 288.312 67.0855 288.5 67.8202 289.219 67.9004 289.601 67.7348 289.284 67.1421 288.73 67.1711 288.233 68.9453 288.423 70.3283 290.599 71.5281 291.912 67.764 259.737 65.912 255.41 81.5836 228.542 81.3015 207.069 82.8157 185.528 80.6784 164.107 73.7732 159.098 67.6674 152.311 65.2194 144.238 61.0931 166.06 72.4886 180.569 75.2157 183.578 75.0345 183.405 74.8238 183.206 74.545 182.952 41.0934 178.848 32.2467 147.919 46.7987 120.532 36.9044 119.11 30.0265 110.492 30.4345 101.408 21.1018 115.803 18.0069 136.202 27.21 151.367 28.3869 143.367 31.7041 135.839 34.5041 128.292 29.7077 148.17 23.855 151.47 33.1812 157.484 33.4837 157.508 41.19 156.957 33.8258 157.888 35.3345 158.765 36.99 159.409 38.7994 159.738 36.6674 159.59 34.6854 158.953 32.889 157.972 31.5406 158.073 30.1532 158.038 28.8281 157.717 30.4058 159.024 32.0886 160.149 33.8865 161.029 31.7453 160.208 29.7341 159.014 27.8579 157.538 27.1845 175.088 39.9928 194.419 59.1414 192.49 39.4585 195.959 26.1182 175.025 26.707 157.258 25.0298 156.827 23.4493 156.271 21.965 155.599 20.3861 169.216 28.2092 183.157 39.7409 190.118 27.3185 184.267 19.4685 169.059 21.8346 155.536 15.4618 152.611 10.8568 147.589 7.85154 141.472-8.64854 174.131 6.35805 198.945 42.5077 201.533 32.3569 201.481 21.5169 198.639 14.0737 193.581 11.6686 222.054 38.5385 242.187 65.6917 239.112 56.7016 240.994 47.0017 240.083 38.499 236.637 41.416 245.652 43.5346 255.862 43.9847 265.267 42.3968 264.722 43.5414 261.631 37.091 236.031 20.6381 228.793 8.89581 210.645 12.4779 192.456-3.89713 181.527-2.57799 157.639 7.36143 140.426-1.73407 120.086 4.98313 83.2299 30.6189 80.3734 41.0955 58.2935 58.6802 40.7355 80.2327 29.5251 77.0366 32.484 72.7234 34.6171 69.4157 37.5661 74.028 36.6492 78.762 36.4067 83.4436 36.8199 95.9879 10.1925 134.26-0.735875 129.878 1.30124 139.778 4.09013 149.119 8.77381 157.077 15.3295 180.996-4.14373 217.125-5.54674 241.508 13.8973 256.205 6.63475 275.833 4.33882 289.926 14.0465 273.263 4.33389 254.215 9.98942 237.02 16.9529 207.503 14.574 152.117 26.7746 170.743 22.3468 190.317 3.86293 214.769 4.22434 237.81 15.8534 238.954 15.2457 240.085 14.614 241.243 14.0292 214.895-4.05367 183.989 0.459337 157.584 15.7203 158.898 16.7618 160.101 17.8793 160.784 19.1925 151.798 11.1966 139.654 7.01498 128.953 1.73023 109.97 10.028 69.3119 34.7417 87.6519 57.7793 84.692 48.9261 86.737 40.9732 91.5208 33.6044 90.4145 36.0382 89.0716 38.4976 88.4709 41.1894 88.6414 40.829 88.7515 40.5742 88.8231 40.3983 88.247 42.2401 86.0145 52.6025 101.828 57.5728 109.347 60.0498 117.731 58.4491 124.265 54.3599 114.474 62.7809 97.5129 62.2972 90.1354 50.9809 87.9913 52.5317 86.545 52.1971 89.3944 59.7067 89.6753 59.9921 90.3458 63.0369 93.5113 66.8855 90.0573 63.8089 91.1549 63.7707 85.0627 55.0366 68.0803 70.3295 69.401 83.7443 69.634 84.91 69.1817 83.6529 62.8886 63.4452 82.4214 49.6656 78.6259 36.8917 91.6736 36.934 68.7588 38.1102 48.0382 55.328 28.843 78.0119 23.9407 105.139 23.9304 96.4213 26.7277 88.1787 30.5893 80.4328 1.22615 86.9955-4.27084 140 22.0137 154.189 22.0977 153.687 21.334 154.364 26.179 156.117 12.0704 142.645 6.97551 114.899 18.3775 100.138 5.77135 121.524 19.5501 156.349 31.9826 157.412 19.4098 149.414 14.4048 122.442 30.431 101.072 30.7066 86.5833 40.8467 74.1577 51.517 65.259 33.9889 81.6699 18.638 117.841 55.0498 120.564 55.0694 120.53 55.087 120.495 55.1067 120.46 26.5852 108.749 47.2419 74.2569 63.6836 60.8682 42.6432 81.6513 30.6641 113.865 59.1553 121.444 57.1172 121.162 56.5294 120.75 55.476 120.839 45.548 140.254 53.1283 166.205 70.6957 178.57 63.3663 167.724 60.9112 153.004 64.3521 141.083 61.2962 128.492 68.2792 114.373 77.6639 105.863 46.1181 137.679 80.8446 175.274 106.211 170.105 88.0978 162.492 77.8739 137.453 97.9274 109.219 99.1009 105.23 100.559 101.309 102.015 97.4405 98.7815 106.732 94.581 121.629 97.9391 131.353 104.153 146.229 124.12 160.697 140.432 154.041 119.054 143.746 107.8 109.903 119.876 89.1678 113.858 99.8342 113.129 142.272 147.665 156.89ZM87.6172 46.1775C88.4147 45.7011 87.8826 46.2534 87.8847 44.0389 87.771 44.748 87.6818 45.4605 87.6172 46.1775ZM89.4752 49.8545C87.7914 46.8075 88.9074 46.6994 87.5145 47.5669 87.2927 52.4553 87.3749 51.3577 89.4752 49.8545ZM171.338 22.2024C192.763 17.5091 215.114 13.5595 237.066 16.2446 238.972 15.2525 201.851-0.0173934 171.338 22.2024ZM82.8029 50.7912C73.1502 57.3084 67.1029 68.5227 69.0764 80.1367 69.9822 70.2579 77.092 60.4439 84.3488 53.9442 83.7137 52.9009 83.1986 51.8491 82.8029 50.7912ZM67.0113 177.043C67.8347 177.537 68.6784 178.01 69.5589 178.442 52.1819 165.411 43.9741 140.536 54.8747 120.884 52.1873 121.076 49.4747 121.015 46.8377 120.54 33.0824 151.145 43.9757 176.334 74.0397 182.509 72.1282 180.15 69.6108 178.552 67.0113 177.043ZM48.7654 136.801C46.9183 148.495 49.7236 161.538 57.8443 170.42 60.255 173.287 63.5208 175.028 66.6963 176.861 53.2805 168.609 47.5359 152.247 48.7654 136.801ZM67.0113 177.043C66.9066 176.982 66.8012 176.922 66.6963 176.861 66.799 176.924 66.9079 176.98 67.0113 177.043ZM73.3924 300.289C72.6433 299.186 67.822 293.1 67.9306 293.922 74.247 301.907 73.4335 301.314 73.3924 300.289ZM73.8631 307.608C67.7148 299.749 68.4817 299.735 68.5642 301.51 74.644 309.674 73.9457 308.927 73.8631 307.608ZM69.0779 306.61C75.0219 314.019 74.3605 314.918 74.1427 311.69 73.1902 310.32 68.9068 304.766 69.0779 306.61ZM117.843 37.0461C110.985 40.3398 103.613 42.7779 97.0053 46.5889 97.3 52.5039 105.459 58.559 112.565 57.376 97.6432 62.1317 76.434 37.3432 124.137 9.12786 113.183 17.5822 99.6935 26.2764 97.0797 41.4927 106.672 37.6248 120.086 34.7904 129.889 36.9285 130.082 37.1249 126.197 36.1358 117.843 37.0461ZM116.711 37.1699C110.035 38.0143 103.263 39.8998 96.9302 42.6332 96.8368 43.544 96.8143 44.4401 96.8678 45.3163 103.172 41.8873 110.078 39.8302 116.711 37.1699ZM337.652 70.8718C352.96 69.712 385.882 115.508 364.067 149.17 388.401 119.611 354.62 66.5296 337.652 70.8718Z" fill="#000000" fill-rule="nonzero" fill-opacity="1" transform="matrix(1 0 0 1.00082 332.659 379.524)"/></g></g></g></g></svg>