<svg width="392" height="432" xmlns="http://www.w3.org/2000/svg" xmlns:xlink="http://www.w3.org/1999/xlink" xml:space="preserve" overflow="hidden"><defs><clipPath id="clip0"><rect x="764" y="324" width="392" height="432"/></clipPath><clipPath id="clip1"><rect x="765" y="324" width="390" height="432"/></clipPath><clipPath id="clip2"><rect x="765" y="324" width="390" height="432"/></clipPath><clipPath id="clip3"><rect x="765" y="324" width="390" height="432"/></clipPath></defs><g clip-path="url(#clip0)" transform="translate(-764 -324)"><g clip-path="url(#clip1)"><g clip-path="url(#clip2)"><g clip-path="url(#clip3)"><path d="M323.562 430.122C323.562 429.403 327.013 426.67 331.184 424.226 335.21 421.637 343.695 415.741 349.878 410.996 362.821 401.073 364.69 402.799 352.754 414.016L344.414 421.637 354.336 416.316C359.801 413.296 365.553 409.845 366.991 408.551 376.482 400.929 384.104 392.013 389.137 383.241 394.458 373.606 394.746 372.6 394.746 360.232L394.746 347.29 374.757 301.272C363.827 275.962 354.049 253.385 352.898 250.94 351.892 248.639 346.715 236.991 341.681 225.055L332.334 203.485 320.398 204.06C313.783 204.347 308.031 205.21 307.456 206.073 307.024 206.936 307.743 209.237 309.325 211.106 310.763 213.119 312.058 215.708 312.058 217.002 312.058 218.296 313.064 220.597 314.215 222.035 315.365 223.617 316.372 226.062 316.372 227.644 316.372 229.082 317.666 231.958 319.248 233.971 320.83 235.985 322.124 238.717 322.124 240.011 322.124 241.449 323.131 243.75 324.281 245.332 325.431 246.77 326.438 249.358 326.438 250.796 326.438 252.378 327.445 254.823 328.739 256.117 330.033 257.555 331.327 260.431 331.471 262.445 331.759 264.314 333.053 267.046 334.347 268.341 335.642 269.779 336.504 272.223 336.217 273.949 335.785 275.962 336.504 277.688 338.23 278.839 339.668 279.701 340.819 282.002 340.819 283.872 340.819 285.741 341.825 288.042 342.976 289.049 344.126 290.055 345.133 292.069 345.133 293.65 345.133 295.232 346.427 298.108 348.009 300.122 349.591 302.135 350.885 305.155 350.885 306.881 350.885 308.462 351.892 311.195 353.042 312.633 354.192 314.215 355.199 316.515 355.199 317.954 355.199 319.248 356.062 321.117 357.212 321.98 358.363 322.987 359.657 325.431 360.089 327.589 360.951 331.327 363.54 337.223 367.71 345.42 368.717 347.434 369.58 350.454 369.58 352.035 369.58 353.617 370.586 355.631 371.881 356.781 373.319 357.931 373.894 360.089 373.606 362.677 373.175 364.978 373.75 367.423 374.9 368.285 377.201 370.299 377.345 374.469 375.044 378.639 374.181 380.365 373.462 383.816 373.606 386.117 373.75 388.562 373.031 391.438 372.024 392.732 369.004 396.615 356.206 403.805 337.942 412.002 321.836 419.192 320.542 419.48 319.248 417.035 317.378 413.584 317.378 412.721 319.248 412.721 320.111 412.721 331.327 408.119 344.27 402.511 362.965 394.458 368.142 391.582 369.436 388.706 370.442 386.692 370.874 384.823 370.73 384.679 370.442 384.392 358.075 389.569 342.976 396.184 317.522 407.257 315.509 407.832 314.358 405.387 313.639 403.805 313.352 402.367 313.639 402.223 313.927 401.936 326.869 396.327 342.257 389.712 357.644 383.097 370.874 377.201 371.449 376.626 372.168 376.195 372.456 374.325 372.168 372.743 371.737 370.011 369.58 370.73 343.695 381.947 328.308 388.562 314.502 394.602 313.208 395.465 311.195 396.615 310.332 396.184 309.038 393.883 308.175 392.301 307.743 390.719 308.031 390.575 308.319 390.431 321.692 384.535 337.942 377.633 372.024 363.252 371.449 363.54 370.299 360.664 369.58 358.794 366.847 359.513 354.049 365.266 312.201 383.673 306.161 385.973 304.723 383.816 304.004 382.666 303.429 381.516 303.429 381.084 303.429 380.653 317.666 374.181 335.066 366.704 352.467 359.226 366.704 352.754 366.704 352.323 366.704 351.892 366.128 350.741 365.409 349.591 364.403 348.009 357.931 350.31 332.334 361.383 302.998 374.038 300.553 374.9 299.69 372.168 299.259 370.586 299.115 369.148 299.403 369.004 299.546 368.717 313.783 362.533 330.752 355.199 347.721 348.009 361.814 341.825 362.102 341.538 362.821 340.819 360.52 336.504 359.369 336.504 358.075 336.504 308.175 357.644 300.122 361.67 296.527 363.396 296.095 363.396 294.657 360.664 293.794 359.082 293.363 357.644 293.65 357.5 293.938 357.212 308.031 351.173 325 343.982 341.969 336.792 356.062 330.321 356.206 329.746 356.493 329.17 356.062 327.732 355.343 326.582 354.192 324.856 348.153 327.013 322.268 338.23 304.723 345.708 290.487 351.46 290.487 350.741 290.487 350.166 290.199 348.728 289.768 347.721 289.192 346.283 297.677 341.969 320.686 332.19 338.086 324.712 352.323 318.241 352.323 317.81 352.323 317.378 351.748 316.228 351.029 315.077 349.878 313.352 343.839 315.509 317.954 326.726 287.898 339.812 286.029 340.387 284.591 337.799 283.296 335.354 283.872 334.635 289.336 332.334 292.788 330.896 307.168 324.712 321.405 318.529 335.642 312.489 347.434 307.312 347.577 307.168 347.865 306.881 347.146 305.73 346.139 304.292 344.414 301.847 342.544 302.423 318.385 312.777 304.292 318.96 290.055 325.144 287.035 326.582 283.872 328.02 281.283 329.17 281.139 328.883 280.852 328.739 280.42 327.301 279.989 325.719 279.126 323.131 282.577 321.405 310.619 309.325 328.02 301.847 342.257 295.376 342.257 294.657 342.257 294.082 341.681 293.075 340.819 292.644 339.812 292.069 315.94 301.847 278.119 318.673 276.825 319.248 273.949 313.496 275.1 312.777 275.243 312.633 289.336 306.593 306.305 299.403 323.274 292.212 337.367 285.741 337.511 285.166 337.799 284.591 337.367 283.153 336.648 282.146 335.498 280.277 332.765 281.427 273.805 307.168 271.792 308.031 269.779 303.429 271.361 301.847 271.936 301.272 286.173 294.801 302.71 287.754 331.184 275.387 334.347 273.374 330.896 269.923 330.321 269.347 315.796 275.1 298.396 282.577 281.139 290.055 266.903 296.095 266.615 295.951 266.471 295.664 266.04 294.369 265.752 292.788 265.465 290.631 270.354 287.898 296.239 276.825 313.208 269.491 327.301 262.876 327.445 262.301 327.589 261.582 327.301 260.144 326.582 259.137 325.719 257.699 318.241 260.288 293.938 270.785 264.602 283.44 262.301 284.303 261.15 281.715 260.431 280.133 260.144 278.695 260.431 278.551 260.719 278.263 274.668 272.223 291.206 265.321 307.887 258.274 321.836 252.091 322.555 251.659 323.131 251.228 322.699 249.79 321.836 248.496 320.111 246.482 316.659 247.633 289.049 259.569 261.007 271.648 257.987 272.655 256.261 270.642 254.535 268.485 255.686 267.622 265.608 263.02 271.792 260.288 286.029 254.104 297.246 249.358 308.462 244.757 317.666 240.299 317.81 239.436 317.81 233.827 314.934 234.546 284.015 248.064 260.863 258.131 252.235 261.294 251.372 259.856 250.796 258.993 250.509 257.555 250.653 256.836 250.94 256.117 265.033 249.502 282.002 242.168 298.971 234.834 312.633 228.363 312.489 227.931 311.051 223.042 314.934 221.892 273.661 239.867 249.358 250.509 247.345 251.084 246.482 248.496 246.051 246.914 245.907 245.476 246.195 245.332 246.339 245.044 260.575 238.861 277.544 231.527 294.513 224.192 308.606 218.153 308.75 217.865 309.038 217.721 308.319 216.571 307.312 215.277 305.73 212.976 302.854 213.982 274.381 226.35 245.188 239.004 242.887 239.723 241.593 237.279 240.73 235.841 240.586 234.259 241.161 233.971 241.881 233.684 255.542 227.644 271.792 220.741 288.042 213.839 301.847 207.511 302.566 206.936 303.429 206.073 303.429 205.066 302.423 204.06 301.272 202.909 293.794 205.498 275.243 213.551 261.007 219.735 247.058 225.918 244.038 227.212 238.861 229.801 238.717 229.801 237.135 226.925 236.272 225.343 235.841 223.905 236.128 223.761 236.416 223.617 250.365 217.577 267.19 210.387 295.808 198.02 298.108 197.301 303.142 198.739 308.175 200.177 325.431 199.602 331.471 197.876 334.06 197.013 337.511 204.204 365.985 270.498 383.385 310.907 398.341 347.002 399.204 350.741 405.531 378.496 377.633 415.454 341.681 426.958 330.465 430.553 323.562 431.704 323.562 430.122Z" fill="#000000" fill-rule="nonzero" fill-opacity="1" transform="matrix(1 0 0 -1.00062 749.469 756.272)"/><path d="M265.752 424.945C263.739 420.055 231.814 350.166 214.414 312.777 211.538 306.449 205.21 292.788 200.608 282.29 195.863 271.792 191.549 263.451 190.973 263.595 190.111 263.883 129.425 338.374 92.8982 384.104 84.8451 394.17 78.2301 402.223 78.0863 402.08 77.7987 401.936 78.9491 397.19 80.531 391.582 89.3031 359.945 121.659 305.299 167.246 244.757L177.312 231.527 161.781 197.301C153.153 178.606 145.962 162.931 145.675 162.644 145.531 162.356 143.23 164.082 140.785 166.527 133.308 173.861 124.392 177.312 111.018 178.031 97.3562 178.75 89.8783 177.168 76.073 170.265 28.7611 146.825 15.531 80.8186 53.4956 57.9535 84.5575 39.115 133.02 60.8296 150.277 101.095 152.002 105.265 159.911 121.947 167.965 138.197 176.018 154.591 185.796 175.299 189.823 184.215 193.85 193.274 197.732 201.184 198.308 201.759 198.883 202.334 202.622 198.739 206.504 193.85 214.845 183.208 261.15 127.555 266.184 122.091 268.053 120.077 272.223 113.319 275.243 107.135 289.911 77.9425 321.98 59.5354 350.885 63.5619 366.416 65.5752 379.502 74.9226 386.261 88.4403 390.719 97.7876 392.445 114.757 389.856 126.549 385.83 145.243 371.018 166.527 354.336 177.6 325.431 196.869 289.48 193.418 274.812 170.265L270.642 163.938 257.124 180.763C249.646 190.111 236.56 206.217 228.075 216.715L212.688 235.697 218.009 248.352C251.659 329.027 269.923 391.007 268.628 420.631L268.197 430.697 265.752 424.945ZM261.726 392.732C260.144 382.378 255.83 364.546 253.097 356.637 252.378 354.624 250.221 347.29 248.064 340.1 243.462 324.856 228.938 285.454 217.865 258.706 213.551 248.208 209.956 237.998 209.956 236.128 209.956 234.115 212.4 229.513 215.277 225.918 218.296 222.323 221.46 218.296 222.467 217.146 223.33 215.996 229.226 208.805 235.409 201.184 241.593 193.562 249.79 183.208 253.673 178.319 257.555 173.429 263.02 167.102 265.752 164.226L270.785 159.049 273.805 163.075C284.878 177.6 295.232 183.927 309.9 185.077 341.538 187.666 374.613 163.363 384.679 129.856 387.555 120.509 387.268 103.108 384.248 94.6239 380.94 85.2766 372.887 76.2168 364.403 72.0465 349.159 64.4248 323.706 67.0133 307.024 77.9425 295.52 85.4204 283.728 98.5066 278.263 110.011 275.531 115.619 271.936 121.947 270.21 123.816 268.628 125.686 265.465 129.281 263.451 131.582 254.248 141.936 235.122 164.657 220.741 182.633 206.361 200.465 200.465 207.08 198.883 207.08 196.869 207.08 193.274 201.04 186.228 186.228 181.914 177.024 178.319 169.115 178.319 168.827 178.319 168.54 171.416 154.159 162.931 136.903 154.303 119.646 145.531 101.527 143.374 96.6372 133.02 74.3473 105.122 56.0841 80.6748 55.7965 61.6925 55.6527 47.8872 63.1305 39.9779 77.9425 37.1018 83.4071 36.6704 86.1394 36.6704 101.383 36.6704 118.352 36.8142 118.783 42.135 129.712 55.365 156.892 85.1327 175.73 111.593 173.573 121.515 172.854 133.883 167.821 140.066 162.069 142.367 159.911 144.668 158.186 145.243 158.186 147.257 158.186 150.564 163.363 155.31 174.004 157.898 179.9 162.644 190.254 165.808 197.013 179.757 227.212 181.051 230.232 180.188 232.677 179.613 233.971 174.58 241.305 168.971 248.783 133.883 295.52 97.6438 354.336 90.0221 376.77L87.7212 383.241 90.7411 379.646C92.323 377.633 95.4867 374.181 97.6438 371.737 99.8009 369.436 104.978 362.965 109.292 357.356 120.077 343.263 140.929 317.522 144.093 314.502 145.531 313.064 146.681 311.482 146.681 310.907 146.681 310.332 148.839 307.6 151.427 304.867 155.597 300.409 162.069 292.5 172.71 278.839 189.967 256.692 190.254 256.549 194.425 261.438 195.575 262.732 203.341 278.839 211.681 296.958 254.823 391.294 262.301 407.257 262.876 405.531 263.308 404.524 262.732 398.772 261.726 392.732Z" fill="#000000" fill-rule="nonzero" fill-opacity="1" transform="matrix(1 0 0 -1.00062 749.469 756.272)"/><path d="M188.529 237.854C184.646 232.965 184.79 228.938 188.816 224.049 193.85 218.009 197.732 217.721 202.765 222.754 208.086 228.075 208.518 233.971 203.772 238.429 199.027 242.887 192.268 242.6 188.529 237.854ZM202.622 234.259C206.361 228.075 196.582 221.029 191.549 226.062 188.816 228.794 189.535 233.971 192.843 236.272 196.438 238.861 200.177 237.998 202.622 234.259Z" fill="#000000" fill-rule="nonzero" fill-opacity="1" transform="matrix(1 0 0 -1.00062 749.469 756.272)"/><path d="M316.659 164.513C314.79 162.5 299.115 127.843 297.102 121.228 295.808 117.201 304.148 104.115 311.914 97.9314 331.04 82.6881 352.898 81.5376 362.677 95.1991 365.409 99.0819 366.128 102.246 366.416 111.737 366.991 122.378 366.56 124.248 362.677 132.589 360.232 137.478 355.055 144.956 351.316 148.982 339.237 161.35 321.117 169.546 316.659 164.513ZM333.485 157.754C348.153 150.996 361.958 131.15 363.396 115.044 364.259 105.265 360.376 96.2057 353.761 92.7544 342.688 87.0022 323.131 92.7544 310.619 105.409 299.115 116.914 299.115 116.195 308.462 138.197 313.064 148.839 317.235 158.617 318.097 160.055 319.535 162.931 323.418 162.356 333.485 157.754Z" fill="#000000" fill-rule="nonzero" fill-opacity="1" transform="matrix(1 0 0 -1.00062 749.469 756.272)"/><path d="M96.3496 154.015C75.354 147.544 56.2279 123.96 54.9336 102.821 54.2146 93.042 56.3717 87.146 63.1305 80.2434 77.3673 65.2876 110.155 77.9425 124.823 103.971 129.281 111.737 135.177 128.993 135.177 134.17 135.177 137.765 126.117 148.982 120.221 152.577 115.619 155.454 103.396 156.173 96.3496 154.015ZM117.777 148.839C120.077 147.688 124.248 144.093 126.98 140.929L132.013 135.033 128.418 123.241C126.405 116.77 123.385 108.861 121.515 105.697 116.77 97.5 104.834 86.7146 95.9181 82.6881 85.9956 77.9425 72.6217 77.6549 67.0133 82.1128 48.1748 96.9248 64.4248 136.615 94.1925 148.551 101.527 151.427 112.6 151.571 117.777 148.839Z" fill="#000000" fill-rule="nonzero" fill-opacity="1" transform="matrix(1 0 0 -1.00062 749.469 756.272)"/><path d="M241.593 214.701C241.737 210.819 251.228 204.06 265.752 197.876 280.133 191.549 282.146 190.973 285.741 192.555 289.336 194.281 288.761 194.712 268.772 203.341 257.411 208.23 246.626 213.119 244.9 214.126 243.031 214.989 241.593 215.277 241.593 214.701Z" fill="#000000" fill-rule="nonzero" fill-opacity="1" transform="matrix(1 0 0 -1.00062 749.469 756.272)"/><path d="M263.595 187.522C270.354 181.051 270.642 180.907 273.374 183.496 276.25 186.084 276.106 186.084 267.334 190.111 262.445 192.268 258.131 194.137 257.555 194.137 257.124 194.137 259.856 191.117 263.595 187.522Z" fill="#000000" fill-rule="nonzero" fill-opacity="1" transform="matrix(1 0 0 -1.00062 749.469 756.272)"/><path d="M212.4 170.122C210.387 168.108 211.538 165.951 215.708 164.369L219.878 162.788 216.858 166.958C213.263 171.704 213.695 171.416 212.4 170.122Z" fill="#000000" fill-rule="nonzero" fill-opacity="1" transform="matrix(1 0 0 -1.00062 749.469 756.272)"/><path d="M208.086 159.48C207.511 157.179 208.374 156.029 212.257 154.447 214.989 153.296 220.885 150.708 225.343 148.839 229.801 146.825 233.54 145.387 233.827 145.531 235.122 146.969 224.768 155.597 217.865 158.761 213.263 160.774 209.381 162.5 209.237 162.5 209.093 162.5 208.518 161.206 208.086 159.48Z" fill="#000000" fill-rule="nonzero" fill-opacity="1" transform="matrix(1 0 0 -1.00062 749.469 756.272)"/><path d="M204.06 149.558C203.916 148.839 203.772 147.4 203.628 146.681 203.485 145.243 251.659 123.241 252.666 124.104 252.81 124.392 250.653 126.98 247.633 129.712 244.038 133.308 236.272 137.622 223.761 142.942 202.765 152.002 204.347 151.427 204.06 149.558Z" fill="#000000" fill-rule="nonzero" fill-opacity="1" transform="matrix(1 0 0 -1.00062 749.469 756.272)"/><path d="M198.02 136.615C197.445 134.314 198.451 133.164 203.197 131.15 206.504 129.712 220.741 123.816 234.69 117.92 248.783 112.024 260.144 106.56 260.288 105.697 260.288 100.088 257.411 100.808 226.493 114.325 203.628 124.104 194.712 127.412 193.85 126.117 193.274 125.111 192.987 123.816 193.131 123.097 193.562 121.947 230.52 105.265 250.653 97.0686 255.254 95.1991 255.83 94.4801 254.679 92.1792 253.241 89.7345 251.084 90.4535 221.892 102.965 204.635 110.442 190.111 116.482 189.679 116.482 189.104 116.482 188.385 115.332 188.097 113.894 187.378 111.162 190.83 109.436 235.409 90.4535 243.606 87.0022 250.221 83.5509 250.221 82.6881 250.221 77.2234 247.201 78.0863 216.427 91.4602 192.411 101.958 184.79 104.69 183.927 103.252 183.208 102.246 182.777 100.808 183.064 100.232 183.352 99.0819 215.42 84.8451 236.272 76.5044 246.482 72.4779 246.626 72.3341 244.613 69.1704 243.606 67.7323 236.704 70.177 211.969 80.9624 182.633 93.6173 180.332 94.4801 179.181 91.8916 178.462 90.3097 178.175 88.8717 178.462 88.7279 178.75 88.4403 192.987 82.2566 210.1 74.9226 236.991 63.4181 241.161 61.1173 240.586 58.8164 240.155 57.3783 239.58 56.0841 239.436 56.0841 239.148 56.0841 224.624 62.2677 206.936 69.7456 189.392 77.3673 174.867 83.2633 174.723 83.1195 174.436 82.8319 174.004 81.5376 173.717 80.0996 173.429 77.9425 178.606 75.2102 204.491 64.281 221.748 56.9469 235.841 50.4757 235.841 49.6128 235.841 44.0044 232.965 44.7234 202.046 58.2411 178.894 68.3075 170.265 71.4712 169.403 70.0332 168.827 69.1704 168.54 67.7323 168.684 67.0133 168.971 66.2943 183.064 59.6792 200.033 52.3451 229.082 39.6903 232.246 37.677 228.938 34.2257 228.363 33.6504 213.982 39.2589 197.013 46.7367 169.403 58.6726 165.951 59.823 164.226 57.8097 163.363 56.5155 162.931 55.0774 163.507 54.646 164.226 54.0708 177.887 48.031 194.137 41.1283 210.387 34.0819 223.905 28.1858 224.192 27.8982 224.624 27.4668 223.905 26.3164 222.754 25.1659 220.885 23.2965 217.002 24.5907 190.686 36.0951 167.533 46.0177 160.343 48.6062 159.48 47.1681 158.761 46.1615 158.473 44.7234 158.617 44.0044 158.905 43.4292 171.416 37.5332 186.659 31.0619 213.695 19.7013 214.27 19.4137 210.1 17.6881 206.073 15.9624 204.06 16.5376 182.345 26.0288 169.403 31.6372 158.186 36.5266 157.179 36.958 156.316 37.2456 154.878 36.3827 154.015 34.8009 152.721 32.2124 153.872 31.3496 167.965 25.4535 176.449 21.7146 185.221 18.1195 187.522 17.2566 189.823 16.3938 191.405 15.3872 190.973 15.0996 190.111 14.0929 166.814 18.2633 156.316 21.1394 141.073 25.3097 144.524 20.2765 163.219 10.7854 168.827 8.0531 177.168 4.74558 181.914 3.59513 190.111 1.58186 206.936 0.575221 205.354 2.30088 204.779 2.7323 199.027 4.31416 192.411 5.75221 180.619 8.34071 167.533 12.6549 170.553 12.7987 171.416 12.9425 175.586 12.2235 179.9 11.5044 186.803 10.2102 188.097 10.354 191.549 12.9425 195.288 15.6748 195.863 15.8186 200.033 13.6615 205.642 10.6416 212.113 12.0796 215.133 16.6814 216.427 18.5509 218.009 19.8451 218.584 19.4137 219.303 18.9823 220.741 19.1261 221.892 19.5575 224.768 20.5642 234.403 35.2323 234.403 38.396 234.403 39.6903 235.553 41.9911 236.847 43.4292 238.142 44.8673 239.292 47.1681 239.436 48.6062 239.436 50.0442 240.73 52.7766 242.024 54.646 243.319 56.6593 244.469 59.5354 244.469 61.2611 244.469 62.9867 245.476 65.1438 246.626 66.1504 247.777 67.1571 248.783 69.1704 248.783 70.7522 248.783 72.1903 250.221 75.354 251.803 77.6549 253.529 79.9557 254.535 82.6881 254.104 83.8385 253.673 85.1327 254.104 86.427 255.254 86.8584 256.405 87.2898 257.699 89.8783 258.131 92.6106 260 101.958 262.301 101.67 269.06 91.3164 272.511 86.1394 275.819 81.969 276.394 81.969 276.969 81.969 277.544 80.8186 277.544 79.5243 277.544 77.0796 263.02 41.2721 257.555 30.4867 251.084 17.4004 240.874 10.4978 219.591 4.88938L206.361 1.43805 218.153 2.01327C231.814 2.7323 242.168 6.75885 251.228 14.8119 257.555 20.708 259.281 23.7279 273.086 55.7965L283.153 79.2367 276.825 87.4336C273.374 91.8916 268.628 99.5133 266.327 104.115L262.157 112.6 230.951 126.117C213.839 133.451 199.602 139.491 199.314 139.491 199.027 139.491 198.451 138.197 198.02 136.615Z" fill="#000000" fill-rule="nonzero" fill-opacity="1" transform="matrix(1 0 0 -1.00062 749.469 756.272)"/></g></g></g></g></svg>